<svg xmlns="http://www.w3.org/2000/svg" width="252.104" height="219.136" viewBox="0 0 252.104 219.136">
    <g transform="translate(-540.948 -2542.863)">
        <g transform="translate(540.948 2542.863)">
            <ellipse cx="102.781" cy="101.811" rx="102.781" ry="101.811" transform="translate(0 0)" fill="#0062a0"/>
            <g transform="translate(23.523 65.199)">
                <path d="M616.33,363.637v-12.76H621a5.007,5.007,0,0,1,2.248.445,3.1,3.1,0,0,1,1.335,1.2,3.32,3.32,0,0,1,.441,1.7,2.792,2.792,0,0,1-.293,1.348,2.364,2.364,0,0,1-.782.873,3.468,3.468,0,0,1-1.075.478v.123a2.573,2.573,0,0,1,1.245.409,2.959,2.959,0,0,1,1.006,1.069,3.315,3.315,0,0,1,.4,1.682,3.378,3.378,0,0,1-.459,1.755,3.129,3.129,0,0,1-1.41,1.227,5.687,5.687,0,0,1-2.437.451Zm1.927-7.24h2.581a2.644,2.644,0,0,0,1.167-.25,2.048,2.048,0,0,0,.829-.7,1.844,1.844,0,0,0,.308-1.067,1.771,1.771,0,0,0-.555-1.327,2.362,2.362,0,0,0-1.7-.536h-2.631Zm0,5.587h2.78a2.95,2.95,0,0,0,1.982-.536,1.734,1.734,0,0,0,.6-1.339,2.119,2.119,0,0,0-.3-1.11,2.2,2.2,0,0,0-.871-.805,2.825,2.825,0,0,0-1.337-.3h-2.849Z" transform="translate(-522.651 -350.859)" fill="#fff"/>
                <path d="M672.942,363.651H670.9l4.591-12.761h2.225l4.592,12.761h-2.044l-3.608-10.443h-.1Zm.343-5h6.631v1.62h-6.631Z" transform="translate(-566.709 -350.872)" fill="#fff"/>
                <path d="M739.66,363.651V350.89h1.926v6.093h.156l5.352-6.093h2.425l-5.147,5.745,5.165,7.016h-2.312l-4.124-5.7-1.508,1.734v3.968Z" transform="translate(-622.223 -350.872)" fill="#fff"/>
                <path d="M808.359,350.89h1.927v8.393a4.46,4.46,0,0,1-.63,2.371,4.381,4.381,0,0,1-1.769,1.62,6.357,6.357,0,0,1-5.34,0,4.372,4.372,0,0,1-1.77-1.62,4.462,4.462,0,0,1-.63-2.371V350.89h1.927v8.237a3.047,3.047,0,0,0,.385,1.541,2.7,2.7,0,0,0,1.087,1.056,3.853,3.853,0,0,0,3.35,0,2.676,2.676,0,0,0,1.085-1.056,3.1,3.1,0,0,0,.376-1.541Z" transform="translate(-671.056 -350.872)" fill="#fff"/>
                <path d="M616.22,467.091V454.33h1.926v5.546H624.5V454.33h1.926v12.761H624.5v-5.563h-6.357v5.563Z" transform="translate(-522.562 -434.385)" fill="#fff"/>
                <path d="M692,454.33h1.926v8.393a4.445,4.445,0,0,1-.63,2.369,4.363,4.363,0,0,1-1.77,1.622,6.357,6.357,0,0,1-5.34,0,4.37,4.37,0,0,1-1.769-1.622,4.447,4.447,0,0,1-.63-2.369V454.33h1.926v8.237a3.05,3.05,0,0,0,.385,1.541,2.7,2.7,0,0,0,1.086,1.056,3.853,3.853,0,0,0,3.348,0,2.653,2.653,0,0,0,1.085-1.056,3.083,3.083,0,0,0,.385-1.541Z" transform="translate(-577.112 -434.385)" fill="#fff"/>
                <path d="M751,454.33h2.337l4.061,9.919h.152l4.063-9.919h2.337v12.761h-1.832v-9.233H762l-3.764,9.216h-1.522l-3.762-9.224h-.12V467.1H751Z" transform="translate(-631.378 -434.385)" fill="#fff"/>
                <path d="M829.8,467.091H827.76l4.593-12.761h2.225l4.594,12.761h-2.046l-3.608-10.443h-.1Zm.343-5h6.631v1.612h-6.631Z" transform="translate(-693.351 -434.385)" fill="#fff"/>
                <path d="M906.83,454.33v12.761h-1.77l-6.486-9.357h-.117v9.359H896.53V454.33h1.782l6.494,9.376h.117V454.33Z" transform="translate(-748.873 -434.385)" fill="#fff"/>
                <path d="M614.66,571.169V558.406h4.548a5.306,5.306,0,0,1,2.466.51,3.409,3.409,0,0,1,1.466,1.412,4.317,4.317,0,0,1,.487,2.079,4.211,4.211,0,0,1-.489,2.059,3.331,3.331,0,0,1-1.478,1.372,5.477,5.477,0,0,1-2.464.493h-3.441v-1.649h3.275a3.689,3.689,0,0,0,1.522-.268,1.763,1.763,0,0,0,.863-.771,2.562,2.562,0,0,0,.276-1.227,2.661,2.661,0,0,0-.277-1.252,1.828,1.828,0,0,0-.867-.813,3.559,3.559,0,0,0-1.541-.283h-2.419v11.11Zm6.3-5.758,3.154,5.758h-2.194l-3.082-5.758Z" transform="translate(-521.303 -518.409)" fill="#fff"/>
                <path d="M675.327,558.42v12.762H673.4V558.42Z" transform="translate(-568.727 -518.423)" fill="#fff"/>
                <path d="M704.912,561.724a3.977,3.977,0,0,0-.484-1.019,3.23,3.23,0,0,0-.718-.771,3.06,3.06,0,0,0-.95-.49,3.892,3.892,0,0,0-1.169-.167,3.526,3.526,0,0,0-1.944.555,3.763,3.763,0,0,0-1.368,1.622,7.084,7.084,0,0,0,0,5.238,3.758,3.758,0,0,0,1.385,1.626,3.66,3.66,0,0,0,2,.555,3.726,3.726,0,0,0,1.816-.424,2.978,2.978,0,0,0,1.2-1.206,3.718,3.718,0,0,0,.428-1.828l.5.094h-3.651V563.92h5.009v1.451a5.481,5.481,0,0,1-.665,2.793,4.681,4.681,0,0,1-1.882,1.823,6.19,6.19,0,0,1-5.779-.156,5.394,5.394,0,0,1-2.034-2.263,7.774,7.774,0,0,1-.728-3.487,8.283,8.283,0,0,1,.424-2.743,5.978,5.978,0,0,1,1.193-2.065,5.2,5.2,0,0,1,1.813-1.3,5.7,5.7,0,0,1,2.285-.451,5.923,5.923,0,0,1,1.927.3,5.278,5.278,0,0,1,1.6.867,4.9,4.9,0,0,1,1.766,3.034Z" transform="translate(-586.874 -517.695)" fill="#fff"/>
                <path d="M766.17,571.182V558.42H768.1v5.546h6.357V558.42h1.927v12.762h-1.927v-5.565H768.1v5.565Z" transform="translate(-643.626 -518.423)" fill="#fff"/>
                <path d="M830.51,560.057V558.4h9.877v1.657H836.4v11.106h-1.926V560.057Z" transform="translate(-695.571 -518.407)" fill="#fff"/>
                <path d="M897.9,561.017a1.821,1.821,0,0,0-.823-1.374,3.179,3.179,0,0,0-1.819-.489,3.427,3.427,0,0,0-1.358.247,2.088,2.088,0,0,0-.888.672,1.6,1.6,0,0,0-.316.963,1.4,1.4,0,0,0,.216.786,1.827,1.827,0,0,0,.566.551,3.832,3.832,0,0,0,.757.368,7.758,7.758,0,0,0,.78.239l1.247.325a9.738,9.738,0,0,1,1.252.4,5.035,5.035,0,0,1,1.191.672,3.314,3.314,0,0,1,.888,1.034,3.04,3.04,0,0,1,.339,1.478,3.415,3.415,0,0,1-.559,1.926,3.769,3.769,0,0,1-1.614,1.325,6.066,6.066,0,0,1-2.55.487,6.164,6.164,0,0,1-2.479-.457,3.8,3.8,0,0,1-1.64-1.293,3.725,3.725,0,0,1-.655-1.99h1.927a1.959,1.959,0,0,0,.451,1.156,2.354,2.354,0,0,0,1.017.678,4,4,0,0,0,1.362.222,3.873,3.873,0,0,0,1.454-.258,2.413,2.413,0,0,0,1.006-.722,1.7,1.7,0,0,0,.368-1.089,1.349,1.349,0,0,0-.322-.928,2.436,2.436,0,0,0-.865-.6,8.506,8.506,0,0,0-1.231-.418l-1.5-.418a5.827,5.827,0,0,1-2.427-1.227,2.752,2.752,0,0,1-.894-2.142,3.189,3.189,0,0,1,.6-1.926,3.953,3.953,0,0,1,1.62-1.281,5.584,5.584,0,0,1,2.312-.457,5.46,5.46,0,0,1,2.29.453,3.889,3.889,0,0,1,1.568,1.25,3.171,3.171,0,0,1,.6,1.823Z" transform="translate(-743.956 -517.667)" fill="#fff"/>
                <path d="M623.481,665.279h-1.946a2.976,2.976,0,0,0-.416-1.1,3.045,3.045,0,0,0-.75-.8,3.177,3.177,0,0,0-.986-.5,3.922,3.922,0,0,0-1.156-.168,3.575,3.575,0,0,0-1.973.562,3.729,3.729,0,0,0-1.372,1.618,7.093,7.093,0,0,0,0,5.246,3.688,3.688,0,0,0,1.373,1.62,3.609,3.609,0,0,0,1.963.549,3.951,3.951,0,0,0,1.156-.166,3.207,3.207,0,0,0,.988-.489,3.082,3.082,0,0,0,.751-.794,2.977,2.977,0,0,0,.426-1.081h1.946a5.283,5.283,0,0,1-.6,1.734,4.772,4.772,0,0,1-1.14,1.348,5.135,5.135,0,0,1-1.585.882,5.841,5.841,0,0,1-1.95.32,5.562,5.562,0,0,1-2.953-.788,5.454,5.454,0,0,1-2.04-2.26,8.621,8.621,0,0,1,0-7.018,5.471,5.471,0,0,1,2.052-2.254,5.554,5.554,0,0,1,2.948-.788,6,6,0,0,1,1.9.289,5.085,5.085,0,0,1,1.586.848,4.7,4.7,0,0,1,1.156,1.349A5.254,5.254,0,0,1,623.481,665.279Z" transform="translate(-519.534 -601.206)" fill="#fff"/>
                <path d="M681.59,674.622V661.86h1.926v11.1H689.3v1.658Z" transform="translate(-575.339 -601.936)" fill="#fff"/>
                <path d="M741.2,661.86h1.927v8.393a4.459,4.459,0,0,1-.63,2.372,4.38,4.38,0,0,1-1.768,1.62,6.358,6.358,0,0,1-5.34,0,4.372,4.372,0,0,1-1.77-1.62,4.46,4.46,0,0,1-.622-2.372V661.86h1.927V670.1a3.046,3.046,0,0,0,.385,1.541,2.7,2.7,0,0,0,1.086,1.055,3.851,3.851,0,0,0,3.35,0,2.675,2.675,0,0,0,1.085-1.055,3.1,3.1,0,0,0,.385-1.541Z" transform="translate(-616.841 -601.936)" fill="#fff"/>
                <path d="M800.17,674.609V661.847h4.675a5.012,5.012,0,0,1,2.248.445,3.094,3.094,0,0,1,1.333,1.2,3.3,3.3,0,0,1,.443,1.7,2.81,2.81,0,0,1-.293,1.348,2.362,2.362,0,0,1-.782.873,3.473,3.473,0,0,1-1.075.478v.123a2.564,2.564,0,0,1,1.242.408,2.949,2.949,0,0,1,1.008,1.069,3.313,3.313,0,0,1,.4,1.682,3.374,3.374,0,0,1-.458,1.755,3.136,3.136,0,0,1-1.41,1.227,5.693,5.693,0,0,1-2.437.453Zm1.926-7.241h2.579a2.655,2.655,0,0,0,1.169-.25,2.048,2.048,0,0,0,.828-.7,1.842,1.842,0,0,0,.308-1.067,1.771,1.771,0,0,0-.555-1.327,2.38,2.38,0,0,0-1.7-.536H802.1Zm0,5.587h2.78a2.934,2.934,0,0,0,1.98-.536,1.733,1.733,0,0,0,.6-1.348,2.093,2.093,0,0,0-.306-1.106,2.185,2.185,0,0,0-.869-.805,2.821,2.821,0,0,0-1.337-.3H802.1Z" transform="translate(-671.076 -601.923)" fill="#fff"/>
                <path d="M236.967,368.941a.848.848,0,0,1,1.125,1.054c-27.873,82.391-88.231,61.482-77.168,22.761,7.921-27.74,5.727-29.206-1.006-30.262a.844.844,0,0,1-.293-1.56c4.855-2.89,17.634-9.449,24.737-3.56,8.894,7.372,4.336,31.47,4.336,31.47Z" transform="translate(-153.59 -354.187)" fill="#fff"/>
                <path d="M155.7,423.432a27.264,27.264,0,0,1-8.135-1.214c-13.485-4.2-20.125-18.233-15.8-33.362,4.912-17.2,6.053-24.658,4.2-27.561-.93-1.454-2.682-1.834-4.874-2.177a1.26,1.26,0,0,1-.439-2.329c5.163-3.063,17.956-9.54,25.215-3.521,3.789,3.14,5.691,9.472,5.652,18.819a82.3,82.3,0,0,1-1.058,12.3l47.582-19.6a1.262,1.262,0,0,1,1.676,1.57c-7.428,21.961-17.956,38.63-30.437,48.2C171.686,420.379,163.436,423.43,155.7,423.432Zm-7.442-71.817c-6.369,0-13.631,3.781-17.184,5.889a.424.424,0,0,0-.2.455.412.412,0,0,0,.349.339c2.312.362,4.331.805,5.444,2.551,2.023,3.163.948,10.553-4.1,28.235C128.3,404,134.576,417.3,147.816,421.425c9.549,2.976,20.834.235,30.959-7.528,12.356-9.472,22.786-26.007,30.164-47.812a.432.432,0,0,0-.578-.534l-48.973,20.183.142-.753c.044-.241,4.408-23.936-4.192-31.063A10.736,10.736,0,0,0,148.261,351.615Z" transform="translate(-130.042 -350.795)" fill="#f15a24"/>
            </g>
        </g>
        <ellipse cx="37.815" cy="35.876" rx="37.815" ry="35.876" transform="translate(670.879 2690.247)" fill="#f79501"/>
        <ellipse cx="23.271" cy="22.302" rx="23.271" ry="22.302" transform="translate(746.51 2668.916)" fill="#93b3f4"/>
    </g>
</svg>