<svg xmlns="http://www.w3.org/2000/svg" width="130" height="113" viewBox="0 0 130 113"><g transform="translate(-199 -1355.921)"><g transform="translate(-5194 3070.921)"><ellipse cx="53" cy="52.5" rx="53" ry="52.5" transform="translate(5393 -1715)" fill="#0062a0"/><g transform="translate(5405.13 -1681.38)"><path d="M616.33,357.456v-6.58h2.41a2.582,2.582,0,0,1,1.159.229,1.6,1.6,0,0,1,.688.62,1.712,1.712,0,0,1,.227.879,1.439,1.439,0,0,1-.151.7,1.219,1.219,0,0,1-.4.45,1.787,1.787,0,0,1-.554.246v.064a1.327,1.327,0,0,1,.642.211,1.526,1.526,0,0,1,.519.551,1.709,1.709,0,0,1,.206.867,1.742,1.742,0,0,1-.236.9,1.613,1.613,0,0,1-.727.633,2.933,2.933,0,0,1-1.257.232Zm.993-3.733h1.331a1.364,1.364,0,0,0,.6-.129,1.056,1.056,0,0,0,.427-.362.951.951,0,0,0,.159-.55.913.913,0,0,0-.286-.684,1.218,1.218,0,0,0-.877-.276h-1.357Zm0,2.881h1.433a1.521,1.521,0,0,0,1.022-.276.894.894,0,0,0,.308-.69,1.092,1.092,0,0,0-.157-.572,1.135,1.135,0,0,0-.449-.415,1.457,1.457,0,0,0-.689-.153h-1.469Z" transform="translate(-568.023 -350.866)" fill="#fff"/><path d="M671.953,357.47H670.9l2.367-6.58h1.147l2.368,6.58h-1.054l-1.86-5.385h-.052Zm.177-2.577h3.419v.835H672.13Z" transform="translate(-617.172 -350.881)" fill="#fff"/><path d="M739.66,357.47v-6.58h.993v3.142h.08l2.76-3.142h1.251l-2.654,2.962,2.663,3.618h-1.192l-2.127-2.939-.778.894v2.046Z" transform="translate(-679.102 -350.881)" fill="#fff"/><path d="M804.381,350.89h.993v4.328a2.3,2.3,0,0,1-.325,1.223,2.259,2.259,0,0,1-.912.835,3.278,3.278,0,0,1-2.754,0,2.255,2.255,0,0,1-.913-.835,2.3,2.3,0,0,1-.325-1.223V350.89h.993v4.248a1.571,1.571,0,0,0,.2.795,1.391,1.391,0,0,0,.56.544,1.987,1.987,0,0,0,1.727,0,1.379,1.379,0,0,0,.559-.544,1.6,1.6,0,0,0,.194-.795Z" transform="translate(-733.579 -350.881)" fill="#fff"/><path d="M616.22,460.91v-6.58h.993v2.86h3.278v-2.86h.993v6.58h-.993v-2.869h-3.278v2.869Z" transform="translate(-567.924 -444.045)" fill="#fff"/><path d="M688.021,454.33h.993v4.328a2.293,2.293,0,0,1-.325,1.222,2.25,2.25,0,0,1-.913.836,3.278,3.278,0,0,1-2.754,0,2.254,2.254,0,0,1-.912-.836,2.293,2.293,0,0,1-.325-1.222V454.33h.993v4.248a1.572,1.572,0,0,0,.2.795,1.391,1.391,0,0,0,.56.544,1.987,1.987,0,0,0,1.727,0,1.368,1.368,0,0,0,.559-.544,1.59,1.59,0,0,0,.2-.795Z" transform="translate(-628.778 -444.045)" fill="#fff"/><path d="M751,454.33H752.2l2.094,5.115h.078l2.1-5.115h1.2v6.58h-.945v-4.761h-.061l-1.941,4.752h-.785l-1.94-4.756h-.062v4.768H751Z" transform="translate(-689.315 -444.045)" fill="#fff"/><path d="M828.814,460.91H827.76l2.368-6.58h1.147l2.369,6.58H832.59l-1.861-5.385h-.052Zm.177-2.577h3.419v.831h-3.419Z" transform="translate(-758.45 -444.045)" fill="#fff"/><path d="M901.842,454.33v6.58h-.913l-3.345-4.825h-.061v4.826h-.993V454.33h.919l3.349,4.835h.061V454.33Z" transform="translate(-820.389 -444.045)" fill="#fff"/><path d="M614.66,564.986V558.4h2.345a2.737,2.737,0,0,1,1.271.263,1.758,1.758,0,0,1,.756.728,2.225,2.225,0,0,1,.251,1.072,2.171,2.171,0,0,1-.252,1.062,1.718,1.718,0,0,1-.762.707,2.824,2.824,0,0,1-1.271.254h-1.774v-.85h1.689a1.9,1.9,0,0,0,.785-.138.909.909,0,0,0,.445-.4,1.321,1.321,0,0,0,.142-.633,1.373,1.373,0,0,0-.143-.646.942.942,0,0,0-.447-.419,1.835,1.835,0,0,0-.795-.146h-1.248v5.729Zm3.248-2.969,1.626,2.969H618.4l-1.589-2.969Z" transform="translate(-566.519 -537.78)" fill="#fff"/><path d="M674.393,558.42V565H673.4V558.42Z" transform="translate(-619.424 -537.795)" fill="#fff"/><path d="M700.536,559.687a2.052,2.052,0,0,0-.249-.526,1.667,1.667,0,0,0-.37-.4,1.578,1.578,0,0,0-.49-.252,2.006,2.006,0,0,0-.6-.086,1.818,1.818,0,0,0-1,.286,1.94,1.94,0,0,0-.705.836,3.653,3.653,0,0,0,0,2.7,1.937,1.937,0,0,0,.714.838,1.887,1.887,0,0,0,1.031.286,1.922,1.922,0,0,0,.937-.219,1.536,1.536,0,0,0,.621-.622,1.918,1.918,0,0,0,.221-.943l.256.049h-1.883v-.819H701.6v.748a2.827,2.827,0,0,1-.343,1.44,2.414,2.414,0,0,1-.971.94,3.192,3.192,0,0,1-2.98-.081,2.781,2.781,0,0,1-1.049-1.167,4.008,4.008,0,0,1-.375-1.8,4.27,4.27,0,0,1,.219-1.415,3.083,3.083,0,0,1,.615-1.065,2.681,2.681,0,0,1,.935-.672,2.939,2.939,0,0,1,1.178-.232,3.052,3.052,0,0,1,.993.157,2.722,2.722,0,0,1,.823.447,2.528,2.528,0,0,1,.911,1.565Z" transform="translate(-639.668 -536.983)" fill="#fff"/><path d="M766.17,565V558.42h.993v2.86h3.278v-2.86h.993V565h-.993v-2.87h-3.278V565Z" transform="translate(-702.979 -537.795)" fill="#fff"/><path d="M830.51,559.254V558.4H835.6v.854H833.55v5.727h-.993v-5.727Z" transform="translate(-760.927 -537.777)" fill="#fff"/><path d="M894.289,559.306a.939.939,0,0,0-.424-.708,1.639,1.639,0,0,0-.938-.252,1.768,1.768,0,0,0-.7.127,1.077,1.077,0,0,0-.458.347.824.824,0,0,0-.163.5.722.722,0,0,0,.111.405.942.942,0,0,0,.292.284,1.977,1.977,0,0,0,.39.19,3.987,3.987,0,0,0,.4.123l.643.168a5.019,5.019,0,0,1,.646.209,2.6,2.6,0,0,1,.614.347,1.709,1.709,0,0,1,.458.533,1.567,1.567,0,0,1,.175.762,1.761,1.761,0,0,1-.288.993,1.943,1.943,0,0,1-.832.683,3.128,3.128,0,0,1-1.315.251,3.179,3.179,0,0,1-1.278-.235,1.959,1.959,0,0,1-.846-.667,1.921,1.921,0,0,1-.338-1.026h.993a1.01,1.01,0,0,0,.232.6,1.214,1.214,0,0,0,.524.35,2.061,2.061,0,0,0,.7.114,2,2,0,0,0,.75-.133,1.244,1.244,0,0,0,.519-.372.875.875,0,0,0,.19-.561.7.7,0,0,0-.166-.479,1.257,1.257,0,0,0-.446-.308,4.381,4.381,0,0,0-.635-.216l-.775-.216a3,3,0,0,1-1.252-.633,1.419,1.419,0,0,1-.461-1.1,1.645,1.645,0,0,1,.309-.993,2.038,2.038,0,0,1,.836-.661,2.879,2.879,0,0,1,1.192-.235,2.816,2.816,0,0,1,1.181.233,2.005,2.005,0,0,1,.809.645,1.635,1.635,0,0,1,.308.94Z" transform="translate(-814.904 -536.952)" fill="#fff"/><path d="M618.148,663.185h-1a1.535,1.535,0,0,0-.214-.565,1.569,1.569,0,0,0-.387-.414,1.636,1.636,0,0,0-.509-.257,2.02,2.02,0,0,0-.6-.086,1.843,1.843,0,0,0-1.017.29,1.923,1.923,0,0,0-.707.835,3.658,3.658,0,0,0,0,2.7,1.9,1.9,0,0,0,.708.835,1.861,1.861,0,0,0,1.012.283,2.036,2.036,0,0,0,.6-.085,1.652,1.652,0,0,0,.51-.252,1.589,1.589,0,0,0,.387-.409,1.536,1.536,0,0,0,.219-.557h1a2.725,2.725,0,0,1-.311.894,2.46,2.46,0,0,1-.588.7,2.648,2.648,0,0,1-.818.455,3.013,3.013,0,0,1-1.005.165,2.869,2.869,0,0,1-1.523-.406,2.812,2.812,0,0,1-1.052-1.165,4.446,4.446,0,0,1,0-3.619,2.822,2.822,0,0,1,1.058-1.162,2.863,2.863,0,0,1,1.52-.406,3.094,3.094,0,0,1,.978.149,2.622,2.622,0,0,1,.818.437,2.421,2.421,0,0,1,.6.7A2.709,2.709,0,0,1,618.148,663.185Z" transform="translate(-564.547 -630.145)" fill="#fff"/><path d="M681.59,668.441V661.86h.993v5.726h2.98v.855Z" transform="translate(-626.801 -630.96)" fill="#fff"/><path d="M737.226,661.86h.993v4.328a2.3,2.3,0,0,1-.325,1.223,2.258,2.258,0,0,1-.912.835,3.279,3.279,0,0,1-2.754,0,2.254,2.254,0,0,1-.913-.835,2.3,2.3,0,0,1-.321-1.223V661.86h.993v4.248a1.571,1.571,0,0,0,.2.795,1.391,1.391,0,0,0,.56.544,1.986,1.986,0,0,0,1.727,0,1.379,1.379,0,0,0,.559-.544,1.6,1.6,0,0,0,.2-.795Z" transform="translate(-673.098 -630.96)" fill="#fff"/><path d="M800.17,668.426v-6.581h2.411a2.584,2.584,0,0,1,1.159.229,1.6,1.6,0,0,1,.687.62,1.7,1.7,0,0,1,.228.879,1.449,1.449,0,0,1-.151.7,1.219,1.219,0,0,1-.4.45,1.792,1.792,0,0,1-.554.246v.064a1.322,1.322,0,0,1,.641.211,1.521,1.521,0,0,1,.52.551,1.709,1.709,0,0,1,.206.867,1.74,1.74,0,0,1-.236.9,1.617,1.617,0,0,1-.727.633,2.936,2.936,0,0,1-1.257.233Zm.993-3.734h1.33a1.37,1.37,0,0,0,.6-.129,1.056,1.056,0,0,0,.427-.362.95.95,0,0,0,.159-.55.913.913,0,0,0-.286-.684,1.227,1.227,0,0,0-.877-.276h-1.356Zm0,2.881H802.6a1.513,1.513,0,0,0,1.021-.276.894.894,0,0,0,.309-.7,1.079,1.079,0,0,0-.158-.57,1.127,1.127,0,0,0-.448-.415,1.455,1.455,0,0,0-.689-.153h-1.468Z" transform="translate(-733.601 -630.945)" fill="#fff"/><path d="M199.306,362.187a.437.437,0,0,1,.58.543c-14.373,42.486-45.5,31.7-39.793,11.737,4.085-14.3,2.953-15.061-.519-15.6a.435.435,0,0,1-.151-.8c2.5-1.49,9.093-4.872,12.756-1.836,4.586,3.8,2.236,16.228,2.236,16.228Z" transform="translate(-156.312 -354.579)" fill="#fff"/><path d="M143.274,388.251a14.06,14.06,0,0,1-4.2-.626c-6.954-2.167-10.378-9.4-8.146-17.2,2.533-8.868,3.121-12.715,2.168-14.212-.48-.75-1.383-.946-2.513-1.123a.65.65,0,0,1-.226-1.2c2.662-1.579,9.259-4.919,13-1.816,1.954,1.619,2.934,4.884,2.915,9.7a42.435,42.435,0,0,1-.545,6.342l24.536-10.109a.651.651,0,0,1,.864.81c-3.83,11.324-9.259,19.92-15.7,24.857A20.35,20.35,0,0,1,143.274,388.251Zm-3.837-37.033c-3.284,0-7.029,1.95-8.861,3.037a.219.219,0,0,0-.105.234.213.213,0,0,0,.18.175c1.192.187,2.233.415,2.807,1.315,1.043,1.631.489,5.442-2.116,14.56-2.2,7.694,1.038,14.548,7.866,16.677,4.924,1.535,10.743.121,15.965-3.882,6.372-4.884,11.75-13.411,15.554-24.655a.223.223,0,0,0-.3-.275l-25.254,10.408.073-.388c.023-.124,2.273-12.343-2.162-16.018A5.536,5.536,0,0,0,139.437,351.218Z" transform="translate(-130.042 -350.795)" fill="#f15a24"/></g></g><ellipse cx="19.5" cy="18.5" rx="19.5" ry="18.5" transform="translate(266 1431.922)" fill="#f79501"/><ellipse cx="12" cy="11.5" rx="12" ry="11.5" transform="translate(305 1420.922)" fill="#93b3f4"/></g></svg>