<?xml version="1.0" encoding="utf-8"?>
<!-- Generator: Adobe Illustrator 25.2.0, SVG Export Plug-In . SVG Version: 6.00 Build 0)  -->
<svg version="1.1" id="Layer_1" xmlns="http://www.w3.org/2000/svg" xmlns:xlink="http://www.w3.org/1999/xlink" x="0px" y="0px"
	 viewBox="0 0 144.1 153.9" style="enable-background:new 0 0 144.1 153.9;" xml:space="preserve">
<style type="text/css">
	.st0{fill:#93B3F4 !important;}
</style>
<g id="Group_150" transform="translate(-238.352 -730.034)">
	<g id="Group_147" transform="matrix(0.809, -0.588, 0.588, 0.809, 216, 788.663)">
		<path id="Path_353" class="st0" d="M64.7,41.4c0,0,23.5,13.1,12.5,31c0,0-8.8,11-18.2,13.8c0,0,5-26.6,0-27.3
			C54,58.3,55.6,89,55.6,89s-24.8,11.9-34.5,11c0,0,15.3-26,10.3-25.4c-5,0.6-22.2,26.9-22.2,26.9s-25.4,4.7-29.4-10.3
			c-4.1-15,2.5-22.5,6.2-23.5c3.8-1,27.9-0.6,27.3-3.8c-0.6-3.1-16.9-8.1-26-5.3c0,0,10-24.8,23.2-23.5c13.1,1.3,17.2,9.4,25.4,10
			c8.1,0.6,14.1-1.6,10-3.8C41.8,39.1,28,40.6,21.4,35s-11.9-9,0.3-11.5s34.2-1,38.5,8.5L64.7,41.4z"/>
		<g id="Group_112" transform="translate(12.859 0)">
			<path id="Path_354" class="st0" d="M-21.5,86.5c0,0,65.8-21.3,73.3-45.1c0,0-0.3-10.7,6.2-22.8v-4.7c0,0-6.9,16-10.7,18.2
				C47.4,32,62.1,52.7-21.5,86.5z"/>
			<path id="Path_355" class="st0" d="M58.1,18.5c0,0,10.1-15.4,4.4-34.2l-2.6,0.7c0,0,2.5,20.6-2.8,31
				C51.7,26.5,58.1,18.5,58.1,18.5z"/>
		</g>
	</g>
	<g id="Group_148" transform="translate(409.044 739.315) rotate(96)">
		<path id="Path_353-2" class="st0" d="M18.2,87.2c0,0-23.5-13.1-12.5-31c0,0,8.8-11,18.2-13.8c0,0-5,26.6,0,27.3
			c5,0.6,3.4-30.1,3.4-30.1s24.8-11.9,34.5-11c0,0-15.3,26-10.3,25.4c5-0.6,22.2-26.9,22.2-26.9s25.4-4.7,29.4,10.3
			c4.1,15-2.5,22.5-6.2,23.5c-3.8,1-27.9,0.6-27.3,3.8c0.6,3.1,16.9,8.1,26,5.3c0,0-10,24.7-23.2,23.5c-13.1-1.3-17.2-9.4-25.4-10
			c-8.2-0.6-14.1,1.6-10,3.8s17.9,0.7,24.4,6.3c6.6,5.6,11.9,9-0.3,11.5c-12.2,2.5-34.2,1-38.5-8.5L18.2,87.2z"/>
		<g id="Group_112-2" transform="translate(3.051 15.733)">
			<path id="Path_354-2" class="st0" d="M88.5,26.4c0,0-65.8,21.3-73.3,45.1c0,0,0.3,10.7-6.2,22.8l0,4.7c0,0,6.9-15.9,10.7-18.2
				C19.5,80.9,4.9,60.2,88.5,26.4z"/>
			<path id="Path_355-2" class="st0" d="M8.9,94.3c0,0-10.1,15.4-4.4,34.2l2.6-0.7c0,0-2.5-20.6,2.8-31C15.3,86.4,8.9,94.3,8.9,94.3
				z"/>
		</g>
	</g>
</g>
</svg>
