<svg xmlns="http://www.w3.org/2000/svg" width="276.038" height="193.656" viewBox="0 0 276.038 193.656"><g transform="translate(-213.398 -1479.689)"><g transform="translate(-6303.064 -6208.046)"><g transform="translate(6737.358 7703.576)"><path d="M1201.475,611.711s8.754-2.249,9.8,7.068-3.694,10.762-1.124,15.261,5.462,1.124,6.024,13.9-28.726,28.282-36.439,20.7c-25.079-24.648,4.681-34.689,3.476-42.238s2.236-13.958,6.814-16.69S1200.431,606.971,1201.475,611.711Z" transform="translate(-1164.151 -607.857)" fill="#20110c"/><path d="M1448.708,1772.4a5.964,5.964,0,0,1-1.078,3.81c-1.237,1.381-5.842,2.114-6.461,3.685s4.639,1.668,6.406,1.187a55.888,55.888,0,0,1,7.509-.923c1.149-.062-1.478-7.7-1.714-7.913A33.059,33.059,0,0,0,1448.708,1772.4Z" transform="translate(-1441.119 -1610.161)" fill="#fae0b2"/><path d="M1251.149,1762.95a42.3,42.3,0,0,0-1.032,7.109c.109,1.98,2.519,5.051,4.371,4.949a2.935,2.935,0,0,0,2.935-3.747c-.452-2.41-1.855-8.138-1.855-8.138Z" transform="translate(-1216.667 -1602.218)" fill="#fae0b2"/><path d="M1212.8,861.994s1.182-39.069-.673-40.924c-.743-.743-6.814-2.748-10.964-3.43a48.768,48.768,0,0,0-11.074-.584s-6.327,7.584-6.327,10.4-.4,34.842-.4,34.842c-4.9,1.8-12.476,34.249-13.044,42.608s.661,47.239.661,47.239l7.133-.774c3.893-6.106,5.648-38.262,6.786-42.266,1.569-5.524,8.945-22.438,8.945-22.438l3.8-1.656s-.879,25.5-.558,31.372-.044,34.338-.044,34.338l7.154-.391c5.6-10.043,9.6-56.384,9.469-58.811s2.341-6.405,2.857-13.353C1216.914,872.681,1212.8,861.994,1212.8,861.994Z" transform="translate(-1164.58 -787.865)" fill="#466eb6"/><rect width="12.688" height="1.343" transform="translate(23.01 73.124)" fill="#fff"/><path d="M1321.77,1133.177h-2.445a.816.816,0,0,1-.815-.815v-.586a.816.816,0,0,1,.815-.815h2.445a.816.816,0,0,1,.815.815v.586A.816.816,0,0,1,1321.77,1133.177Z" transform="translate(-1291.27 -1058.17)" fill="#271798"/><path d="M1191.061,869.456s1.049-34.7-.383-40.247a35.778,35.778,0,0,0-9.212-3.579c.264,2.853-2.325,18.9-4.98,27.137-1.677,5.2-1.429,11.583-.8,16.541h0a67.69,67.69,0,0,0,1.695,8.665,25.237,25.237,0,0,0,10.934,2.16c.292-.017,2.855-.186,5.784-.643A79.708,79.708,0,0,0,1191.061,869.456Z" transform="translate(-1142.845 -795.327)" fill="#001c41" opacity="0.38"/><path d="M1361.749,871.433c.15-.494-1.013-6.135-1.376-9.053h-.008c-2.406-19.538-.239-44.421-.206-44.8h0c-.146.143-.558.608-1.109,1.276-1.7,2.164-4.954,6.553-5.281,8.787-.006.067-.01.132-.01.2v.06c0,.352-.005,1.055-.015,2.025,0,.189-.01.387-.022.591-.081,8.239-.384,32.311-.384,32.311-1.582.583-3.444,4.362-5.258,9.494C1353.968,872.691,1361.331,872.8,1361.749,871.433Z" transform="translate(-1334.56 -788.397)" fill="#001c41" opacity="0.38"/><path d="M1166.735,873.771c.011,4.9-13.176,5.245-19.445,2.431l.682-21.236,2.151-30.246s7.923,1.571,10.62,3.405c0,0,.875,31.447,1.642,37.842S1166.731,871.537,1166.735,873.771Z" transform="translate(-1111.593 -794.543)" fill="#e09379"/><path d="M1363.93,819.242s-3.094,25.04-3.094,31.565-1.236,17.781-1.236,17.781,6.674,2.559,11.333,1.407c0,0-4.424-25.119-4.424-26.76s4.485-25.725,4.485-25.725A20.172,20.172,0,0,0,1363.93,819.242Z" transform="translate(-1345.395 -788.337)" fill="#e09379"/><path d="M1446.285,1772.878l-8.654.562-.011-2.238,9.011-.493Z" transform="translate(-1431.889 -1608.898)" fill="#271798"/><path d="M1257.923,1762.568l-8.584.564-.049-2.229,9.011-.493Z" transform="translate(-1217.353 -1600.032)" fill="#271798"/><path d="M1454.6,1797.72c-.683.863-2.91,2.629-9.428,1.848-1.7.685-3.617,1.336-4,2.311-.62,1.571,4.639,1.668,6.406,1.187a55.874,55.874,0,0,1,7.509-.923C1455.709,1802.11,1455.215,1799.827,1454.6,1797.72Z" transform="translate(-1441.118 -1632.15)" fill="#001653"/><path d="M1250.116,1796.195c.109,1.98,2.519,5.051,4.371,4.949a2.935,2.935,0,0,0,2.935-3.747c-.152-.811-.412-2-.69-3.216-.237,1.5-.935,4.062-2.911,3.177a7.4,7.4,0,0,1-3.459-4.048A16.393,16.393,0,0,0,1250.116,1796.195Z" transform="translate(-1216.667 -1628.354)" fill="#001653"/><path d="M1372.59,1102.363c2.5-.127,5.688-.288,8.823-.443-.186-1.085-.378-2.2-.568-3.32l-8.018.426C1372.757,1100.135,1372.676,1101.269,1372.59,1102.363Z" transform="translate(-1357.622 -1030.313)" fill="#001653" opacity="0.18"/><path d="M1177.41,1098.693h.043c1.945,0,9.517,2.067,12.268,2.067a5.336,5.336,0,0,0,2.6-.676c0-.022-.008-.047-.012-.071-.056-.3-.1-.615-.145-.953-.02-.164-.039-.345-.059-.54-.1-.948-.172-2.019-.239-3.029h-14.353Z" transform="translate(-1141.372 -1027.636)" fill="#001653" opacity="0.18"/><path d="M1273.289,830.35s-2.341.493-5.645,11.565-1.109,25.3,1.172,26.773,24.427.93,24.427.93l.086-7.978s-16.766-2.62-18.425-4.656c-.408-.5.292-2.642.146-5.08C1274.6,844.422,1273.289,830.35,1273.289,830.35Z" transform="translate(-1254.7 -799.39)" fill="#e09379"/><path d="M1413.357,985.058a20.532,20.532,0,0,1-3.152-2.633c-.86-1.056-2.583-2.475-2.659-1.723a3.592,3.592,0,0,0,.713,1.837s-3.131-2.187-3.546-1.849-.827,2.682-.536,5.27,7.63,4.471,7.63,4.471Z" transform="translate(-1393.948 -928.639)" fill="#fae0b2"/><path d="M1190.09,887.075c-7.984,1.332-24.837-4.6-31.671-6.749l2.562-8.865s20.127,5.569,22.764,4.385c1.3-.584,4.645-6.784,5.869-13.089a67.006,67.006,0,0,0,.943-13.567s5.782,7.564,4.152,23.576C1193.466,884.985,1193.6,886.489,1190.09,887.075Z" transform="translate(-1141.406 -815.609)" fill="#e6a088"/><path d="M1187.819,979.98s-1.885,1.595-3.355,2.794a31.2,31.2,0,0,0-3.774,4.419s2.734.65,3.692.747,4.109-1.656,5.2-1.545.776-1.511-.566-1.233-2.67.42-2.67.42,3.149-2.065,4.618-3.263.28-2.105-.923-1.124a11.76,11.76,0,0,1-2.507,1.536s4.236-3.579,3.621-4.333S1187.819,979.98,1187.819,979.98Z" transform="translate(-1141.156 -926.709)" fill="#fae0b2"/><path d="M1276.651,737.031s-.451,6.329-1.04,7.709a2.067,2.067,0,0,1-.775.9c-1.666,1.119,1.307,15.206,2.822,14.895,1.634-.335,5.675-9.073,6.977-11.907a1.681,1.681,0,0,0-.8-2.233l-.01,0c-1.406-.623-.369-12.223-.369-12.223Z" transform="translate(-1247.748 -716.454)" fill="#fae0b2"/><path d="M1266.988,698.9s1.717-2.662,2.772-1.122.12,5.213-1.873,5.4S1266.988,698.9,1266.988,698.9Z" transform="translate(-1231.672 -684.856)" fill="#fae0b2"/><path d="M1296.065,729.373s-.049.58-.085.971a5.532,5.532,0,0,1-.856,2.245c-1.929,3.247-4.432,4.669-6.35,4.892.477-1.643,0-5.927,0-5.927Z" transform="translate(-1260.611 -709.82)" fill="#f5ce87" opacity="0.77"/><path d="M1294.982,658.317s-1.034-4.57-4.461-5.925-6.561-.337-7.751,4.137.532,11.569,2.615,13.747S1294.724,668.8,1294.982,658.317Z" transform="translate(-1257.943 -645.993)" fill="#fae0b2"/></g><g transform="translate(6516.462 7710.576)"><path d="M1925.707,908.236a6.062,6.062,0,0,0-3.036-.395,47.326,47.326,0,0,1-3.577-4.436s-9.474-12.638-9.959-13.34l-2.988-16.353-8.976-.072s3.75,17.66,4.116,18.533,15.382,16.309,16.653,17.714c0,0,.822,2.281,1.389,3.693a11.541,11.541,0,0,0,2.006,2.81,12.167,12.167,0,0,0,2.308,2.373c1.246.986.587-.549.587-.549s-1.929-2.261-1.7-2.4c.173-.1,1.145,1.2,2.51,2.305.351.284.7.563,1.021.818.844.667,1.56.311.8-.533a9.7,9.7,0,0,0-1.1-1.078,7.99,7.99,0,0,1-.966-1.075,10.437,10.437,0,0,1-.989-1.116c.056-.016.04-.232.424.057a24.68,24.68,0,0,0,1.974,1.772c.411.258,1.229.855,1.229.855a9.152,9.152,0,0,0,1.511.586c.412-.392-.408-1.124-1.021-1.4a6.569,6.569,0,0,0-1.159-.981s-1.462-1.632-1.206-1.86a22.755,22.755,0,0,1,2.309,1.487c1.084.65,2.308,1.123,2.493.92.317-.342-.8-1.2-.8-1.2s-.817-.554-1.071-.76c-.3-.241-1.128-1.035-1.128-1.035s-2.74-2.907-2.48-3.1a2.2,2.2,0,0,1,1.349-.346c.24.117.541.566.782.683a.755.755,0,0,0,.877-.232c.2-.29-.693-1.308-.693-1.308A3.967,3.967,0,0,0,1925.707,908.236Z" transform="translate(-1870.718 -830.752)" fill="#fae0b2"/><path d="M1986.421,1753.54s-.32,5.641-.321,5.653c-.118.716-.579,2.487-.579,3.138,0,2.447,10.885-2.077,8.445-3.161-.221-.1-1.377-.84-1.45-1.673-.111-1.283-.4-3.879-.4-3.879Z" transform="translate(-1946.334 -1594.019)" fill="#fae0b2"/><path d="M1929.027,1795.187a39.159,39.159,0,0,1-3.864.936c-1.308.187-3.034-1.388-3.961-.962-1.019.468-.916,5.081-.916,5.081s13.641.8,17.494-.437C1939.307,1799.311,1934.25,1796.93,1929.027,1795.187Z" transform="translate(-1881.422 -1630.06)" fill="#142860"/><path d="M2167.331,1757.62s-.32,5.643-.321,5.653c-.117.716-.58,2.487-.58,3.137,0,2.447,10.885-2.077,8.445-3.161-.221-.1-1.721-1.395-1.794-2.227-.111-1.283-.053-3.324-.053-3.324Z" transform="translate(-2151.224 -1597.558)" fill="#fae0b2"/><path d="M2107.342,1799.267a39.158,39.158,0,0,1-3.864.936c-1.31.187-3.034-1.388-3.961-.962-1.019.468-1.059,4.684-1.059,4.684s14.583,1.058,18.013.065C2118.011,1803.543,2112.567,1801.01,2107.342,1799.267Z" transform="translate(-2083.719 -1633.599)" fill="#142860"/><path d="M2002.356,1143.18l4.6,1.986,9.68,46.228-.392,34.656-7.76.18s-3.609-30.315-3.609-32.663-16.718-41.112-16.718-41.112Z" transform="translate(-1969.001 -1064.564)" fill="#e09379"/><path d="M2140.785,1152.234s-3.39,35.617-3.39,41.62-2.749,39.605-2.749,39.605l-7.778-.045s-.561-10.242-1.4-25.309c-.13-2.359.168-7.122,0-9.565-1.21-17.571-3.6-34.112-2.46-40.67.184-1.055.53-3.815,1.2-4.512C2129.31,1148.091,2140.785,1152.234,2140.785,1152.234Z" transform="translate(-2110.982 -1071.075)" fill="#e6a088"/><path d="M2062.045,786.9l-9.413-.631s-.464-8.413-.464-12.427c0-4.869-1.485-12.048-.9-11.912a11.466,11.466,0,0,1,5.745,3.7C2061.527,771.914,2062.045,786.9,2062.045,786.9Z" transform="translate(-2022.754 -733.846)" fill="#12659b"/><path d="M2059.8,758.844s-5.367.746-6.78,1.784a18.97,18.97,0,0,0-3.356,3.783s6.589,31.15,6.6,36.391c.009,4.055-1.426,14.012-1.426,14.012s19.914,1.257,27.456-1.721c0,0-2.382-11.842-2.382-14.952s-2.849-31.386-3.5-33.361c-.589-1.792-1.664-5.012-5.3-5.806S2059.8,758.844,2059.8,758.844Z" transform="translate(-2042.804 -730.947)" fill="#146da6"/><path d="M2150.715,693.9l-1.328,8.7s4.851,10.358,7.748,9.459c2.43-.754.935-9.917.935-9.917s-1.324-4.922-.928-7.385S2150.715,693.9,2150.715,693.9Z" transform="translate(-2132.257 -674.386)" fill="#fae0b2"/><path d="M2165.068,694.751c.4-2.463-6.428-.855-6.428-.855l-.11.721a4.036,4.036,0,0,0,.74,1.213,9.019,9.019,0,0,0,5.968,2.683A13.319,13.319,0,0,1,2165.068,694.751Z" transform="translate(-2140.182 -674.386)" fill="#f6d290"/><g transform="translate(11.873 0)"><path d="M2129.357,586.647c-.192-.07-1.545,9.907,1.022,12.652s7.571,3.644,9.366,1.482c1.986-2.391,1.885-13.113-2.108-15.938S2129.357,586.647,2129.357,586.647Z" transform="translate(-2123.892 -579.443)" fill="#fae0b2"/><path d="M2151.809,550.147a11.1,11.1,0,0,0-5.819,3.3c-1.4.164-3.306.933-5.273,4.169a8.055,8.055,0,0,0,2.183,10.546,6.329,6.329,0,0,1,2.784,4.672l.437-1.3a7.167,7.167,0,0,0,.353-3.042,5.944,5.944,0,0,0-.455-1.829c-.677-1.444,1.454-2.4,2.052-3.6.46-.925.482-3.041,1.207-4.57l.866-1.168a5.527,5.527,0,0,1,3.951-1.108C2156.05,556.64,2155.769,549.345,2151.809,550.147Z" transform="translate(-2139.583 -550.085)" fill="#13375b"/><path d="M2197.5,647.011c.02,1.217-.537,2.214-1.245,2.226s-1.3-.965-1.318-2.182.537-2.214,1.245-2.226S2197.477,645.793,2197.5,647.011Z" transform="translate(-2189.143 -632.27)" fill="#fae0b2"/></g><path d="M1988.5,976.759l.129.742a.7.7,0,0,0,.811.573l15.392-2.666a.7.7,0,0,0,.573-.811l-.129-.742a.7.7,0,0,0-.811-.573l-15.392,2.666A.7.7,0,0,0,1988.5,976.759Z" transform="translate(-1957.826 -917.177)" fill="#13375b"/><path d="M2031.688,790.8c1.805-.052,3.4,11.859,2.259,13.035s-1.362,15.847-1.362,15.847l17.037-.423,0,.005c.333-.223,3.9-2.619,4.411-3.144.536-.55,3.136-.274,3.824.481s-1.53.138-2.142.55.459,1.442.459,1.442,4.317.627,5.159-.266,3.09-2.4,3.4-1.511c.158.461-1,1.857-1.654,2.443.815-.61,1.791-1.258,2.126-1.145.612.205.356.985.025,1.214s-3.759,2.846-4.295,3.029-8.5.376-9.873.681c0,0-22.466,5.115-23.743,4.8-1.12-.28-2.241-7.471-2.241-12.979S2026.045,790.962,2031.688,790.8Z" transform="translate(-2022.829 -758.891)" fill="#f6d290"/><path d="M2255.152,770.29a13.727,13.727,0,0,0-6.389,4.372c-2.952,3.318-4.813,21.9-4.813,21.9l10.195,1.648.814-8.987,2.724-4.11Z" transform="translate(-2243.95 -741.101)" fill="#146da6"/></g><g transform="translate(6583.625 7717.295)"><path d="M844.232,272.005H805.206a6.736,6.736,0,0,1-6.736-6.736V251.8a6.736,6.736,0,0,1,6.736-6.736h39.026a6.736,6.736,0,0,1,6.736,6.736v13.473A6.736,6.736,0,0,1,844.232,272.005Z" transform="translate(-798.47 -245.06)" fill="#fae0b2"/><path d="M886.391,410.69l-5.11,15.332,14.867-15.332Z" transform="translate(-869.667 -387.461)" fill="#fae0b2"/><path d="M876.1,333.394a2.636,2.636,0,1,1-2.63-2.454A2.546,2.546,0,0,1,876.1,333.394Z" transform="translate(-860.691 -318.896)" fill="#fff"/><path d="M971.939,333.394a2.636,2.636,0,1,1-2.63-2.454A2.546,2.546,0,0,1,971.939,333.394Z" transform="translate(-943.09 -318.896)" fill="#fff"/><path d="M1067.779,333.394a2.636,2.636,0,1,1-2.63-2.454A2.546,2.546,0,0,1,1067.779,333.394Z" transform="translate(-1025.489 -318.896)" fill="#fff"/></g><g transform="translate(6670.251 7687.735)"><path d="M805.206,272.005h39.026a6.736,6.736,0,0,0,6.736-6.736V251.8a6.736,6.736,0,0,0-6.736-6.736H805.206a6.736,6.736,0,0,0-6.736,6.736v13.473A6.736,6.736,0,0,0,805.206,272.005Z" transform="translate(-798.47 -245.06)" fill="#fae0b2"/><path d="M891.037,410.69l5.11,15.332L881.28,410.69Z" transform="translate(-855.264 -387.461)" fill="#fae0b2"/><path d="M870.84,333.394a2.636,2.636,0,1,0,2.63-2.454A2.546,2.546,0,0,0,870.84,333.394Z" transform="translate(-833.751 -318.896)" fill="#fff"/><path d="M966.68,333.394a2.636,2.636,0,1,0,2.63-2.454A2.546,2.546,0,0,0,966.68,333.394Z" transform="translate(-943.032 -318.896)" fill="#fff"/><path d="M1062.52,333.394a2.636,2.636,0,1,0,2.63-2.454A2.546,2.546,0,0,0,1062.52,333.394Z" transform="translate(-1052.313 -318.896)" fill="#fff"/></g></g></g></svg>