<svg xmlns="http://www.w3.org/2000/svg" width="170.692" height="153.941" viewBox="0 0 170.692 153.941">
  <g id="Group_330" data-name="Group 330" transform="translate(57.67 5.499)">
    <g id="Group_113" data-name="Group 113" transform="matrix(0.809, -0.588, 0.588, 0.809, -80.022, 53.13)">
      <path id="Path_353" data-name="Path 353" d="M86.157,18.973s23.494,13.134,12.527,30.993c0,0-8.756,10.966-18.162,13.784,0,0,5.028-26.615,0-27.265C75.494,35.878,77.1,66.567,77.1,66.567s-24.751,11.92-34.46,10.967c0,0,15.344-26.008,10.316-25.357-5.028.607-22.237,26.918-22.237,26.918S5.36,83.776,1.285,68.778C-2.79,53.737,3.8,46.238,7.527,45.284c3.771-.954,27.871-.607,27.265-3.771-.607-3.121-16.905-8.149-26.008-5.332,0,0,10.013-24.751,23.19-23.493C45.108,13.945,49.183,22.094,57.332,22.7s14.087-1.56,10.013-3.771S49.486,18.193,42.9,12.6s-11.92-9.016.3-11.53S77.358.118,81.736,9.524Z" transform="translate(0 38.027)" fill="#93b3f4"/>
      <g id="Group_112" data-name="Group 112" transform="translate(12.859 0)">
        <path id="Path_354" data-name="Path 354" d="M0,72.6s65.756-21.283,73.3-45.08c0,0-.3-10.663,6.242-22.844V0S72.648,15.951,68.877,18.162C68.92,18.119,83.615,38.795,0,72.6Z" transform="translate(0 29.475)" fill="#93b3f4"/>
        <path id="Path_355" data-name="Path 355" d="M3.133,34.157S13.276,18.769,7.511,0L4.91.693S7.424,21.326,2.136,31.729C-3.2,42.132,3.133,34.157,3.133,34.157Z" transform="translate(76.407 0)" fill="#93b3f4"/>
      </g>
    </g>
    <g id="Group_131" data-name="Group 131" transform="translate(113.022 3.781) rotate(96)">
      <path id="Path_353-2" data-name="Path 353" d="M15.444,60.813S-8.05,47.679,2.916,29.82c0,0,8.756-10.967,18.162-13.784,0,0-5.028,26.615,0,27.265,5.028.607,3.424-30.082,3.424-30.082S49.254,1.3,58.963,2.252c0,0-15.344,26.008-10.316,25.358C53.675,27,70.883.692,70.883.692S96.241-3.99,100.316,11.008C104.39,26.049,97.8,33.548,94.074,34.5c-3.771.954-27.872.607-27.265,3.771.607,3.121,16.905,8.149,26.008,5.332,0,0-10.013,24.75-23.19,23.493-13.134-1.257-17.208-9.406-25.358-10.013s-14.088,1.56-10.013,3.771,17.859.737,24.447,6.329,11.92,9.016-.3,11.53-34.157.954-38.535-8.452Z" transform="translate(0 0)" fill="#93b3f4"/>
      <g id="Group_112-2" data-name="Group 112" transform="translate(3.051 15.733)">
        <path id="Path_354-2" data-name="Path 354" d="M79.54,0S13.784,21.283,6.242,45.08c0,0,.3,10.663-6.242,22.844V72.6S6.892,56.653,10.663,54.443C10.62,54.486-4.074,33.81,79.54,0Z" transform="translate(6.151 0)" fill="#93b3f4"/>
        <path id="Path_355-2" data-name="Path 355" d="M6.151,2.922S-3.992,18.31,1.772,37.078l2.6-.693S1.859,15.752,7.148,5.349C12.479-5.054,6.151,2.922,6.151,2.922Z" transform="translate(0 65.001)" fill="#93b3f4"/>
      </g>
    </g>
  </g>
</svg>
