<?xml version="1.0" encoding="utf-8"?>
<!-- Generator: Adobe Illustrator 25.0.0, SVG Export Plug-In . SVG Version: 6.00 Build 0)  -->
<svg version="1.1" id="Layer_1" xmlns="http://www.w3.org/2000/svg" xmlns:xlink="http://www.w3.org/1999/xlink" x="0px" y="0px"
	 viewBox="0 0 234 235.1" style="enable-background:new 0 0 234 235.1;" xml:space="preserve">
<g>
	<path d="M117.6,4.6C180.2,4.6,231,55.4,231,118s-50.8,113.4-113.4,113.4S4.2,180.6,4.2,118S55,4.6,117.6,4.6 M117.6,2.6
		c-30.8,0-59.8,12-81.6,33.8C14.2,58.2,2.2,87.2,2.2,118c0,30.8,12,59.8,33.8,81.6c21.8,21.8,50.8,33.8,81.6,33.8
		c30.8,0,59.8-12,81.6-33.8C221,177.8,233,148.8,233,118c0-30.8-12-59.8-33.8-81.6C177.4,14.6,148.4,2.6,117.6,2.6"/>
	<path d="M37.8,167.4l-8.3,4.7l-2-3.6c-0.5-0.9-0.7-1.8-0.7-2.5c0.1-0.7,0.5-1.3,1.2-1.7c0.5-0.3,0.9-0.4,1.3-0.3
		c0.4,0,0.8,0.2,1.2,0.5c0.4,0.3,0.7,0.6,0.9,1l-0.4,0c-0.3-0.5-0.5-1-0.5-1.5c-0.1-0.5,0-0.9,0.2-1.3c0.2-0.4,0.5-0.7,1-1
		c0.7-0.4,1.4-0.4,2.1-0.1c0.7,0.3,1.3,1,1.9,2L37.8,167.4z M36.5,166.9l-1.7-2.9c-0.4-0.7-0.9-1.2-1.3-1.5c-0.5-0.2-1-0.2-1.5,0.1
		c-0.5,0.3-0.8,0.7-0.9,1.2c0,0.5,0.2,1.2,0.6,1.9l1.7,3l-0.7,0.4l-1.5-2.7c-0.4-0.7-0.8-1.1-1.3-1.3c-0.5-0.2-0.9-0.2-1.4,0.1
		c-0.5,0.3-0.8,0.7-0.8,1.2c0,0.5,0.1,1.1,0.5,1.8l1.5,2.7L36.5,166.9z"/>
	<path d="M30.8,153.5l-1.5,0.6l-0.2,0.1l-2.4,1.1c-0.6,0.2-0.9,0.6-1.1,1c-0.2,0.4-0.1,1,0.2,1.6c0.2,0.4,0.4,0.8,0.7,1.1
		c0.3,0.3,0.6,0.6,1,0.7l-0.5,0.7c-0.4-0.2-0.8-0.5-1.2-0.9c-0.4-0.4-0.6-0.9-0.9-1.4c-0.4-0.9-0.4-1.6-0.2-2.2
		c0.2-0.6,0.8-1.2,1.6-1.5l4.1-1.8L30.8,153.5z M31.8,155.8c0.2,0.5,0.3,1,0.3,1.4c0,0.4-0.1,0.8-0.3,1.1c-0.2,0.3-0.5,0.6-0.9,0.7
		c-0.3,0.1-0.7,0.2-1,0.2c-0.3,0-0.7-0.2-1-0.5c-0.3-0.3-0.6-0.8-0.9-1.4l-1-2.3l0.7-0.3l1,2.2c0.3,0.6,0.6,1,0.9,1.2
		c0.3,0.1,0.7,0.1,1,0c0.4-0.2,0.6-0.4,0.7-0.8c0.1-0.4,0-0.8-0.2-1.4c-0.2-0.5-0.5-0.9-0.9-1.1c-0.4-0.3-0.8-0.4-1.3-0.4l0.5-0.5
		c0.5,0,1,0.1,1.4,0.4C31.2,154.7,31.5,155.1,31.8,155.8"/>
	<path d="M29.2,149.5l-9.6,3.2l-0.3-0.9l9.6-3.2L29.2,149.5z M27.2,149.4l-1.2,0.4l-5.3-3l-0.4-1.1l3.8,2.1l0.6,0.4L27.2,149.4z
		 M27.5,144.2l-2.6,4l-0.9-0.4l3.2-4.8L27.5,144.2z"/>
	<path d="M25.9,137.9c0.1,0.6,0.1,1.1,0,1.6c-0.1,0.5-0.4,0.9-0.8,1.3c-0.4,0.3-0.9,0.6-1.6,0.7l-4.1,0.9l-0.2-0.9l4-0.9
		c0.7-0.2,1.3-0.5,1.6-0.9c0.3-0.5,0.4-1,0.2-1.7c-0.1-0.5-0.3-0.9-0.6-1.2c-0.3-0.3-0.6-0.5-1.1-0.6c-0.4-0.1-0.9-0.1-1.4,0
		l-3.7,0.8l-0.2-0.9l7-1.6l0.2,0.9l-1.9,0.4l0.3-0.2c0.6,0.1,1,0.4,1.4,0.8C25.5,136.8,25.8,137.3,25.9,137.9"/>
	<path d="M14,119.3l0-1l9.5-0.5l0,1L14,119.3z M23.8,124.8l0.1,1l-9.5,0.5l-0.1-1L23.8,124.8z M19.1,118.9l0.3,6.2l-0.9,0l-0.3-6.2
		L19.1,118.9z"/>
	<path d="M23.8,111.3c0,0.6-0.2,1.1-0.4,1.6c-0.3,0.4-0.6,0.8-1.1,1c-0.5,0.2-1,0.3-1.7,0.3l-4.2-0.3l0.1-1l4,0.3
		c0.8,0.1,1.3-0.1,1.8-0.5c0.4-0.4,0.6-0.9,0.7-1.6c0-0.5,0-0.9-0.2-1.3c-0.2-0.4-0.5-0.7-0.8-0.9c-0.4-0.2-0.8-0.3-1.4-0.4
		l-3.7-0.2l0.1-1l7.2,0.5l-0.1,0.9l-2-0.1l0.4-0.1c0.5,0.3,0.9,0.6,1.2,1.1C23.7,110.1,23.9,110.7,23.8,111.3"/>
	<path d="M18.9,94.3c0.1-0.6,0.3-1,0.6-1.4c0.3-0.4,0.7-0.6,1.2-0.8c0.5-0.1,1.1-0.2,1.8,0l4.1,0.8l-0.2,1l-4-0.8
		c-0.7-0.1-1.3-0.1-1.8,0.2c-0.4,0.3-0.7,0.7-0.9,1.4c-0.1,0.5-0.1,0.9,0.1,1.3c0.1,0.4,0.4,0.7,0.7,1c0.3,0.3,0.8,0.5,1.3,0.6
		l3.7,0.7l-0.2,1l-4-0.8c-0.7-0.1-1.3-0.1-1.8,0.2c-0.4,0.3-0.7,0.7-0.9,1.4c-0.1,0.5-0.1,0.9,0.1,1.3c0.1,0.4,0.4,0.7,0.7,1
		c0.3,0.3,0.8,0.5,1.3,0.6l3.7,0.7l-0.2,0.9l-7-1.4l0.2-0.9l1.9,0.4l-0.4,0.1c-0.5-0.3-0.8-0.7-1-1.3c-0.2-0.5-0.2-1.1-0.1-1.8
		c0.1-0.7,0.4-1.2,0.9-1.7c0.4-0.4,1-0.6,1.7-0.6l-0.2,0.3c-0.5-0.3-0.9-0.8-1.2-1.4C18.8,95.7,18.7,95,18.9,94.3"/>
	<path d="M29,85.4l-1.5-0.5l-0.3,0L24.7,84c-0.6-0.2-1.1-0.2-1.5,0c-0.4,0.2-0.7,0.6-0.9,1.3c-0.1,0.4-0.2,0.9-0.2,1.3
		c0,0.4,0.1,0.8,0.2,1.2l-0.8,0.2c-0.2-0.4-0.3-0.9-0.3-1.5c0-0.5,0.1-1.1,0.3-1.6c0.3-0.9,0.7-1.5,1.3-1.8c0.6-0.3,1.3-0.4,2.2-0.1
		l4.2,1.4L29,85.4z M28.3,87.8c-0.2,0.5-0.4,0.9-0.7,1.2c-0.3,0.3-0.6,0.5-1,0.6c-0.4,0.1-0.7,0.1-1.1,0c-0.4-0.1-0.6-0.3-0.9-0.6
		c-0.2-0.3-0.4-0.6-0.4-1.1c0-0.4,0-1,0.2-1.6l0.8-2.3l0.7,0.2l-0.8,2.3c-0.2,0.7-0.3,1.2-0.1,1.5c0.1,0.3,0.4,0.6,0.7,0.7
		c0.4,0.1,0.8,0.1,1.1-0.1s0.6-0.6,0.8-1.2c0.2-0.5,0.2-1,0.1-1.5c-0.1-0.5-0.4-0.8-0.8-1.2l0.7,0c0.4,0.3,0.7,0.7,0.8,1.3
		C28.5,86.6,28.5,87.1,28.3,87.8"/>
	<path d="M25.4,75.1c0.2-0.5,0.5-1,0.9-1.3c0.4-0.3,0.8-0.5,1.4-0.5c0.5,0,1.1,0.1,1.7,0.4l3.8,1.7l-0.4,0.9l-3.7-1.7
		c-0.7-0.3-1.3-0.4-1.8-0.2c-0.5,0.2-0.9,0.6-1.2,1.2c-0.2,0.5-0.3,0.9-0.3,1.3c0,0.4,0.2,0.8,0.5,1.2c0.3,0.3,0.7,0.6,1.2,0.9
		l3.4,1.5l-0.4,0.9l-6.5-2.9l0.4-0.8l1.8,0.8l-0.4,0c-0.4-0.4-0.6-0.9-0.7-1.5C25,76.3,25.1,75.7,25.4,75.1"/>
	<path d="M37.4,67.7l-8-5.3l2-3c0.4-0.7,0.9-1.2,1.5-1.5c0.5-0.3,1.1-0.5,1.7-0.5c0.6,0,1.2,0.2,1.7,0.6c0.6,0.4,1,0.8,1.2,1.4
		c0.2,0.5,0.3,1.1,0.2,1.7c-0.1,0.6-0.4,1.3-0.8,2l-1.7,2.5L35,64.9l2.9,1.9L37.4,67.7z M35.1,64.9l-0.6,0.1l1.6-2.5
		c0.5-0.8,0.8-1.5,0.7-2.2c-0.1-0.6-0.4-1.2-1.1-1.6c-0.6-0.4-1.3-0.5-1.9-0.4c-0.6,0.2-1.2,0.7-1.7,1.5l-1.7,2.5l-0.1-0.6
		L35.1,64.9z M41,62.2l-4.2,0.1l0.6-0.9l4.3-0.1L41,62.2z"/>
	<path d="M36.8,53.3c-0.1,0.2-0.3,0.2-0.5,0.3c-0.2,0-0.4,0-0.5-0.1c-0.1-0.1-0.2-0.3-0.3-0.5c0-0.2,0-0.4,0.2-0.5
		c0.1-0.2,0.3-0.3,0.5-0.3c0.2,0,0.4,0,0.5,0.1c0.2,0.1,0.2,0.3,0.3,0.5C37,52.9,37,53.1,36.8,53.3 M43.4,59.1l-5.6-4.4l0.6-0.8
		l5.6,4.4L43.4,59.1z"/>
	<path d="M48,53.2c-0.5,0.5-1,0.9-1.6,1.1c-0.6,0.2-1.2,0.2-1.8,0.1c-0.6-0.1-1.2-0.4-1.7-0.9c-0.5-0.5-0.8-1-1-1.6
		c-0.2-0.6-0.2-1.2,0-1.8c0.2-0.6,0.5-1.1,0.9-1.7c0.4-0.5,0.9-0.8,1.5-1c0.5-0.2,1.1-0.2,1.7-0.1c0.6,0.1,1.2,0.5,1.7,1
		c0.5,0.5,0.9,1,1.1,1.6c0.2,0.6,0.2,1.1,0,1.7C48.7,52.2,48.5,52.7,48,53.2 M47.5,52.5c0.4-0.4,0.6-0.8,0.7-1.3
		c0.1-0.5,0.1-0.9,0-1.3s-0.4-0.8-0.8-1.2c-0.4-0.4-0.8-0.6-1.2-0.7c-0.4-0.1-0.9-0.1-1.3,0.1c-0.4,0.1-0.8,0.4-1.2,0.8
		c-0.3,0.4-0.6,0.8-0.7,1.3c-0.1,0.5-0.1,0.9,0,1.3c0.1,0.4,0.4,0.8,0.8,1.2c0.4,0.4,0.8,0.6,1.2,0.7c0.4,0.1,0.9,0.1,1.3-0.1
		C46.7,53.2,47.1,52.9,47.5,52.5 M50.3,55.1c-0.4,0.5-0.9,0.9-1.5,1.2c-0.5,0.3-1.1,0.5-1.6,0.5L47,55.9c0.4,0,0.9-0.2,1.4-0.4
		c0.5-0.2,0.9-0.6,1.3-1c0.6-0.7,0.9-1.3,0.9-1.9c0-0.6-0.4-1.2-1-1.8l-1.3-1.2l-0.8-0.9l-1-0.8l-1.6-1.5l0.6-0.7l4.6,4.3
		c0.9,0.8,1.4,1.7,1.4,2.5C51.5,53.4,51.1,54.2,50.3,55.1"/>
	<path d="M51.2,40.4c0.4-0.4,0.9-0.6,1.4-0.8c0.5-0.1,1-0.1,1.5,0.1c0.5,0.2,1,0.5,1.4,1.1l2.7,3.1l-0.7,0.6l-2.7-3.1
		c-0.5-0.6-1-0.9-1.6-0.9c-0.5,0-1.1,0.2-1.6,0.6c-0.4,0.3-0.7,0.7-0.8,1.1c-0.1,0.4-0.2,0.8-0.1,1.2c0.1,0.4,0.3,0.8,0.7,1.3
		l2.5,2.8l-0.7,0.6l-6.7-7.6l0.7-0.6l3.2,3.7l-0.4-0.2c-0.2-0.5-0.2-1.1,0-1.6C50.3,41.4,50.7,40.8,51.2,40.4"/>
	<path d="M56.1,37.5l-0.5-0.7l3.6-2.6l0.5,0.7L56.1,37.5z M62.7,40.7c-0.5,0.4-1.1,0.6-1.6,0.5c-0.5-0.1-1-0.4-1.3-0.9l-4-5.4
		l0.8-0.6l3.9,5.4c0.2,0.3,0.5,0.5,0.8,0.6c0.3,0.1,0.6,0,0.9-0.3c0.3-0.3,0.6-0.6,0.6-0.9l0.7,0.4c-0.1,0.3-0.2,0.5-0.3,0.7
		C63.1,40.3,62.9,40.5,62.7,40.7"/>
	<path d="M68.1,37.1c-0.5,0.3-1,0.5-1.6,0.7c-0.5,0.1-1,0.2-1.4,0.1l0-0.9c0.4,0,0.8,0,1.3-0.1c0.5-0.1,0.9-0.3,1.3-0.5
		c0.6-0.4,0.9-0.7,1.1-1c0.1-0.3,0.1-0.7-0.1-1c-0.1-0.2-0.3-0.4-0.5-0.4c-0.2,0-0.5,0-0.7,0.1c-0.3,0.1-0.6,0.2-0.9,0.3
		c-0.3,0.1-0.6,0.2-1,0.4c-0.3,0.1-0.6,0.2-0.9,0.2c-0.3,0-0.6,0-0.9-0.2c-0.3-0.1-0.5-0.4-0.7-0.7c-0.2-0.3-0.3-0.7-0.3-1.1
		c0-0.4,0.2-0.8,0.4-1.1c0.3-0.4,0.7-0.7,1.2-1c0.4-0.2,0.8-0.4,1.3-0.6C66.2,30,66.6,30,67,30l0,0.9c-0.4,0-0.8,0-1.1,0.1
		c-0.4,0.1-0.7,0.3-1,0.4c-0.6,0.3-0.9,0.7-1,1c-0.1,0.3-0.1,0.7,0.1,1c0.1,0.2,0.3,0.4,0.5,0.4c0.2,0,0.5,0,0.8,0
		c0.3-0.1,0.6-0.2,0.9-0.3c0.3-0.1,0.6-0.2,1-0.3c0.3-0.1,0.6-0.2,0.9-0.2c0.3,0,0.6,0,0.9,0.1c0.3,0.1,0.5,0.3,0.7,0.7
		c0.2,0.4,0.3,0.7,0.3,1.1c0,0.4-0.2,0.8-0.5,1.1C69.1,36.4,68.6,36.8,68.1,37.1"/>
	<path d="M81.5,30.3c-0.7,0.3-1.3,0.4-2,0.4c-0.7,0-1.3-0.1-1.9-0.3c-0.6-0.2-1.1-0.6-1.6-1c-0.5-0.5-0.8-1-1.1-1.6
		c-0.3-0.6-0.4-1.3-0.4-1.9c0-0.6,0.1-1.3,0.4-1.8c0.2-0.6,0.6-1.1,1.1-1.5c0.5-0.5,1-0.8,1.7-1.1c0.6-0.3,1.3-0.4,1.9-0.4
		c0.7,0,1.3,0.1,1.8,0.4l-0.3,0.8c-0.5-0.2-1-0.3-1.5-0.3c-0.5,0-1,0.1-1.5,0.3c-0.5,0.2-1,0.5-1.4,0.9c-0.4,0.4-0.7,0.8-0.9,1.3
		c-0.2,0.5-0.3,1-0.3,1.5c0,0.5,0.1,1,0.3,1.6c0.2,0.5,0.5,1,0.9,1.3c0.4,0.4,0.8,0.6,1.3,0.8c0.5,0.2,1,0.3,1.5,0.3
		c0.5,0,1.1-0.1,1.6-0.3c0.5-0.2,0.9-0.5,1.3-0.8c0.4-0.4,0.7-0.8,0.9-1.3l0.8,0.3c-0.2,0.6-0.6,1.1-1,1.6
		C82.7,29.7,82.2,30.1,81.5,30.3"/>
	<rect x="85.8" y="18.1" transform="matrix(0.9516 -0.3074 0.3074 0.9516 -2.9399 27.6368)" width="1" height="10.1"/>
	<path d="M94.5,26.2c-0.6,0.1-1.1,0.2-1.6,0c-0.5-0.1-0.9-0.4-1.3-0.8c-0.3-0.4-0.6-0.9-0.8-1.6l-1-4.1l0.9-0.2l0.9,3.9
		c0.2,0.7,0.5,1.3,1,1.5c0.5,0.3,1,0.4,1.7,0.2c0.5-0.1,0.9-0.3,1.2-0.6c0.3-0.3,0.5-0.6,0.6-1.1c0.1-0.4,0.1-0.9,0-1.4l-0.9-3.7
		l0.9-0.2l1.7,7L97,25.5l-0.5-1.9l0.2,0.3c-0.1,0.6-0.3,1.1-0.7,1.4S95.1,26,94.5,26.2"/>
	<path d="M101.2,24.7l-1.3-10.1l1-0.1l0.6,5l0,1.5l0.3,1.4l0.3,2.1L101.2,24.7z M104.9,24.3c-0.6,0.1-1.2,0-1.7-0.2
		c-0.5-0.2-1-0.6-1.3-1.1c-0.4-0.5-0.6-1.1-0.7-1.9c-0.1-0.8,0-1.5,0.2-2c0.2-0.6,0.6-1,1-1.4c0.5-0.3,1-0.6,1.6-0.6
		c0.7-0.1,1.3,0,1.9,0.2c0.6,0.2,1.1,0.6,1.4,1.1c0.4,0.5,0.6,1.1,0.7,1.8c0.1,0.7,0,1.4-0.2,1.9c-0.2,0.6-0.6,1.1-1.1,1.4
		C106.1,24,105.5,24.2,104.9,24.3 M104.7,23.4c0.5-0.1,0.9-0.2,1.3-0.5c0.4-0.3,0.6-0.6,0.8-1.1c0.2-0.5,0.2-1,0.2-1.5
		c-0.1-0.6-0.2-1-0.5-1.4c-0.3-0.4-0.6-0.7-1.1-0.8c-0.4-0.2-0.9-0.2-1.4-0.2c-0.5,0.1-0.9,0.2-1.3,0.5c-0.4,0.3-0.6,0.6-0.8,1.1
		c-0.2,0.4-0.2,0.9-0.2,1.5c0.1,0.6,0.2,1,0.5,1.4c0.3,0.4,0.6,0.7,1.1,0.9C103.7,23.4,104.2,23.5,104.7,23.4"/>
	<path d="M94.1,187.1v-20.1h9.8c2.5,0,4.4,0.5,5.7,1.4c1.3,1,1.9,2.2,1.9,3.8c0,1-0.3,2-0.8,2.7c-0.5,0.8-1.2,1.4-2.1,1.8
		c-0.9,0.4-1.9,0.6-3.1,0.6l0.5-1.2c1.3,0,2.4,0.2,3.3,0.6c1,0.4,1.7,1,2.3,1.8c0.6,0.8,0.8,1.8,0.8,3c0,1.7-0.7,3.1-2,4
		c-1.4,1-3.4,1.4-6,1.4H94.1z M98.7,183.6h5.4c1.2,0,2.1-0.2,2.7-0.6c0.6-0.4,0.9-1,0.9-1.9c0-0.9-0.3-1.5-0.9-1.9
		c-0.6-0.4-1.5-0.6-2.7-0.6h-5.8v-3.4h5c1.1,0,2-0.2,2.6-0.6c0.6-0.4,0.9-1,0.9-1.8c0-0.8-0.3-1.4-0.9-1.8c-0.6-0.4-1.5-0.6-2.6-0.6
		h-4.6V183.6z"/>
	<path d="M123.1,187.1h-4.7v-20.1h4.7V187.1z M132.5,178.9h-9.8V175h9.8V178.9z M132.2,167.1h4.6v20.1h-4.6V167.1z"/>
	<path d="M95.6,212.1V192h8.7c1.8,0,3.3,0.3,4.6,0.9c1.3,0.6,2.3,1.4,3,2.5c0.7,1.1,1.1,2.4,1.1,3.9c0,1.5-0.4,2.8-1.1,3.9
		c-0.7,1.1-1.7,1.9-3,2.5c-1.3,0.6-2.8,0.8-4.6,0.8h-6.1l2.1-2v7.6H95.6z M100.3,205l-2.1-2.2h5.9c1.4,0,2.5-0.3,3.2-0.9
		c0.7-0.6,1.1-1.5,1.1-2.6c0-1.1-0.4-2-1.1-2.6c-0.7-0.6-1.8-0.9-3.2-0.9h-5.9l2.1-2.2V205z M108.4,212.1l-5-7.3h5l5,7.3H108.4z"/>
	<path d="M128.7,212.4c-1.5,0-3-0.3-4.3-0.8c-1.3-0.5-2.5-1.2-3.5-2.2c-1-0.9-1.7-2-2.3-3.3c-0.5-1.3-0.8-2.6-0.8-4.2
		c0-1.5,0.3-2.9,0.8-4.2c0.5-1.3,1.3-2.4,2.3-3.3c1-0.9,2.1-1.7,3.5-2.2c1.3-0.5,2.8-0.8,4.3-0.8c1.7,0,3.3,0.3,4.7,0.9
		c1.4,0.6,2.6,1.5,3.6,2.7l-3,2.8c-0.7-0.8-1.4-1.4-2.3-1.8c-0.9-0.4-1.8-0.6-2.8-0.6c-0.9,0-1.8,0.2-2.6,0.5
		c-0.8,0.3-1.5,0.8-2,1.3c-0.6,0.6-1,1.3-1.3,2c-0.3,0.8-0.5,1.7-0.5,2.6c0,1,0.2,1.8,0.5,2.6c0.3,0.8,0.8,1.5,1.3,2
		c0.6,0.6,1.2,1,2,1.3c0.8,0.3,1.6,0.5,2.6,0.5c1,0,1.9-0.2,2.8-0.6c0.8-0.4,1.6-1,2.3-1.8l3,2.8c-1,1.2-2.1,2.1-3.6,2.7
		C132,212.1,130.4,212.4,128.7,212.4"/>
	<path d="M89.2,114.4c0,0-35.4-16.3,8.7-63.9c0,0-5.5,21.3,7.7,28.7c0,0-11.8-24.1,29.8-53.2c0,0-1.5,25.5,15.1,57.4
		c7.3,14.1,5.8,26.6,1.8,36.2c-6.4,15.3-20.4,26.1-36.7,28.5c-5.7,0.9-11.9,0.7-17.9-1.7c0,0,28.5-9.7,25.2-27.1
		c0,0-2.5-7.8,1.5-13.8l3.6-2.1c0,0-4.6-1.1-5.3-2.9c-0.7-1.8-7.1-7.6-16.1-5.1C106.6,95.3,93.6,98.4,89.2,114.4"/>
</g>
</svg>
