<?xml version="1.0" encoding="utf-8"?>
<!-- Generator: Adobe Illustrator 25.2.0, SVG Export Plug-In . SVG Version: 6.00 Build 0)  -->
<svg version="1.1" id="Layer_1" xmlns="http://www.w3.org/2000/svg" xmlns:xlink="http://www.w3.org/1999/xlink" x="0px" y="0px"
	 viewBox="0 0 1000 380" style="enable-background:new 0 0 1000 380;" xml:space="preserve">
<style type="text/css">
	.st0{fill:#404041;}
    .st01{fill: #00000}
	.st1{enable-background:new    ;}
</style>
<path class="st0" d="M379.2,89.4c2-0.8,4.2,0.1,5,2.1c0.3,0.8,0.4,1.8,0.1,2.7C258.1,467.2-15.2,372.6,34.9,197.2
	c35.9-125.6,25.9-132.2-4.6-137c-2.1-0.3-3.5-2.3-3.2-4.4c0.2-1.1,0.9-2.1,1.8-2.7c22-13,79.8-42.8,112-16.1
	c40.3,33.4,19.6,142.5,19.6,142.5L379.2,89.4z"/>
<path class="st01" d="M117.9,351.5c-12.5,0.1-24.9-1.8-36.8-5.4C20,327-10.1,263.5,9.5,195c22.2-77.9,27.4-111.7,19-124.8
	c-4.2-6.6-12.1-8.3-22.1-9.9c-3.1-0.5-5.2-3.4-4.7-6.5c0.3-1.7,1.3-3.2,2.7-4c23.4-13.9,81.3-43.2,114.2-16
	c17.2,14.2,25.8,42.8,25.6,85.2c-0.2,18.7-1.8,37.3-4.7,55.7L354.9,86c2.9-1.2,6.3,0.2,7.5,3.1c0.5,1.3,0.6,2.7,0.1,4
	c-33.7,99.4-81.3,174.9-137.9,218.2C190.2,337.7,152.9,351.5,117.9,351.5z M84.2,26.3C55.3,26.3,22.4,43.4,6.4,53
	c-0.7,0.4-1.1,1.2-0.9,2.1c0.1,0.8,0.8,1.4,1.6,1.5c10.5,1.6,19.6,3.7,24.6,11.5C40.8,82.4,36,115.9,13.1,196
	c-19.3,67.5,9.1,127.8,69.1,146.4c43.2,13.5,94.3,1.1,140.2-34.1c56-42.9,103.2-117.8,136.6-216.5c0.3-1.1-0.3-2.2-1.4-2.5
	c-0.4-0.1-0.8-0.1-1.2,0l-221.8,91.4l0.6-3.4c0.2-1.1,20-108.4-19-140.7C107.2,29.2,96,26.3,84.2,26.3z"/>
<g class="st1">
	<path d="M427.4,73.7V15h23.5c4.3,0,7.9,0.6,10.8,1.9c2.9,1.3,5.1,3.1,6.5,5.3c1.5,2.3,2.2,4.9,2.2,7.8c0,2.3-0.5,4.3-1.4,6
		c-0.9,1.7-2.2,3.1-3.8,4.2c-1.6,1.1-3.4,1.9-5.5,2.3v0.6c2.2,0.1,4.3,0.7,6.3,1.9c2,1.2,3.5,2.8,4.8,4.9c1.2,2.1,1.8,4.6,1.8,7.5
		c0,3.1-0.8,5.9-2.3,8.3c-1.5,2.4-3.8,4.4-6.8,5.8c-3,1.4-6.7,2.1-11.1,2.1H427.4z M439.8,39.6h9.2c1.7,0,3.2-0.3,4.5-0.9
		c1.3-0.6,2.4-1.5,3.2-2.6c0.8-1.1,1.2-2.4,1.2-4c0-2.1-0.7-3.8-2.2-5.1c-1.5-1.3-3.6-1.9-6.4-1.9h-9.4V39.6z M439.8,63.6h10.1
		c3.5,0,6-0.7,7.6-2c1.6-1.3,2.4-3.1,2.4-5.3c0-1.6-0.4-3.1-1.2-4.3c-0.8-1.2-1.9-2.2-3.3-2.9c-1.4-0.7-3.2-1.1-5.1-1.1h-10.4V63.6z
		"/>
	<path d="M490.8,73.7h-13.3L497.7,15h16L534,73.7h-13.3L506,28.5h-0.5L490.8,73.7z M490,50.7h31.4v9.7H490V50.7z"/>
	<path d="M541,73.7V15h12.4v25.9h0.8L575.3,15h14.9l-21.8,26.3l22,32.4h-14.8l-16.1-24.1l-6.1,7.4v16.7H541z"/>
	<path d="M609,15v58.7h-12.4V15H609z"/>
</g>
<g class="st1">
	<path d="M433.6,106.2c-1.8,0-3.4-0.6-4.7-1.8c-1.3-1.2-1.9-2.7-1.9-4.4c0-1.7,0.6-3.1,1.9-4.3c1.3-1.2,2.8-1.8,4.6-1.8
		c1.8,0,3.4,0.6,4.7,1.8s1.9,2.7,1.9,4.3c0,1.7-0.6,3.2-1.9,4.4S435.4,106.2,433.6,106.2z M439.8,111.9v58.7h-12.4v-58.7H439.8z"/>
	<path d="M499.1,111.9v58.7h-10.7l-25.5-36.9h-0.4v36.9H450v-58.7h10.9l25.3,36.9h0.5v-36.9H499.1z"/>
	<path d="M541.1,128.7c-0.2-2.3-1.2-4.1-3-5.4c-1.7-1.3-4.1-1.9-7.1-1.9c-2,0-3.7,0.3-5.1,0.8c-1.4,0.6-2.5,1.3-3.2,2.3
		s-1.1,2.1-1.1,3.4c0,1.1,0.2,2,0.7,2.8c0.5,0.8,1.2,1.5,2,2c0.9,0.6,1.9,1.1,3,1.5c1.1,0.4,2.3,0.8,3.6,1l5.3,1.3
		c2.6,0.6,4.9,1.3,7,2.3s4,2.1,5.6,3.5c1.6,1.4,2.8,3,3.7,4.9s1.3,4.1,1.3,6.5c0,3.6-0.9,6.7-2.7,9.3s-4.4,4.7-7.8,6.1
		c-3.4,1.4-7.5,2.2-12.2,2.2c-4.7,0-8.9-0.7-12.4-2.2c-3.5-1.5-6.2-3.6-8.2-6.5c-2-2.9-3-6.4-3.1-10.6h12c0.1,2,0.7,3.6,1.7,4.9
		s2.3,2.3,4,3c1.7,0.7,3.6,1,5.7,1c2.1,0,3.9-0.3,5.5-0.9s2.8-1.5,3.6-2.5c0.9-1.1,1.3-2.3,1.3-3.8c0-1.3-0.4-2.4-1.2-3.3
		c-0.8-0.9-1.9-1.7-3.4-2.3c-1.5-0.6-3.3-1.2-5.4-1.7l-6.4-1.6c-4.9-1.2-8.9-3.1-11.7-5.6c-2.9-2.6-4.3-6-4.3-10.3
		c0-3.6,0.9-6.7,2.9-9.3c1.9-2.7,4.6-4.7,7.9-6.2c3.4-1.5,7.2-2.2,11.5-2.2c4.4,0,8.2,0.7,11.4,2.2c3.3,1.5,5.8,3.6,7.6,6.2
		c1.8,2.7,2.8,5.7,2.8,9.2H541.1z"/>
	<path d="M570.9,170.5h-13.3l20.3-58.7h16l20.2,58.7h-13.3L586,125.3h-0.5L570.9,170.5z M570,147.5h31.4v9.7H570V147.5z"/>
	<path d="M670.1,111.9v58.7h-10.7l-25.5-36.9h-0.4v36.9h-12.4v-58.7H632l25.3,36.9h0.5v-36.9H670.1z"/>
</g>
<g class="st1">
	<path d="M427.4,267.3v-58.7h12.4v24.2h25.2v-24.2h12.4v58.7h-12.4v-24.2h-25.2v24.2H427.4z"/>
	<path d="M523.8,208.7h12.4v38.1c0,4.3-1,8-3.1,11.2c-2,3.2-4.9,5.7-8.5,7.5c-3.6,1.8-7.9,2.7-12.7,2.7c-4.9,0-9.1-0.9-12.8-2.7
		c-3.6-1.8-6.5-4.3-8.5-7.5c-2-3.2-3-7-3-11.2v-38.1H500v37c0,2.2,0.5,4.2,1.5,6c1,1.7,2.4,3.1,4.2,4.1c1.8,1,3.9,1.5,6.3,1.5
		c2.4,0,4.5-0.5,6.3-1.5c1.8-1,3.2-2.4,4.2-4.1c1-1.7,1.5-3.7,1.5-6V208.7z M503.1,202.6c-1.6,0-3.1-0.6-4.2-1.7s-1.8-2.5-1.8-4.1
		c0-1.6,0.6-3,1.8-4.1s2.6-1.7,4.2-1.7c1.7,0,3.1,0.6,4.2,1.7c1.2,1.1,1.7,2.5,1.7,4.1c0,1.6-0.6,3-1.7,4.1
		C506.2,202.1,504.8,202.6,503.1,202.6z M520.7,202.6c-1.6,0-3.1-0.6-4.2-1.7c-1.2-1.2-1.8-2.5-1.8-4.1c0-1.6,0.6-3,1.8-4.1
		c1.2-1.1,2.6-1.7,4.2-1.7c1.7,0,3.1,0.6,4.2,1.7s1.7,2.5,1.7,4.1c0,1.6-0.6,3-1.7,4.1S522.3,202.6,520.7,202.6z"/>
	<path d="M600.3,238c0,6.4-1.2,11.8-3.6,16.3c-2.4,4.5-5.7,7.9-9.9,10.3c-4.2,2.4-8.8,3.5-14,3.5c-5.2,0-9.9-1.2-14-3.6
		c-4.1-2.4-7.4-5.8-9.8-10.3s-3.6-9.9-3.6-16.3c0-6.4,1.2-11.8,3.6-16.3s5.7-7.9,9.8-10.3c4.1-2.4,8.8-3.5,14-3.5
		c5.2,0,9.8,1.2,14,3.5c4.2,2.4,7.4,5.8,9.9,10.3C599.1,226.1,600.3,231.6,600.3,238z M587.7,238c0-4.1-0.6-7.6-1.8-10.5
		c-1.2-2.8-3-5-5.2-6.5c-2.2-1.5-4.9-2.2-7.8-2.2c-3,0-5.6,0.7-7.8,2.2c-2.2,1.5-4,3.6-5.2,6.5c-1.2,2.8-1.8,6.3-1.8,10.5
		c0,4.1,0.6,7.6,1.8,10.5c1.2,2.8,3,5,5.2,6.5c2.2,1.5,4.9,2.2,7.8,2.2c3,0,5.6-0.7,7.8-2.2c2.2-1.5,4-3.6,5.2-6.5
		C587.1,245.6,587.7,242.1,587.7,238z M568.5,246.9h10.5l5.3,6.8l5.2,6.1l9.8,12.3h-11.6l-6.8-8.3l-3.5-4.9L568.5,246.9z"/>
	<path d="M645.8,208.7h12.4v38.1c0,4.3-1,8-3.1,11.2c-2,3.2-4.9,5.7-8.5,7.5c-3.6,1.8-7.9,2.7-12.7,2.7c-4.9,0-9.1-0.9-12.8-2.7
		c-3.6-1.8-6.5-4.3-8.5-7.5c-2-3.2-3-7-3-11.2v-38.1h12.4v37c0,2.2,0.5,4.2,1.5,6c1,1.7,2.4,3.1,4.2,4.1c1.8,1,3.9,1.5,6.3,1.5
		c2.4,0,4.5-0.5,6.3-1.5c1.8-1,3.2-2.4,4.2-4.1c1-1.7,1.5-3.7,1.5-6V208.7z"/>
	<path d="M722.3,238c0,6.4-1.2,11.8-3.6,16.3c-2.4,4.5-5.7,7.9-9.9,10.3c-4.2,2.4-8.8,3.5-14,3.5c-5.2,0-9.9-1.2-14-3.6
		c-4.1-2.4-7.4-5.8-9.8-10.3s-3.6-9.9-3.6-16.3c0-6.4,1.2-11.8,3.6-16.3s5.7-7.9,9.8-10.3c4.1-2.4,8.8-3.5,14-3.5
		c5.2,0,9.8,1.2,14,3.5c4.2,2.4,7.4,5.8,9.9,10.3C721.1,226.1,722.3,231.6,722.3,238z M709.7,238c0-4.1-0.6-7.6-1.8-10.5
		c-1.2-2.8-3-5-5.2-6.5c-2.2-1.5-4.9-2.2-7.8-2.2c-3,0-5.6,0.7-7.8,2.2c-2.2,1.5-4,3.6-5.2,6.5c-1.2,2.8-1.8,6.3-1.8,10.5
		c0,4.1,0.6,7.6,1.8,10.5c1.2,2.8,3,5,5.2,6.5c2.2,1.5,4.9,2.2,7.8,2.2c3,0,5.6-0.7,7.8-2.2c2.2-1.5,4-3.6,5.2-6.5
		C709.1,245.6,709.7,242.1,709.7,238z M690.5,246.9h10.5l5.3,6.8l5.2,6.1l9.8,12.3h-11.6l-6.8-8.3l-3.5-4.9L690.5,246.9z"/>
	<path d="M731.5,267.3v-58.7h12.4v48.4h25.2v10.2H731.5z"/>
	<path d="M788.9,267.3h-13.3l20.3-58.7h16l20.2,58.7h-13.3L804,222.1h-0.5L788.9,267.3z M788,244.3h31.4v9.7H788V244.3z"/>
	<path d="M839.1,267.3v-58.7h23.1c4.4,0,8.2,0.8,11.4,2.4c3.1,1.6,5.5,3.8,7.2,6.7c1.7,2.9,2.5,6.2,2.5,10.1c0,3.9-0.8,7.2-2.5,10
		c-1.7,2.8-4.1,4.9-7.3,6.4s-7,2.2-11.5,2.2h-15.5v-10h13.5c2.4,0,4.3-0.3,5.9-1c1.6-0.6,2.7-1.6,3.5-2.9c0.8-1.3,1.2-2.9,1.2-4.8
		c0-1.9-0.4-3.6-1.2-4.9s-1.9-2.4-3.5-3.1c-1.6-0.7-3.6-1-5.9-1h-8.4v48.5H839.1z M870.8,240.6l14.6,26.7h-13.7l-14.3-26.7H870.8z"
		/>
	<path d="M904.4,208.7v58.7H892v-58.7H904.4z"/>
</g>
<g class="st1">
	<path d="M427.4,364.1v-58.7h12.4v25.9h0.8l21.1-25.9h14.9l-21.8,26.3l22,32.4h-14.8L445.9,340l-6.1,7.4v16.7H427.4z"/>
	<path d="M483,364.1v-58.7h12.4v48.4h25.2v10.2H483z"/>
	<path d="M565,305.5h12.4v38.1c0,4.3-1,8-3.1,11.2c-2,3.2-4.9,5.7-8.5,7.5c-3.6,1.8-7.9,2.7-12.7,2.7c-4.9,0-9.1-0.9-12.8-2.7
		c-3.6-1.8-6.5-4.3-8.5-7.5c-2-3.2-3-7-3-11.2v-38.1h12.4v37c0,2.2,0.5,4.2,1.5,6c1,1.7,2.4,3.1,4.2,4.1s3.9,1.5,6.3,1.5
		c2.4,0,4.5-0.5,6.3-1.5s3.2-2.4,4.2-4.1c1-1.7,1.5-3.7,1.5-6V305.5z"/>
	<path d="M587.6,364.1v-58.7h23.5c4.3,0,7.9,0.6,10.8,1.9c2.9,1.3,5.1,3.1,6.5,5.3c1.5,2.3,2.2,4.9,2.2,7.8c0,2.3-0.5,4.3-1.4,6
		c-0.9,1.7-2.2,3.1-3.8,4.2c-1.6,1.1-3.4,1.9-5.5,2.3v0.6c2.2,0.1,4.3,0.7,6.3,1.9c2,1.2,3.5,2.8,4.8,4.9c1.2,2.1,1.8,4.6,1.8,7.5
		c0,3.1-0.8,5.9-2.3,8.3c-1.5,2.4-3.8,4.4-6.8,5.8c-3,1.4-6.7,2.1-11.1,2.1H587.6z M600,330h9.2c1.7,0,3.2-0.3,4.5-0.9
		c1.3-0.6,2.4-1.5,3.2-2.6c0.8-1.1,1.2-2.4,1.2-4c0-2.1-0.8-3.8-2.2-5.1s-3.6-1.9-6.4-1.9H600V330z M600,354h10.1c3.5,0,6-0.7,7.6-2
		c1.6-1.3,2.4-3.1,2.4-5.3c0-1.6-0.4-3.1-1.2-4.3c-0.8-1.2-1.9-2.2-3.3-2.9c-1.4-0.7-3.2-1.1-5.1-1.1H600V354z"/>
	<path d="M677.2,305.5h12.4v38.1c0,4.3-1,8-3.1,11.2c-2,3.2-4.9,5.7-8.5,7.5c-3.6,1.8-7.9,2.7-12.7,2.7c-4.9,0-9.1-0.9-12.8-2.7
		c-3.6-1.8-6.5-4.3-8.5-7.5c-2-3.2-3-7-3-11.2v-38.1h12.4v37c0,2.2,0.5,4.2,1.5,6c1,1.7,2.4,3.1,4.2,4.1c1.8,1,3.9,1.5,6.3,1.5
		c2.4,0,4.5-0.5,6.3-1.5c1.8-1,3.2-2.4,4.2-4.1c1-1.7,1.5-3.7,1.5-6V305.5z"/>
</g>
</svg>
