<?xml version="1.0" encoding="utf-8"?>
<!-- Generator: Adobe Illustrator 25.2.0, SVG Export Plug-In . SVG Version: 6.00 Build 0)  -->
<svg version="1.1" id="Layer_1" xmlns="http://www.w3.org/2000/svg" xmlns:xlink="http://www.w3.org/1999/xlink" x="0px" y="0px"
	 viewBox="0 0 1000 380" style="enable-background:new 0 0 1000 380;" xml:space="preserve">
<style type="text/css">
	.st0{fill:#404041;}
    .st01{fill: #00000}
	.st1{enable-background:new    ;}
</style>
<path class="st0" d="M379.6,89.4c2-0.8,4.2,0.1,5,2.1c0.3,0.8,0.4,1.8,0.1,2.7C258.5,467.2-14.8,372.6,35.3,197.2
	c35.9-125.6,25.9-132.2-4.6-137c-2.1-0.3-3.5-2.3-3.2-4.4c0.2-1.1,0.9-2.1,1.8-2.7c22-13,79.8-42.8,112-16.1
	C181.7,70.4,161,179.5,161,179.5L379.6,89.4z"/>
<path class="st01" d="M118.3,351.5c-12.5,0.1-24.9-1.8-36.8-5.4C20.4,327-9.7,263.5,9.9,195c22.2-77.9,27.4-111.7,19-124.8
	c-4.2-6.6-12.1-8.3-22.1-9.9c-3.1-0.5-5.2-3.4-4.7-6.5c0.3-1.7,1.3-3.2,2.7-4C28.2,35.9,86.1,6.6,119,33.8
	c17.2,14.2,25.8,42.8,25.6,85.2c-0.2,18.7-1.8,37.3-4.7,55.7L355.3,86c2.9-1.2,6.3,0.2,7.5,3.1c0.5,1.3,0.6,2.7,0.1,4
	C329.2,192.5,281.6,268,225,311.3C190.7,337.7,153.3,351.5,118.3,351.5z M84.6,26.3C55.7,26.3,22.9,43.4,6.8,53
	c-0.7,0.4-1.1,1.2-0.9,2.1c0.1,0.8,0.8,1.4,1.6,1.5c10.5,1.6,19.6,3.7,24.6,11.5c9.1,14.3,4.3,47.8-18.6,127.9
	c-19.3,67.5,9.1,127.8,69.1,146.4c43.2,13.5,94.3,1.1,140.2-34.1c56-42.9,103.2-117.8,136.6-216.5c0.3-1.1-0.3-2.2-1.4-2.5
	c-0.4-0.1-0.8-0.1-1.2,0L135,180.8l0.6-3.4c0.2-1.1,20-108.4-19-140.7C107.6,29.2,96.4,26.3,84.6,26.3z"/>
<g class="st1">
	<path d="M427.8,73.7V15h23.5c4.3,0,7.9,0.6,10.8,1.9c2.9,1.3,5.1,3.1,6.5,5.3c1.5,2.3,2.2,4.9,2.2,7.8c0,2.3-0.5,4.3-1.4,6
		c-0.9,1.7-2.2,3.1-3.8,4.2c-1.6,1.1-3.4,1.9-5.5,2.3v0.6c2.2,0.1,4.3,0.7,6.3,1.9c2,1.2,3.5,2.8,4.8,4.9c1.2,2.1,1.8,4.6,1.8,7.5
		c0,3.1-0.8,5.9-2.3,8.3c-1.5,2.4-3.8,4.4-6.8,5.8c-3,1.4-6.7,2.1-11.1,2.1H427.8z M440.2,39.6h9.2c1.7,0,3.2-0.3,4.5-0.9
		c1.3-0.6,2.4-1.5,3.2-2.6c0.8-1.1,1.2-2.4,1.2-4c0-2.1-0.7-3.8-2.2-5.1c-1.5-1.3-3.6-1.9-6.4-1.9h-9.4V39.6z M440.2,63.6h10.1
		c3.5,0,6-0.7,7.6-2c1.6-1.3,2.4-3.1,2.4-5.3c0-1.6-0.4-3.1-1.2-4.3c-0.8-1.2-1.9-2.2-3.3-2.9c-1.4-0.7-3.2-1.1-5.1-1.1h-10.4V63.6z
		"/>
	<path d="M491.2,73.7h-13.3L498.2,15h16l20.2,58.7h-13.3l-14.7-45.3h-0.5L491.2,73.7z M490.4,50.7h31.4v9.7h-31.4V50.7z"/>
	<path d="M541.4,73.7V15h12.4v25.9h0.8L575.7,15h14.9l-21.8,26.3l22,32.4H576l-16.1-24.1l-6.1,7.4v16.7H541.4z"/>
	<path d="M633.3,15h12.4v38.1c0,4.3-1,8-3.1,11.2c-2,3.2-4.9,5.7-8.5,7.5c-3.6,1.8-7.9,2.7-12.7,2.7c-4.9,0-9.1-0.9-12.8-2.7
		c-3.6-1.8-6.5-4.3-8.5-7.5c-2-3.2-3-7-3-11.2V15h12.4v37c0,2.2,0.5,4.2,1.5,6c1,1.7,2.4,3.1,4.2,4.1c1.8,1,3.9,1.5,6.3,1.5
		c2.4,0,4.5-0.5,6.3-1.5c1.8-1,3.2-2.4,4.2-4.1c1-1.7,1.5-3.7,1.5-6V15z"/>
</g>
<g class="st1">
	<path d="M427.8,170.5v-58.7h12.4v24.2h25.2v-24.2h12.4v58.7h-12.4v-24.2h-25.2v24.2H427.8z"/>
	<path d="M524.2,111.9h12.4V150c0,4.3-1,8-3.1,11.2c-2,3.2-4.9,5.7-8.5,7.5c-3.6,1.8-7.9,2.7-12.7,2.7c-4.9,0-9.1-0.9-12.8-2.7
		c-3.6-1.8-6.5-4.3-8.5-7.5c-2-3.2-3-7-3-11.2v-38.1h12.4v37c0,2.2,0.5,4.2,1.5,6c1,1.7,2.4,3.1,4.2,4.1c1.8,1,3.9,1.5,6.3,1.5
		c2.4,0,4.5-0.5,6.3-1.5c1.8-1,3.2-2.4,4.2-4.1c1-1.7,1.5-3.7,1.5-6V111.9z"/>
	<path d="M546.8,111.9h15.3l16.2,39.4h0.7l16.2-39.4h15.3v58.7h-12v-38.2h-0.5l-15.2,37.9h-8.2l-15.2-38h-0.5v38.3h-12V111.9z"/>
	<path d="M630.7,170.5h-13.3l20.3-58.7h16l20.2,58.7h-13.3l-14.7-45.3h-0.5L630.7,170.5z M629.9,147.5h31.4v9.7h-31.4V147.5z"/>
	<path d="M730,111.9v58.7h-10.7l-25.5-36.9h-0.4v36.9h-12.4v-58.7h10.9l25.3,36.9h0.5v-36.9H730z"/>
</g>
<g class="st1">
	<path d="M427.8,267.3v-58.7h23.1c4.4,0,8.2,0.8,11.4,2.4c3.1,1.6,5.5,3.8,7.2,6.7s2.5,6.2,2.5,10.1c0,3.9-0.8,7.2-2.5,10
		c-1.7,2.8-4.1,4.9-7.3,6.4c-3.2,1.5-7,2.2-11.5,2.2h-15.5v-10h13.5c2.4,0,4.3-0.3,5.9-1c1.6-0.6,2.7-1.6,3.5-2.9
		c0.8-1.3,1.2-2.9,1.2-4.8c0-1.9-0.4-3.6-1.2-4.9s-1.9-2.4-3.5-3.1s-3.6-1-5.9-1h-8.4v48.5H427.8z M459.5,240.6l14.6,26.7h-13.7
		l-14.3-26.7H459.5z"/>
	<path d="M493.1,208.7v58.7h-12.4v-58.7H493.1z"/>
	<path d="M542.3,227.6c-0.4-1.4-1-2.6-1.7-3.7c-0.7-1.1-1.6-2-2.6-2.8c-1-0.8-2.2-1.3-3.6-1.7c-1.3-0.4-2.8-0.6-4.4-0.6
		c-3,0-5.6,0.7-7.9,2.2c-2.3,1.5-4,3.7-5.3,6.5c-1.3,2.8-1.9,6.3-1.9,10.4s0.6,7.6,1.9,10.4c1.2,2.9,3,5,5.3,6.5
		c2.3,1.5,5,2.2,8,2.2c2.8,0,5.2-0.5,7.2-1.5c2-1,3.5-2.4,4.6-4.3s1.6-4,1.6-6.5l2.5,0.4h-15.1v-9.3h24.6v7.4
		c0,5.2-1.1,9.6-3.3,13.3c-2.2,3.7-5.2,6.5-9,8.5c-3.8,2-8.2,3-13.1,3c-5.5,0-10.3-1.2-14.5-3.7c-4.2-2.4-7.4-5.9-9.7-10.4
		c-2.3-4.5-3.5-9.8-3.5-16c0-4.8,0.7-9,2.1-12.7c1.4-3.7,3.3-6.9,5.8-9.5c2.5-2.6,5.4-4.6,8.7-5.9c3.3-1.4,6.9-2,10.8-2
		c3.3,0,6.4,0.5,9.3,1.4c2.9,1,5.4,2.3,7.6,4.1c2.2,1.8,4,3.8,5.5,6.3c1.4,2.4,2.3,5.1,2.7,8H542.3z"/>
	<path d="M564.7,267.3v-58.7h12.4v24.2h25.2v-24.2h12.4v58.7h-12.4v-24.2h-25.2v24.2H564.7z"/>
	<path d="M622.7,218.9v-10.2h48.2v10.2h-18v48.4h-12.3v-48.4H622.7z"/>
	<path d="M710.6,225.5c-0.2-2.3-1.2-4.1-3-5.4c-1.7-1.3-4.1-1.9-7.1-1.9c-2,0-3.7,0.3-5.1,0.8c-1.4,0.6-2.5,1.3-3.2,2.3
		s-1.1,2.1-1.1,3.4c0,1.1,0.2,2,0.7,2.8c0.5,0.8,1.2,1.5,2,2c0.9,0.6,1.9,1.1,3,1.5c1.1,0.4,2.3,0.8,3.6,1l5.3,1.3
		c2.6,0.6,4.9,1.3,7,2.3s4,2.1,5.6,3.5c1.6,1.4,2.8,3,3.7,4.9s1.3,4.1,1.3,6.5c0,3.6-0.9,6.7-2.7,9.3s-4.4,4.7-7.8,6.1
		c-3.4,1.4-7.5,2.2-12.2,2.2c-4.7,0-8.9-0.7-12.4-2.2s-6.2-3.6-8.2-6.5c-2-2.9-3-6.4-3.1-10.6h12c0.1,2,0.7,3.6,1.7,4.9s2.3,2.3,4,3
		c1.7,0.7,3.6,1,5.7,1c2.1,0,3.9-0.3,5.5-0.9s2.8-1.5,3.6-2.5c0.9-1.1,1.3-2.3,1.3-3.8c0-1.3-0.4-2.4-1.2-3.3
		c-0.8-0.9-1.9-1.7-3.4-2.3c-1.5-0.6-3.3-1.2-5.4-1.7l-6.4-1.6c-4.9-1.2-8.9-3.1-11.7-5.6c-2.9-2.6-4.3-6-4.3-10.3
		c0-3.6,0.9-6.7,2.9-9.3c1.9-2.7,4.6-4.7,7.9-6.2c3.4-1.5,7.2-2.2,11.5-2.2c4.4,0,8.2,0.7,11.4,2.2c3.3,1.5,5.8,3.6,7.6,6.2
		c1.8,2.7,2.8,5.7,2.8,9.2H710.6z"/>
</g>
<g class="st1">
	<path d="M479.6,326H467c-0.2-1.6-0.7-3.1-1.4-4.3c-0.7-1.3-1.6-2.4-2.7-3.3c-1.1-0.9-2.4-1.6-3.8-2.1s-3-0.7-4.7-0.7
		c-3,0-5.7,0.7-7.9,2.2c-2.3,1.5-4,3.7-5.2,6.5c-1.2,2.9-1.9,6.3-1.9,10.4c0,4.2,0.6,7.7,1.9,10.5c1.3,2.8,3,5,5.3,6.4
		s4.9,2.2,7.8,2.2c1.7,0,3.2-0.2,4.6-0.7c1.4-0.4,2.7-1.1,3.8-1.9c1.1-0.8,2-1.9,2.8-3.1c0.7-1.2,1.2-2.6,1.5-4.2l12.5,0.1
		c-0.3,2.7-1.1,5.3-2.4,7.8c-1.3,2.5-3,4.7-5.2,6.7c-2.2,2-4.7,3.5-7.7,4.6c-3,1.1-6.4,1.7-10.1,1.7c-5.2,0-9.9-1.2-14-3.6
		c-4.1-2.4-7.4-5.8-9.7-10.3c-2.4-4.5-3.6-9.9-3.6-16.3c0-6.4,1.2-11.8,3.6-16.3c2.4-4.5,5.7-7.9,9.8-10.3c4.1-2.4,8.8-3.5,13.9-3.5
		c3.4,0,6.6,0.5,9.5,1.4c2.9,1,5.5,2.3,7.7,4.2c2.3,1.8,4.1,4.1,5.5,6.7S479.2,322.6,479.6,326z"/>
	<path d="M488.5,364.1v-58.7h12.4v48.4H526v10.2H488.5z"/>
	<path d="M570.5,305.5h12.4v38.1c0,4.3-1,8-3.1,11.2c-2,3.2-4.9,5.7-8.5,7.5c-3.6,1.8-7.9,2.7-12.7,2.7c-4.9,0-9.1-0.9-12.8-2.7
		c-3.6-1.8-6.5-4.3-8.5-7.5c-2-3.2-3-7-3-11.2v-38.1h12.4v37c0,2.2,0.5,4.2,1.5,6c1,1.7,2.4,3.1,4.2,4.1s3.9,1.5,6.3,1.5
		c2.4,0,4.5-0.5,6.3-1.5s3.2-2.4,4.2-4.1c1-1.7,1.5-3.7,1.5-6V305.5z"/>
	<path d="M593.1,364.1v-58.7h23.5c4.3,0,7.9,0.6,10.8,1.9c2.9,1.3,5.1,3.1,6.5,5.3c1.5,2.3,2.2,4.9,2.2,7.8c0,2.3-0.5,4.3-1.4,6
		c-0.9,1.7-2.2,3.1-3.8,4.2c-1.6,1.1-3.4,1.9-5.5,2.3v0.6c2.2,0.1,4.3,0.7,6.3,1.9c2,1.2,3.5,2.8,4.8,4.9c1.2,2.1,1.8,4.6,1.8,7.5
		c0,3.1-0.8,5.9-2.3,8.3c-1.5,2.4-3.8,4.4-6.8,5.8c-3,1.4-6.7,2.1-11.1,2.1H593.1z M605.5,330h9.2c1.7,0,3.2-0.3,4.5-0.9
		c1.3-0.6,2.4-1.5,3.2-2.6c0.8-1.1,1.2-2.4,1.2-4c0-2.1-0.7-3.8-2.2-5.1c-1.5-1.3-3.6-1.9-6.4-1.9h-9.4V330z M605.5,354h10.1
		c3.5,0,6-0.7,7.6-2s2.4-3.1,2.4-5.3c0-1.6-0.4-3.1-1.2-4.3c-0.8-1.2-1.9-2.2-3.3-2.9c-1.4-0.7-3.2-1.1-5.1-1.1h-10.4V354z"/>
</g>
</svg>
