<?xml version="1.0" encoding="utf-8"?>
<!-- Generator: Adobe Illustrator 25.2.0, SVG Export Plug-In . SVG Version: 6.00 Build 0)  -->
<svg version="1.1" id="Layer_1" xmlns="http://www.w3.org/2000/svg" xmlns:xlink="http://www.w3.org/1999/xlink" x="0px" y="0px"
	 viewBox="0 0 765.9 794.3" style="enable-background:new 0 0 765.9 794.3;" xml:space="preserve">
<style type="text/css">
	.st0{fill:#404041;}
	.st01{fill:#00000;}
	.st1{enable-background:new;}
</style>
<path class="st0" d="M525.8,93.1c2.7-1.1,5.8,0.2,7,2.9c0.5,1.2,0.5,2.5,0.1,3.7C357.3,618.9-23.1,487.1,46.7,243.1
	c49.9-174.8,36.1-184-6.4-190.7c-2.9-0.5-4.9-3.2-4.4-6.1c0.3-1.6,1.2-2.9,2.5-3.7C69.1,24.4,149.6-17,194.4,20.1
	c56,46.5,27.3,198.3,27.3,198.3L525.8,93.1z"/>
<path class="st01" d="M162.2,457.8c-17.4,0.1-34.7-2.5-51.3-7.7C26,423.7-15.9,335.2,11.3,239.9c31-108.4,38.1-155.4,26.5-173.7
	C32,57.1,20.9,54.7,7.1,52.5c-4.3-0.7-7.3-4.8-6.6-9.1c0.4-2.3,1.8-4.4,3.8-5.6c32.5-19.3,113.1-60.1,158.9-22.2
	c23.9,19.8,35.9,59.7,35.6,118.6c-0.3,26-2.5,51.9-6.6,77.5L492,88.2c4.1-1.6,8.8,0.4,10.4,4.5c0.7,1.7,0.8,3.7,0.2,5.5
	c-46.8,138.4-113.2,243.4-191.9,303.7C262.9,438.6,210.9,457.8,162.2,457.8z M115.3,5.3C75.1,5.3,29.4,29.1,7,42.4
	c-1,0.6-1.5,1.7-1.3,2.9c0.2,1.1,1.1,2,2.2,2.1c14.6,2.3,27.3,5.1,34.3,16.1c12.7,19.9,6,66.5-25.9,177.9
	c-26.9,94,12.7,177.8,96.1,203.8c60.2,18.8,131.3,1.5,195.1-47.4C385.4,338,451.1,233.8,497.6,96.4c0.3-1,0.1-2.1-0.7-2.8
	c-0.8-0.7-1.9-0.9-2.9-0.5L185.4,220.2l0.9-4.8c0.3-1.5,27.8-150.9-26.4-195.8C147.3,9.3,131.7,5.3,115.3,5.3z"/>
<g class="st1">
	<path d="M2.4,600.8v-58.7h23.5c4.3,0,7.9,0.6,10.8,1.9c2.9,1.3,5.1,3.1,6.5,5.3c1.5,2.3,2.2,4.9,2.2,7.8c0,2.3-0.5,4.3-1.4,6
		c-0.9,1.7-2.2,3.1-3.8,4.2c-1.6,1.1-3.4,1.9-5.5,2.3v0.6c2.2,0.1,4.3,0.7,6.3,1.9c2,1.2,3.5,2.8,4.8,4.9s1.8,4.6,1.8,7.5
		c0,3.1-0.8,5.9-2.3,8.3c-1.5,2.4-3.8,4.4-6.8,5.8c-3,1.4-6.7,2.1-11.1,2.1H2.4z M14.8,566.7H24c1.7,0,3.2-0.3,4.5-0.9
		c1.3-0.6,2.4-1.5,3.2-2.6c0.8-1.1,1.2-2.4,1.2-4c0-2.1-0.7-3.8-2.2-5.1c-1.5-1.3-3.6-1.9-6.4-1.9h-9.4V566.7z M14.8,590.7h10.1
		c3.5,0,6-0.7,7.6-2c1.6-1.3,2.4-3.1,2.4-5.3c0-1.6-0.4-3.1-1.2-4.3c-0.8-1.2-1.9-2.2-3.3-2.9c-1.4-0.7-3.2-1.1-5.1-1.1H14.8V590.7z
		"/>
	<path d="M65.8,600.8H52.5l20.3-58.7h16l20.2,58.7H95.7L81,555.6h-0.5L65.8,600.8z M65,577.8h31.4v9.7H65V577.8z"/>
	<path d="M116,600.8v-58.7h12.4V568h0.8l21.1-25.9h14.9l-21.8,26.3l22,32.4h-14.8l-16.1-24.1l-6.1,7.4v16.7H116z"/>
	<path d="M207.9,542.2h12.4v38.1c0,4.3-1,8-3.1,11.2c-2,3.2-4.9,5.7-8.5,7.5c-3.6,1.8-7.9,2.7-12.7,2.7c-4.9,0-9.1-0.9-12.8-2.7
		c-3.6-1.8-6.5-4.3-8.5-7.5c-2-3.2-3-7-3-11.2v-38.1H184v37c0,2.2,0.5,4.2,1.5,6c1,1.7,2.4,3.1,4.2,4.1c1.8,1,3.9,1.5,6.3,1.5
		c2.4,0,4.5-0.5,6.3-1.5c1.8-1,3.2-2.4,4.2-4.1c1-1.7,1.5-3.7,1.5-6V542.2z"/>
	<path d="M249.2,600.8v-58.7h12.4v24.2h25.2v-24.2h12.4v58.7h-12.4v-24.2h-25.2v24.2H249.2z"/>
	<path d="M345.6,542.2H358v38.1c0,4.3-1,8-3.1,11.2c-2,3.2-4.9,5.7-8.5,7.5c-3.6,1.8-7.9,2.7-12.7,2.7c-4.9,0-9.1-0.9-12.8-2.7
		c-3.6-1.8-6.5-4.3-8.5-7.5c-2-3.2-3-7-3-11.2v-38.1h12.4v37c0,2.2,0.5,4.2,1.5,6c1,1.7,2.4,3.1,4.2,4.1c1.8,1,3.9,1.5,6.3,1.5
		c2.4,0,4.5-0.5,6.3-1.5c1.8-1,3.2-2.4,4.2-4.1c1-1.7,1.5-3.7,1.5-6V542.2z"/>
	<path d="M368.2,542.2h15.3l16.2,39.4h0.7l16.2-39.4h15.3v58.7h-12v-38.2h-0.5l-15.2,37.9h-8.2l-15.2-38h-0.5v38.3h-12V542.2z"/>
	<path d="M452.1,600.8h-13.3l20.3-58.7h16l20.2,58.7H482l-14.7-45.3h-0.5L452.1,600.8z M451.3,577.8h31.4v9.7h-31.4V577.8z"/>
	<path d="M551.4,542.2v58.7h-10.7l-25.5-36.9h-0.4v36.9h-12.4v-58.7h10.9l25.3,36.9h0.5v-36.9H551.4z"/>
</g>
<g class="st1">
	<path d="M2.4,697.6V639h23.1c4.4,0,8.2,0.8,11.4,2.4c3.1,1.6,5.5,3.8,7.2,6.7c1.7,2.9,2.5,6.2,2.5,10.1c0,3.9-0.8,7.2-2.5,10
		c-1.7,2.8-4.1,4.9-7.3,6.4c-3.2,1.5-7,2.2-11.5,2.2H9.7v-10h13.5c2.4,0,4.3-0.3,5.9-1c1.6-0.6,2.7-1.6,3.5-2.9
		c0.8-1.3,1.2-2.9,1.2-4.8c0-1.9-0.4-3.6-1.2-4.9c-0.8-1.3-1.9-2.4-3.5-3.1s-3.6-1-5.9-1h-8.4v48.5H2.4z M34.1,670.9l14.6,26.7H34.9
		l-14.3-26.7H34.1z"/>
	<path d="M67.7,639v58.7H55.3V639H67.7z"/>
	<path d="M116.8,657.9c-0.4-1.4-1-2.6-1.7-3.7c-0.7-1.1-1.6-2-2.6-2.8c-1-0.8-2.2-1.3-3.6-1.7c-1.3-0.4-2.8-0.6-4.4-0.6
		c-3,0-5.6,0.7-7.9,2.2s-4,3.7-5.3,6.5c-1.3,2.8-1.9,6.3-1.9,10.4c0,4.1,0.6,7.6,1.9,10.4c1.2,2.9,3,5,5.3,6.5c2.3,1.5,5,2.2,8,2.2
		c2.8,0,5.2-0.5,7.2-1.5c2-1,3.5-2.4,4.6-4.3c1.1-1.8,1.6-4,1.6-6.5l2.5,0.4h-15.1v-9.3H130v7.4c0,5.2-1.1,9.6-3.3,13.3
		c-2.2,3.7-5.2,6.5-9,8.5s-8.2,3-13.1,3c-5.5,0-10.3-1.2-14.5-3.7c-4.2-2.4-7.4-5.9-9.7-10.4c-2.3-4.5-3.5-9.8-3.5-16
		c0-4.8,0.7-9,2.1-12.7c1.4-3.7,3.3-6.9,5.8-9.5c2.5-2.6,5.4-4.6,8.7-5.9c3.3-1.4,6.9-2,10.8-2c3.3,0,6.4,0.5,9.3,1.4
		c2.9,1,5.4,2.3,7.6,4.1c2.2,1.8,4,3.8,5.5,6.3c1.4,2.4,2.3,5.1,2.7,8H116.8z"/>
	<path d="M139.3,697.6V639h12.4v24.2h25.2V639h12.4v58.7h-12.4v-24.2h-25.2v24.2H139.3z"/>
	<path d="M197.3,649.2V639h48.2v10.2h-18v48.4h-12.3v-48.4H197.3z"/>
	<path d="M285.2,655.8c-0.2-2.3-1.2-4.1-2.9-5.4c-1.7-1.3-4.1-1.9-7.1-1.9c-2,0-3.7,0.3-5.1,0.8c-1.4,0.6-2.5,1.3-3.2,2.3
		c-0.7,1-1.1,2.1-1.1,3.4c0,1.1,0.2,2,0.7,2.8c0.5,0.8,1.2,1.5,2,2s1.9,1.1,3,1.5c1.1,0.4,2.3,0.8,3.6,1l5.3,1.3
		c2.6,0.6,4.9,1.3,7,2.3c2.1,1,4,2.1,5.6,3.5c1.6,1.4,2.8,3,3.7,4.9s1.3,4.1,1.3,6.5c0,3.6-0.9,6.7-2.7,9.3
		c-1.8,2.6-4.4,4.7-7.8,6.1c-3.4,1.4-7.5,2.2-12.2,2.2c-4.7,0-8.9-0.7-12.4-2.2c-3.5-1.5-6.2-3.6-8.2-6.5c-2-2.9-3-6.4-3.1-10.6h12
		c0.1,2,0.7,3.6,1.7,4.9c1,1.3,2.3,2.3,4,3c1.7,0.7,3.6,1,5.7,1c2.1,0,3.9-0.3,5.5-0.9s2.8-1.5,3.6-2.6s1.3-2.3,1.3-3.8
		c0-1.3-0.4-2.4-1.2-3.3c-0.8-0.9-1.9-1.7-3.4-2.3s-3.3-1.2-5.4-1.7l-6.4-1.6c-4.9-1.2-8.9-3.1-11.7-5.6c-2.9-2.6-4.3-6-4.3-10.3
		c0-3.6,0.9-6.7,2.9-9.3c1.9-2.7,4.6-4.7,7.9-6.2c3.4-1.5,7.2-2.2,11.5-2.2c4.4,0,8.2,0.7,11.4,2.2c3.3,1.5,5.8,3.6,7.6,6.2
		c1.8,2.7,2.8,5.7,2.8,9.2H285.2z"/>
	<path d="M376.7,659.5h-12.5c-0.2-1.6-0.7-3.1-1.4-4.3c-0.7-1.3-1.6-2.4-2.7-3.3s-2.4-1.6-3.8-2.1c-1.4-0.5-3-0.7-4.7-0.7
		c-3,0-5.7,0.8-7.9,2.2c-2.3,1.5-4,3.7-5.2,6.5c-1.2,2.9-1.9,6.3-1.9,10.4c0,4.2,0.6,7.7,1.9,10.5s3,5,5.3,6.4s4.9,2.2,7.8,2.2
		c1.7,0,3.2-0.2,4.6-0.7s2.7-1.1,3.8-1.9c1.1-0.8,2-1.9,2.8-3.1c0.7-1.2,1.2-2.6,1.5-4.2l12.5,0.1c-0.3,2.7-1.1,5.3-2.4,7.8
		s-3,4.7-5.2,6.7c-2.2,2-4.7,3.5-7.7,4.6c-3,1.1-6.4,1.7-10.1,1.7c-5.2,0-9.9-1.2-14-3.6c-4.1-2.4-7.4-5.8-9.7-10.3
		s-3.6-9.9-3.6-16.3c0-6.4,1.2-11.8,3.6-16.3c2.4-4.5,5.7-7.9,9.8-10.3s8.8-3.5,13.9-3.5c3.4,0,6.6,0.5,9.5,1.4s5.5,2.3,7.7,4.2
		s4.1,4.1,5.5,6.7C375.4,653.1,376.3,656.1,376.7,659.5z"/>
	<path d="M385.6,697.6V639H398v48.4h25.2v10.2H385.6z"/>
	<path d="M467.6,639H480v38.1c0,4.3-1,8-3.1,11.2c-2,3.2-4.9,5.7-8.5,7.5c-3.6,1.8-7.9,2.7-12.7,2.7c-4.9,0-9.1-0.9-12.8-2.7
		c-3.6-1.8-6.5-4.3-8.5-7.5c-2-3.2-3-7-3-11.2V639h12.4v37c0,2.2,0.5,4.2,1.5,6s2.4,3.1,4.2,4.1c1.8,1,3.9,1.5,6.3,1.5
		c2.4,0,4.5-0.5,6.3-1.5c1.8-1,3.2-2.4,4.2-4.1c1-1.7,1.5-3.7,1.5-6V639z"/>
	<path d="M490.2,697.6V639h23.5c4.3,0,7.9,0.6,10.8,1.9s5.1,3.1,6.5,5.3c1.5,2.3,2.2,4.9,2.2,7.8c0,2.3-0.5,4.3-1.4,6
		c-0.9,1.7-2.2,3.1-3.8,4.2c-1.6,1.1-3.4,1.9-5.5,2.3v0.6c2.2,0.1,4.3,0.7,6.3,1.9c2,1.2,3.5,2.8,4.8,4.9c1.2,2.1,1.8,4.6,1.8,7.5
		c0,3.1-0.8,5.9-2.3,8.3s-3.8,4.4-6.8,5.8c-3,1.4-6.7,2.1-11.1,2.1H490.2z M502.6,663.5h9.2c1.7,0,3.2-0.3,4.5-0.9
		c1.3-0.6,2.4-1.5,3.2-2.6c0.8-1.1,1.2-2.4,1.2-4c0-2.1-0.8-3.8-2.2-5.1c-1.5-1.3-3.6-1.9-6.4-1.9h-9.4V663.5z M502.6,687.5h10.1
		c3.5,0,6-0.7,7.6-2c1.6-1.3,2.4-3.1,2.4-5.3c0-1.6-0.4-3.1-1.2-4.3c-0.8-1.2-1.9-2.2-3.3-2.9c-1.4-0.7-3.2-1.1-5.1-1.1h-10.4V687.5
		z"/>
</g>
</svg>
