<?xml version="1.0" encoding="utf-8"?>
<!-- Generator: Adobe Illustrator 25.0.0, SVG Export Plug-In . SVG Version: 6.00 Build 0)  -->
<svg version="1.1" id="Layer_1" xmlns="http://www.w3.org/2000/svg" xmlns:xlink="http://www.w3.org/1999/xlink" x="0px" y="0px"
	 viewBox="0 0 597.2 595.3" style="enable-background:new 0 0 597.2 595.3;" xml:space="preserve">
	<style type="text/css">
		.st0{fill:#0062A1;}
		.st1{fill:#FFFFFF;}
		.st2{fill:url(#SVGID_1_);}
		.st3{fill:#F6961E;}
	</style>
	<g>
		<path class="st0" d="M588.8,299.3c0,160.2-129.9,290.1-290.1,290.1S8.7,459.5,8.7,299.3S138.5,9.2,298.7,9.2
			S588.8,139.1,588.8,299.3"/>
		<path class="st1" d="M94.5,425.7l-21.3,12l-5.2-9.2c-1.3-2.4-1.9-4.5-1.7-6.3c0.2-1.8,1.2-3.3,2.9-4.2c1.2-0.7,2.3-0.9,3.4-0.8
			c1.1,0.1,2.1,0.5,3,1.2c0.9,0.7,1.7,1.6,2.3,2.7l-1-0.1c-0.8-1.4-1.2-2.7-1.4-3.9c-0.1-1.2,0.1-2.3,0.6-3.3c0.5-1,1.4-1.9,2.6-2.5
			c1.8-1,3.6-1.1,5.3-0.4c1.7,0.8,3.4,2.5,4.9,5.2L94.5,425.7z M91.4,424.5l-4.2-7.5c-1.1-1.9-2.2-3.1-3.4-3.8
			c-1.2-0.6-2.5-0.6-3.9,0.2c-1.4,0.8-2.1,1.8-2.2,3.2c-0.1,1.4,0.4,3,1.5,4.8l4.4,7.8l-1.9,1l-4-7c-1-1.7-2-2.8-3.2-3.4
			c-1.2-0.6-2.4-0.5-3.7,0.2c-1.3,0.7-2,1.7-2.1,3.1c-0.1,1.3,0.3,2.8,1.3,4.5l3.8,6.8L91.4,424.5z"/>
		<path class="st1" d="M76.6,390.1l-3.7,1.6l-0.6,0.4l-6.2,2.7c-1.4,0.6-2.4,1.5-2.8,2.6c-0.4,1.1-0.3,2.5,0.4,4.1
			c0.5,1.1,1.1,2.1,1.9,2.9c0.8,0.8,1.6,1.5,2.5,1.9l-1.3,1.8c-1.1-0.5-2.1-1.3-3-2.4c-0.9-1-1.7-2.2-2.2-3.5
			c-0.9-2.2-1.1-4.1-0.6-5.8c0.6-1.7,1.9-3,4.2-3.9l10.5-4.5L76.6,390.1z M79.3,395.9c0.5,1.3,0.8,2.5,0.8,3.6c0,1.1-0.3,2.1-0.8,2.9
			c-0.5,0.8-1.3,1.4-2.2,1.8c-0.9,0.4-1.8,0.5-2.7,0.4c-0.9-0.1-1.8-0.5-2.6-1.3c-0.9-0.8-1.6-1.9-2.3-3.5l-2.5-5.8l1.7-0.7l2.5,5.7
			c0.7,1.6,1.5,2.6,2.3,3c0.9,0.4,1.7,0.4,2.6,0c1-0.4,1.6-1.1,1.8-2.1c0.3-1,0.1-2.2-0.5-3.5c-0.6-1.3-1.3-2.3-2.3-2.9
			c-1-0.7-2.1-1-3.4-0.9l1.3-1.2c1.3-0.1,2.5,0.3,3.6,1.1C77.7,393.1,78.6,394.3,79.3,395.9"/>
		<path class="st1" d="M72.6,379.9L48,388l-0.8-2.4l24.6-8.1L72.6,379.9z M67.5,379.5l-3,0.9L51,372.8l-0.9-2.9l9.8,5.3l1.6,1
			L67.5,379.5z M68.2,366.4l-6.7,10.2l-2.3-0.9l8.1-12.2L68.2,366.4z"/>
		<path class="st1" d="M64.3,350.3c0.3,1.5,0.3,2.9,0,4.2c-0.3,1.3-1,2.3-2,3.2c-1,0.9-2.3,1.5-4.1,1.9l-10.4,2.3l-0.5-2.4l10.1-2.2
			c1.9-0.4,3.2-1.2,4-2.4c0.8-1.2,0.9-2.6,0.6-4.3c-0.3-1.2-0.8-2.3-1.5-3.1c-0.7-0.8-1.6-1.3-2.7-1.6c-1.1-0.3-2.3-0.3-3.7,0
			l-9.4,2.1l-0.5-2.4l17.9-4l0.5,2.3l-4.9,1.1l0.8-0.6c1.4,0.3,2.7,0.9,3.7,2C63.2,347.4,63.9,348.7,64.3,350.3"/>
		<path class="st1" d="M33.7,302.5l-0.1-2.6l24.4-1.2l0.1,2.5L33.7,302.5z M58.9,316.6l0.1,2.6l-24.4,1.2l-0.1-2.6L58.9,316.6z
			M46.8,301.6l0.8,15.8l-2.3,0.1l-0.8-15.8L46.8,301.6z"/>
		<path class="st1" d="M58.8,282.1c-0.1,1.6-0.5,2.9-1.1,4c-0.7,1.1-1.6,2-2.8,2.5c-1.2,0.6-2.7,0.8-4.4,0.7l-10.6-0.7l0.2-2.5
			l10.4,0.7c1.9,0.1,3.5-0.3,4.5-1.2c1-0.9,1.6-2.2,1.7-4c0.1-1.3-0.1-2.4-0.6-3.4c-0.5-1-1.2-1.7-2.1-2.3c-1-0.6-2.2-0.9-3.5-1
			l-9.6-0.6l0.2-2.5l18.3,1.2l-0.2,2.4l-5-0.3l0.9-0.3c1.3,0.7,2.3,1.6,3,2.9C58.6,279.1,58.9,280.5,58.8,282.1"/>
		<path class="st1" d="M46.1,238.6c0.3-1.5,0.8-2.7,1.6-3.7c0.8-1,1.8-1.7,3.1-2c1.3-0.4,2.8-0.4,4.5-0.1l10.5,2.1l-0.5,2.4l-10.2-2
			c-1.9-0.4-3.4-0.2-4.6,0.5c-1.1,0.7-1.9,1.9-2.2,3.5c-0.2,1.2-0.2,2.4,0.1,3.4c0.3,1,0.9,1.8,1.8,2.5c0.9,0.7,2,1.2,3.4,1.4
			l9.5,1.9l-0.5,2.4l-10.2-2c-1.9-0.4-3.4-0.2-4.6,0.5c-1.1,0.7-1.9,1.9-2.2,3.6c-0.2,1.2-0.2,2.3,0.1,3.3c0.3,1,0.9,1.9,1.8,2.5
			c0.9,0.7,2,1.2,3.4,1.4l9.5,1.9l-0.5,2.4l-18-3.6l0.5-2.3l4.9,1l-0.9,0.2c-1.2-0.8-2-1.9-2.5-3.3c-0.5-1.4-0.6-2.9-0.3-4.6
			c0.3-1.8,1.1-3.2,2.2-4.2c1.1-1.1,2.6-1.6,4.4-1.6l-0.6,0.9c-1.4-0.8-2.4-2-3-3.5C45.9,242.1,45.8,240.4,46.1,238.6"/>
		<path class="st1" d="M72.1,216l-3.9-1.3l-0.7-0.1l-6.4-2.1c-1.5-0.5-2.8-0.5-3.8,0.1c-1.1,0.6-1.9,1.7-2.4,3.3
			c-0.4,1.1-0.5,2.3-0.5,3.4c0,1.1,0.2,2.2,0.6,3.1l-2.1,0.5c-0.5-1.1-0.7-2.4-0.7-3.8c0-1.4,0.2-2.7,0.7-4.1
			c0.8-2.3,1.9-3.8,3.4-4.7c1.5-0.9,3.4-0.9,5.7-0.1l10.8,3.6L72.1,216z M70.2,222c-0.4,1.3-1,2.4-1.8,3.2c-0.8,0.8-1.6,1.4-2.5,1.6
			c-0.9,0.3-1.9,0.2-2.9-0.1c-0.9-0.3-1.7-0.8-2.3-1.5c-0.6-0.7-1-1.6-1.1-2.7c-0.1-1.1,0.1-2.5,0.6-4.2l2-6l1.8,0.6l-2,5.9
			c-0.6,1.7-0.6,2.9-0.3,3.8c0.4,0.8,1,1.4,1.9,1.7c1,0.3,1.9,0.2,2.8-0.4s1.5-1.6,2-2.9c0.4-1.3,0.5-2.6,0.2-3.7
			c-0.3-1.2-0.9-2.2-1.9-3l1.8,0c1,0.8,1.7,1.9,2,3.2C70.9,218.9,70.8,220.4,70.2,222"/>
		<path class="st1" d="M62.8,189.5c0.6-1.4,1.4-2.4,2.4-3.2c1-0.8,2.1-1.3,3.5-1.4c1.3-0.1,2.8,0.2,4.4,0.9l9.7,4.3l-1,2.3l-9.5-4.2
			c-1.8-0.8-3.3-0.9-4.6-0.5c-1.3,0.5-2.3,1.5-3,3.1c-0.5,1.2-0.8,2.3-0.7,3.4c0.1,1.1,0.5,2.1,1.2,3c0.7,0.9,1.7,1.6,2.9,2.2
			l8.8,3.9l-1,2.3l-16.7-7.5l1-2.2l4.6,2.1l-1,0c-1-1.1-1.5-2.4-1.7-3.8C61.8,192.7,62,191.2,62.8,189.5"/>
		<path class="st1" d="M93.5,170.5L73.1,157l5.1-7.6c1.1-1.7,2.4-3,3.8-3.9c1.4-0.9,2.8-1.3,4.3-1.3c1.5,0,3,0.5,4.4,1.5
			c1.4,0.9,2.5,2.1,3.1,3.5c0.6,1.4,0.8,2.8,0.5,4.5c-0.3,1.6-1,3.3-2.1,5l-4.3,6.4l-0.4-1.6l7.5,4.9L93.5,170.5z M87.7,163.6
			l-1.7,0.3l4.2-6.4c1.4-2,1.9-3.9,1.7-5.5c-0.2-1.7-1.1-3-2.7-4.1c-1.6-1.1-3.2-1.4-4.8-0.9c-1.6,0.5-3.1,1.7-4.4,3.8l-4.2,6.4
			l-0.4-1.6L87.7,163.6z M102.8,156.6L91.9,157l1.5-2.3l10.9-0.4L102.8,156.6z"/>
		<path class="st1" d="M92.1,133.7c-0.3,0.4-0.7,0.6-1.2,0.7c-0.5,0.1-0.9-0.1-1.3-0.4c-0.4-0.3-0.6-0.7-0.7-1.2
			c0-0.5,0.1-0.9,0.4-1.3c0.3-0.4,0.7-0.6,1.2-0.7c0.5-0.1,0.9,0,1.3,0.3c0.4,0.3,0.6,0.7,0.7,1.2C92.6,132.8,92.5,133.3,92.1,133.7
			M108.9,148.5l-14.4-11.3l1.5-1.9l14.4,11.3L108.9,148.5z"/>
		<path class="st1" d="M120.7,133.5c-1.2,1.3-2.5,2.2-4,2.7c-1.5,0.5-3,0.6-4.6,0.3c-1.5-0.3-3-1.1-4.2-2.3c-1.3-1.2-2.1-2.5-2.6-4
			c-0.4-1.5-0.5-3-0.1-4.5c0.4-1.5,1.2-2.9,2.4-4.2c1.1-1.2,2.4-2,3.7-2.5c1.4-0.5,2.8-0.6,4.3-0.2c1.5,0.3,2.9,1.2,4.4,2.5
			s2.3,2.7,2.8,4.1c0.5,1.5,0.5,2.9,0.1,4.3C122.6,131,121.8,132.3,120.7,133.5 M119.3,131.8c0.9-1,1.5-2.1,1.8-3.2
			c0.3-1.2,0.3-2.3-0.1-3.4c-0.3-1.1-1-2.2-2-3.1c-1-0.9-2-1.5-3.2-1.7c-1.1-0.2-2.3-0.2-3.4,0.2c-1.1,0.4-2.2,1.1-3.1,2.1
			c-0.9,1-1.5,2-1.8,3.2c-0.3,1.2-0.3,2.3,0,3.4c0.3,1.1,1,2.1,2,3c1,0.9,2,1.5,3.2,1.7c1.1,0.3,2.3,0.2,3.4-0.2
			C117.4,133.4,118.4,132.8,119.3,131.8 M126.7,138.3c-1.1,1.2-2.4,2.2-3.8,3c-1.4,0.8-2.8,1.2-4.1,1.3l-0.5-2.2
			c1.1-0.1,2.3-0.5,3.5-1.1c1.2-0.6,2.3-1.5,3.2-2.5c1.6-1.7,2.3-3.3,2.3-4.9c-0.1-1.5-0.9-3.1-2.6-4.6l-3.4-3.1l-2.1-2.4l-2.5-2
			l-4.1-3.8l1.6-1.7l11.8,10.9c2.3,2.1,3.5,4.3,3.5,6.4C129.7,133.9,128.7,136.1,126.7,138.3"/>
		<path class="st1" d="M128.9,100.8c1.1-1,2.3-1.6,3.5-1.9c1.2-0.3,2.5-0.2,3.7,0.2c1.2,0.5,2.5,1.4,3.6,2.7l7,8l-1.9,1.6l-6.8-7.9
			c-1.3-1.5-2.6-2.2-4-2.4c-1.4-0.1-2.7,0.4-4,1.6c-1,0.9-1.7,1.8-2.1,2.8c-0.4,1-0.4,2.1-0.2,3.2c0.3,1.1,0.8,2.2,1.8,3.2l6.3,7.3
			l-1.9,1.6l-17-19.6l1.9-1.6l8.3,9.5l-1-0.4c-0.4-1.4-0.4-2.8,0.1-4.2C126.6,103.2,127.6,101.9,128.9,100.8"/>
		<path class="st1" d="M141.5,93.3l-1.2-1.7l9.2-6.7l1.2,1.7L141.5,93.3z M158.2,101.5c-1.4,1-2.7,1.4-4,1.2c-1.3-0.2-2.5-1-3.5-2.4
			l-10.1-13.9l2-1.5l10,13.8c0.6,0.9,1.3,1.4,2.1,1.5c0.8,0.2,1.6-0.1,2.4-0.7c0.9-0.6,1.4-1.4,1.7-2.4l1.8,0.9
			c-0.1,0.6-0.4,1.3-0.9,1.8C159.3,100.6,158.8,101.1,158.2,101.5"/>
		<path class="st1" d="M172.1,92.3c-1.3,0.8-2.6,1.4-4,1.7c-1.4,0.3-2.6,0.4-3.6,0.3l-0.1-2.3c0.9,0.1,2,0,3.2-0.3
			c1.2-0.3,2.4-0.7,3.4-1.4c1.5-0.9,2.4-1.8,2.8-2.7c0.4-0.9,0.3-1.7-0.2-2.5c-0.4-0.6-0.8-0.9-1.4-1c-0.6-0.1-1.2-0.1-1.9,0.1
			c-0.7,0.2-1.5,0.5-2.3,0.8c-0.8,0.3-1.6,0.6-2.4,0.9c-0.8,0.3-1.6,0.5-2.4,0.5c-0.8,0.1-1.5-0.1-2.2-0.4c-0.7-0.3-1.3-0.9-1.9-1.8
			c-0.5-0.9-0.7-1.8-0.7-2.7c0.1-1,0.4-1.9,1.1-2.9c0.7-1,1.7-1.8,3-2.6c1-0.6,2.1-1.1,3.3-1.4c1.2-0.4,2.2-0.5,3.2-0.5l0.1,2.3
			c-1-0.1-1.9,0.1-2.9,0.3c-0.9,0.3-1.8,0.7-2.6,1.1c-1.4,0.9-2.3,1.7-2.7,2.6c-0.4,0.9-0.3,1.7,0.1,2.5c0.4,0.6,0.8,1,1.4,1.1
			c0.6,0.1,1.2,0.1,1.9-0.1c0.7-0.2,1.5-0.4,2.3-0.8c0.8-0.3,1.6-0.6,2.4-0.9c0.8-0.3,1.6-0.5,2.4-0.5c0.8-0.1,1.5,0,2.2,0.3
			c0.7,0.3,1.3,0.9,1.8,1.7c0.6,0.9,0.8,1.9,0.7,2.8c-0.1,1-0.5,1.9-1.3,2.9C174.6,90.5,173.5,91.4,172.1,92.3"/>
		<path class="st1" d="M206.4,75.1c-1.7,0.7-3.4,1.1-5.1,1.1c-1.7,0-3.3-0.3-4.7-0.9c-1.5-0.6-2.8-1.5-4-2.6
			c-1.2-1.2-2.1-2.6-2.8-4.2c-0.7-1.7-1-3.3-1-5c0-1.6,0.3-3.2,1-4.7c0.6-1.5,1.6-2.8,2.8-4c1.2-1.2,2.7-2.1,4.4-2.8
			c1.6-0.7,3.3-1,5-1.1c1.7,0,3.2,0.3,4.7,1l-0.9,2.1c-1.3-0.6-2.6-0.8-3.9-0.8c-1.3,0-2.6,0.3-3.9,0.9c-1.4,0.6-2.5,1.3-3.5,2.3
			c-1,0.9-1.7,2-2.2,3.2c-0.5,1.2-0.8,2.5-0.8,3.8c0,1.3,0.3,2.7,0.8,4c0.6,1.4,1.3,2.5,2.3,3.4c1,0.9,2,1.6,3.2,2.1
			c1.2,0.5,2.5,0.7,3.8,0.7c1.4,0,2.7-0.3,4.1-0.9c1.3-0.5,2.4-1.2,3.3-2.1c0.9-0.9,1.7-2,2.2-3.3l2.1,0.9c-0.5,1.5-1.4,2.8-2.6,4
			C209.5,73.4,208.1,74.4,206.4,75.1"/>
		
			<rect x="217.4" y="43.7" transform="matrix(0.9516 -0.3074 0.3074 0.9516 -6.8267 69.9314)" class="st1" width="2.5" height="25.9"/>
		<path class="st1" d="M239.6,64.4c-1.5,0.4-2.9,0.4-4.2,0.1c-1.3-0.3-2.3-0.9-3.2-1.9c-0.9-1-1.5-2.3-1.9-4l-2.5-10.4l2.4-0.6
			l2.4,10.1c0.5,1.9,1.3,3.2,2.4,4c1.2,0.7,2.6,0.9,4.3,0.5c1.2-0.3,2.3-0.8,3.1-1.5c0.8-0.7,1.3-1.6,1.6-2.7
			c0.3-1.1,0.2-2.3-0.1-3.7l-2.2-9.3l2.4-0.6l4.3,17.8l-2.3,0.6l-1.2-4.9l0.6,0.8c-0.3,1.5-0.9,2.7-1.9,3.7
			C242.5,63.3,241.2,64,239.6,64.4"/>
		<path class="st1" d="M256.8,60.5l-3.3-25.7l2.5-0.3l1.6,12.9l0.1,3.7l0.7,3.6l0.7,5.5L256.8,60.5z M266.2,59.5
			c-1.6,0.2-3.1,0-4.4-0.5c-1.4-0.6-2.5-1.5-3.4-2.8c-0.9-1.3-1.5-2.9-1.8-4.9c-0.3-2-0.1-3.7,0.5-5.2c0.6-1.5,1.5-2.6,2.6-3.5
			c1.2-0.9,2.6-1.4,4.1-1.6c1.7-0.2,3.3,0,4.8,0.6c1.5,0.6,2.7,1.5,3.7,2.8c1,1.3,1.6,2.9,1.8,4.7c0.2,1.8,0,3.5-0.6,5
			c-0.6,1.5-1.6,2.7-2.8,3.7C269.4,58.7,267.9,59.3,266.2,59.5 M265.7,57.3c1.3-0.2,2.4-0.6,3.4-1.3c0.9-0.7,1.6-1.7,2.1-2.8
			c0.5-1.2,0.6-2.4,0.4-3.8c-0.2-1.4-0.6-2.6-1.4-3.6c-0.7-1-1.7-1.7-2.7-2.2c-1.1-0.5-2.3-0.6-3.6-0.4c-1.3,0.2-2.4,0.6-3.4,1.3
			c-1,0.7-1.7,1.7-2.1,2.8c-0.5,1.1-0.6,2.4-0.4,3.9c0.2,1.4,0.6,2.6,1.4,3.6c0.7,1,1.6,1.7,2.7,2.2
			C263.2,57.4,264.4,57.5,265.7,57.3"/>
		<path class="st1" d="M238.7,476.2v-51.3h25.1c6.4,0,11.3,1.2,14.5,3.7c3.2,2.4,4.9,5.7,4.9,9.7c0,2.7-0.7,5-2,7
			c-1.3,2-3.1,3.5-5.5,4.6c-2.3,1.1-5,1.6-7.9,1.6l1.4-3.1c3.2,0,6.1,0.5,8.5,1.6c2.5,1.1,4.4,2.6,5.8,4.7c1.4,2.1,2.1,4.6,2.1,7.5
			c0,4.4-1.7,7.8-5.2,10.3c-3.5,2.5-8.6,3.7-15.3,3.7H238.7z M250.5,467.2h13.9c3,0,5.4-0.5,7-1.5c1.6-1,2.4-2.6,2.4-4.8
			c0-2.2-0.8-3.8-2.4-4.8c-1.6-1-3.9-1.5-7-1.5h-14.8v-8.6h12.7c2.9,0,5.1-0.5,6.6-1.5c1.5-1,2.3-2.5,2.3-4.6c0-2.1-0.8-3.6-2.3-4.5
			c-1.5-1-3.8-1.5-6.6-1.5h-11.8V467.2z"/>
		<path class="st1" d="M312.8,476.2h-11.9v-51.3h11.9V476.2z M336.9,455.1h-25.1v-10h25.1V455.1z M336,424.9h11.9v51.3H336V424.9z"/>
		<path class="st1" d="M242.5,540v-51.3h22.2c4.6,0,8.6,0.7,11.9,2.2c3.3,1.5,5.9,3.6,7.7,6.4c1.8,2.8,2.7,6.1,2.7,9.9
			c0,3.9-0.9,7.2-2.7,9.9c-1.8,2.8-4.4,4.9-7.7,6.3c-3.3,1.4-7.3,2.2-11.9,2.2h-15.7l5.4-5.1V540H242.5z M254.5,521.8l-5.4-5.6h15
			c3.6,0,6.4-0.8,8.2-2.3c1.9-1.6,2.8-3.8,2.8-6.6c0-2.8-0.9-5-2.8-6.6c-1.9-1.5-4.6-2.3-8.2-2.3h-15l5.4-5.6V521.8z M275.2,540
			l-12.9-18.6h12.8L288,540H275.2z"/>
		<path class="st1" d="M327.1,540.9c-4,0-7.6-0.6-11-1.9c-3.4-1.3-6.3-3.1-8.8-5.5c-2.5-2.4-4.4-5.2-5.8-8.4
			c-1.4-3.2-2.1-6.8-2.1-10.6c0-3.9,0.7-7.4,2.1-10.6c1.4-3.2,3.3-6,5.9-8.4c2.5-2.4,5.5-4.2,8.9-5.5c3.4-1.3,7.1-1.9,11-1.9
			c4.4,0,8.5,0.8,12.1,2.3c3.6,1.5,6.6,3.8,9.1,6.8l-7.7,7c-1.7-2-3.7-3.5-5.8-4.5c-2.2-1-4.5-1.5-7.1-1.5c-2.4,0-4.6,0.4-6.6,1.2
			c-2,0.8-3.7,1.9-5.2,3.4c-1.5,1.5-2.6,3.2-3.4,5.2c-0.8,2-1.2,4.2-1.2,6.7c0,2.4,0.4,4.7,1.2,6.7c0.8,2,1.9,3.7,3.4,5.2
			c1.5,1.5,3.2,2.6,5.2,3.4c2,0.8,4.2,1.2,6.6,1.2c2.5,0,4.9-0.5,7.1-1.6c2.2-1.1,4.1-2.6,5.8-4.6l7.7,7c-2.4,3-5.5,5.3-9.1,6.8
			C335.6,540.1,331.6,540.9,327.1,540.9"/>
		<linearGradient id="SVGID_1_" gradientUnits="userSpaceOnUse" x1="194.8134" y1="242.982" x2="399.4427" y2="242.982">
			<stop  offset="0" style="stop-color:#EAEBEC"/>
			<stop  offset="1" style="stop-color:#EAEBEC"/>
			<stop  offset="1" style="stop-color:#000000"/>
		</linearGradient>
		<path class="st2" d="M229.2,312.4c0,0-90.6-41.6,22.3-163.5c0,0-14.1,54.5,19.8,73.3c0,0-30.2-61.7,76.3-136.2
			c0,0-3.8,65.2,38.6,146.9c18.7,36.1,14.9,68.1,4.6,92.7c-16.3,39.1-52.1,66.7-94,73c-14.6,2.2-30.5,1.7-45.9-4.3
			c0,0,72.8-24.8,64.4-69.3c0,0-6.4-20.1,3.7-35.4l9.2-5.4c0,0-11.9-2.7-13.6-7.4c-1.7-4.7-18.1-19.3-41.1-13.1
			C273.6,263.6,240.4,271.6,229.2,312.4z"/>
		<path class="st3" d="M295,398.3c-11.1,0-21.6-1.9-31.3-5.7l-6.8-2.7l7-2.4c0.7-0.2,70.3-24.5,62.7-66.2c-0.7-2.2-6.3-21.9,4.1-37.5
			l0.3-0.5l4.5-2.7c-3.9-1.5-8.3-3.9-9.6-7.3c-1.1-2.9-15.7-17.4-37.9-11.5c-1.4,0.3-31.9,8.2-42.4,46.9l-0.8,3.1l-2.9-1.3
			c-1.2-0.5-28.3-13.3-34.7-45.3c-6.7-33.8,12.2-74.9,56.1-122.4l7.2-7.8l-2.7,10.3c-0.1,0.5-11.3,45.2,12.1,65.8
			c-4.6-19.4-6.3-71.3,79.8-131.6l4.5-3.2l-0.3,5.5c0,0.6-3.2,65.5,38.3,145.5c16.3,31.4,17.9,63.4,4.7,95
			c-16.5,39.6-53.3,68.2-96,74.7C305.5,397.8,300.2,398.3,295,398.3z M272.6,389.9c11.5,3.2,24.1,3.8,37.5,1.8
			c40.9-6.1,76.1-33.5,91.9-71.4c12.5-30.1,11-60.5-4.5-90.5c-35.3-68-38.8-125.4-39-142.9c-98.1,70.8-71.4,129.2-71.1,129.8l3.7,7.6
			l-7.4-4.1c-26.8-14.9-25.4-49.8-23-66.8c-38.1,43.1-54.4,80.3-48.4,110.6c4.7,23.6,22.1,36,28.9,40c12.2-39.1,44-47.1,45.4-47.5
			c24.7-6.6,42.1,9,44.3,14.8c0.7,2,6.6,4.6,11.7,5.7l6.5,1.5l-14.4,8.6c-8.8,14-3.1,32.4-3.1,32.6l0.1,0.3
			C339,358.5,291.2,382.2,272.6,389.9z"/>
	</g>
</svg>
