<?xml version="1.0" encoding="utf-8"?>
<!-- Generator: Adobe Illustrator 25.2.0, SVG Export Plug-In . SVG Version: 6.00 Build 0)  -->
<svg version="1.1" id="Layer_1" xmlns="http://www.w3.org/2000/svg" xmlns:xlink="http://www.w3.org/1999/xlink" x="0px" y="0px"
	 viewBox="0 0 765.9 794.3" style="enable-background:new 0 0 765.9 794.3;" xml:space="preserve">
<style type="text/css">
	.st0{fill:#404041;}
	.st01{fill:#00000;}
	.st1{enable-background:new;}
</style>
<path class="st0" d="M525.5,93.1c2.7-1.1,5.8,0.2,7,2.9c0.5,1.2,0.5,2.5,0.1,3.7C357,618.9-23.3,487.1,46.4,243.1
	C96.3,68.3,82.5,59.1,40,52.4c-2.9-0.5-4.9-3.2-4.4-6.1c0.3-1.6,1.2-2.9,2.5-3.7C68.8,24.4,149.3-17,194.1,20.1
	c56,46.5,27.3,198.3,27.3,198.3L525.5,93.1z"/>
<path class="st01" d="M161.9,457.8c-17.4,0.1-34.7-2.5-51.3-7.7C25.7,423.7-16.2,335.2,11,239.9C42,131.6,49.1,84.5,37.5,66.3
	c-5.9-9.2-16.9-11.6-30.7-13.7c-4.3-0.7-7.3-4.8-6.6-9.1C0.6,41.1,2,39.1,4,37.9c32.5-19.3,113.1-60.1,158.9-22.2
	c23.9,19.8,35.9,59.7,35.6,118.6c-0.3,26-2.5,51.9-6.6,77.5L491.7,88.2c4.1-1.6,8.8,0.4,10.4,4.5c0.7,1.7,0.8,3.7,0.2,5.5
	c-46.8,138.4-113.2,243.4-191.9,303.7C262.6,438.6,210.6,457.8,161.9,457.8z M115,5.3C74.8,5.3,29.1,29.1,6.7,42.4
	c-1,0.6-1.5,1.7-1.3,2.9c0.2,1.1,1.1,2,2.2,2.1c14.6,2.3,27.3,5.1,34.3,16.1c12.7,19.9,6,66.5-25.9,177.9
	c-26.9,94,12.7,177.8,96.1,203.8c60.2,18.8,131.3,1.5,195.1-47.4C385.1,338,450.8,233.8,497.3,96.4c0.3-1,0.1-2.1-0.7-2.8
	c-0.8-0.7-1.9-0.9-2.9-0.5L185.1,220.2l0.9-4.8c0.3-1.5,27.8-150.9-26.4-195.8C147,9.3,131.4,5.3,115,5.3z"/>
<g class="st1">
	<path d="M0.1,600.8v-58.7H39v10.2H12.5v11.5H22c4.6,0,8.6,0.8,12,2.2s6,3.6,7.8,6.3c1.8,2.7,2.8,5.9,2.8,9.7c0,3.7-0.9,6.9-2.8,9.8
		c-1.8,2.8-4.4,5-7.8,6.6c-3.4,1.6-7.4,2.4-12,2.4H0.1z M12.5,590.9H22c2.2,0,4.1-0.4,5.6-1.2c1.5-0.8,2.7-1.9,3.5-3.2
		s1.2-2.8,1.2-4.4c0-2.3-0.9-4.3-2.6-5.9c-1.8-1.6-4.3-2.4-7.6-2.4h-9.5V590.9z"/>
	<path d="M62.7,600.8H49.4l20.3-58.7h16l20.2,58.7H92.6l-14.7-45.3h-0.5L62.7,600.8z M61.9,577.8h31.4v9.7H61.9V577.8z"/>
	<path d="M148.2,600.8l-19.1-25h-3.8v25h-12.4v-58.7h12.4v23.4h2.9l21.5-23.4h16l-25.6,28l23.6,30.7H148.2z"/>
	<path d="M172.2,542.2h12.4V579h0.5l25.4-36.9h10.9v58.7h-12.4v-36.9h-0.4L183,600.8h-10.7V542.2z"/>
	<path d="M231.5,600.8v-58.7h12.4v24.2h25.2v-24.2h12.4v58.7h-12.4v-24.2h-25.2v24.2H231.5z"/>
	<path d="M343.5,562.7h-12.5c-0.2-1.6-0.7-3.1-1.4-4.3c-0.7-1.3-1.6-2.4-2.7-3.3c-1.1-0.9-2.4-1.6-3.8-2.1s-3-0.7-4.7-0.7
		c-3,0-5.7,0.7-7.9,2.2c-2.3,1.5-4,3.7-5.2,6.5c-1.2,2.9-1.9,6.3-1.9,10.4c0,4.2,0.6,7.7,1.9,10.5s3,5,5.3,6.4
		c2.3,1.5,4.9,2.2,7.8,2.2c1.7,0,3.2-0.2,4.6-0.7c1.4-0.4,2.7-1.1,3.8-1.9c1.1-0.8,2-1.9,2.8-3.1c0.7-1.2,1.2-2.6,1.5-4.2l12.5,0.1
		c-0.3,2.7-1.1,5.3-2.4,7.8s-3,4.7-5.2,6.7c-2.2,2-4.7,3.5-7.7,4.6c-3,1.1-6.4,1.7-10.1,1.7c-5.2,0-9.9-1.2-14-3.6
		c-4.1-2.4-7.4-5.8-9.7-10.3c-2.4-4.5-3.6-9.9-3.6-16.3c0-6.4,1.2-11.8,3.6-16.3s5.7-7.9,9.8-10.3c4.1-2.4,8.8-3.5,13.9-3.5
		c3.4,0,6.6,0.5,9.5,1.4c2.9,1,5.5,2.3,7.7,4.2c2.3,1.8,4.1,4.1,5.5,6.7C342.2,556.3,343.1,559.3,343.5,562.7z"/>
	<path d="M387.7,600.8l-19.1-25h-3.8v25h-12.4v-58.7h12.4v23.4h2.9l21.5-23.4h16l-25.6,28l23.6,30.7H387.7z"/>
	<path d="M411.7,542.2h12.4V579h0.5l25.4-36.9h10.9v58.7h-12.4v-36.9h-0.4l-25.5,36.9h-10.7V542.2z"/>
	<path d="M471,542.2h12.4V579h0.5l25.4-36.9h10.9v58.7h-12.4v-36.9h-0.4l-25.5,36.9H471V542.2z M501.2,526.8h8.5
		c0,3.5-1.3,6.3-3.9,8.4c-2.5,2.1-6,3.2-10.3,3.2c-4.4,0-7.8-1.1-10.3-3.2c-2.5-2.1-3.8-4.9-3.8-8.4h8.5c0,1.3,0.4,2.5,1.3,3.6
		c0.9,1.1,2.3,1.6,4.4,1.6c2,0,3.5-0.5,4.4-1.5S501.2,528.2,501.2,526.8z"/>
	<path d="M584.3,600.8l-19.1-25h-3.8v25H549v-58.7h12.4v23.4h2.9l21.5-23.4h16l-25.6,28l23.6,30.7H584.3z"/>
	<path d="M605.1,600.8v-10l1.7-0.1c2.1-0.2,3.9-1,5.2-2.4s2.3-3.8,3-7s1.1-7.5,1.3-13l1-26.1H657v58.7h-12.1v-48.7h-16.2l-0.9,20.4
		c-0.3,6.6-1.1,11.9-2.3,16.1c-1.3,4.2-3.2,7.2-6,9.2s-6.4,3-11.2,3H605.1z"/>
	<path d="M673.5,601.6v-10.1h3.2c1.6,0,2.9-0.2,3.8-0.6c1-0.4,1.8-1,2.3-1.7s1.1-1.7,1.5-2.9l0.7-1.9l-21.3-42.2h12.8l13.8,28.9
		l11.5-28.9h12.7l-20.2,47.2c-1,2.2-2.1,4.2-3.5,6.1c-1.3,1.9-3,3.4-5.1,4.5c-2.1,1.1-4.7,1.7-7.9,1.7H673.5z"/>
	<path d="M721.3,600.8v-58.7h38.9v10.2h-26.5v11.5h9.5c4.6,0,8.6,0.8,12,2.2c3.4,1.5,6,3.6,7.8,6.3c1.8,2.7,2.8,5.9,2.8,9.7
		c0,3.7-0.9,6.9-2.8,9.8c-1.8,2.8-4.4,5-7.8,6.6c-3.4,1.6-7.4,2.4-12,2.4H721.3z M733.8,590.9h9.5c2.2,0,4.1-0.4,5.6-1.2
		s2.7-1.9,3.5-3.2c0.8-1.3,1.2-2.8,1.2-4.4c0-2.3-0.9-4.3-2.7-5.9c-1.8-1.6-4.3-2.4-7.6-2.4h-9.5V590.9z"/>
</g>
<g class="st1">
	<path d="M50,639v58.7H37.7V649H14v48.6H1.7V639H50z"/>
	<path d="M61.8,697.6V639h23.1c4.4,0,8.2,0.8,11.4,2.5c3.1,1.7,5.5,4,7.2,7c1.7,3,2.5,6.4,2.5,10.3c0,3.9-0.8,7.3-2.5,10.3
		c-1.7,3-4.1,5.3-7.3,7c-3.2,1.7-7,2.5-11.5,2.5H69.9v-9.9h12.7c2.4,0,4.4-0.4,5.9-1.2c1.6-0.8,2.7-2,3.5-3.5
		c0.8-1.5,1.2-3.2,1.2-5.1c0-1.9-0.4-3.7-1.2-5.1s-1.9-2.6-3.5-3.4c-1.6-0.8-3.6-1.2-6-1.2h-8.4v48.5H61.8z"/>
	<path d="M117.4,697.6h-13.3l20.3-58.7h16l20.2,58.7h-13.3l-14.7-45.3h-0.5L117.4,697.6z M116.5,674.6h31.4v9.7h-31.4V674.6z"/>
	<path d="M167.6,697.6V639h23.5c4.3,0,7.9,0.6,10.8,1.9c2.9,1.3,5.1,3.1,6.5,5.3c1.5,2.3,2.2,4.9,2.2,7.8c0,2.3-0.5,4.3-1.4,6
		c-0.9,1.7-2.2,3.1-3.8,4.2c-1.6,1.1-3.4,1.9-5.5,2.3v0.6c2.2,0.1,4.3,0.7,6.3,1.9c2,1.2,3.5,2.8,4.8,4.9c1.2,2.1,1.8,4.6,1.8,7.5
		c0,3.1-0.8,5.9-2.3,8.3s-3.8,4.4-6.8,5.8c-3,1.4-6.7,2.1-11.1,2.1H167.6z M180,663.5h9.2c1.7,0,3.2-0.3,4.5-0.9
		c1.3-0.6,2.4-1.5,3.2-2.6c0.8-1.1,1.2-2.4,1.2-4c0-2.1-0.7-3.8-2.2-5.1c-1.5-1.3-3.6-1.9-6.4-1.9H180V663.5z M180,687.5h10.1
		c3.5,0,6-0.7,7.6-2c1.6-1.3,2.4-3.1,2.4-5.3c0-1.6-0.4-3.1-1.2-4.3c-0.8-1.2-1.9-2.2-3.3-2.9c-1.4-0.7-3.2-1.1-5.1-1.1H180V687.5z"
		/>
	<path d="M242,639H254v18.9c0,2.3,0.4,4.1,1.2,5.4c0.8,1.4,2,2.3,3.7,3s3.8,0.9,6.4,0.9c0.9,0,2,0,3.2-0.1c1.2-0.1,2.5-0.2,3.9-0.3
		c1.3-0.1,2.6-0.3,3.8-0.5c1.2-0.2,2.2-0.4,2.9-0.7v9.8c-0.8,0.3-1.8,0.5-3,0.7c-1.2,0.2-2.5,0.4-3.8,0.5c-1.3,0.1-2.6,0.3-3.8,0.3
		s-2.3,0.1-3.2,0.1c-4.7,0-8.8-0.7-12.3-2c-3.5-1.3-6.2-3.4-8.1-6.3s-2.9-6.5-2.9-10.9V639z M276.9,639H289v58.7h-12.1V639z"/>
	<path d="M301.3,697.6V639h39.5v10.2h-27.1v14h25.1v10.2h-25.1v14h27.2v10.2H301.3z"/>
	<path d="M347.5,697.6v-10l1.7-0.1c2.1-0.2,3.9-1,5.2-2.4c1.3-1.5,2.3-3.8,3-7c0.7-3.2,1.1-7.5,1.3-13l1-26.1h39.8v58.7h-12.1v-48.7
		h-16.2l-0.9,20.4c-0.3,6.6-1.1,11.9-2.3,16.1c-1.3,4.2-3.2,7.2-6,9.2c-2.7,2-6.4,3-11.2,3H347.5z"/>
	<path d="M463.5,668.3c0,6.4-1.2,11.8-3.6,16.3s-5.7,7.9-9.9,10.3c-4.2,2.4-8.8,3.5-14,3.5c-5.2,0-9.9-1.2-14-3.6
		c-4.1-2.4-7.4-5.8-9.8-10.3s-3.6-9.9-3.6-16.3c0-6.4,1.2-11.8,3.6-16.3s5.7-7.9,9.8-10.3c4.1-2.4,8.8-3.5,14-3.5
		c5.2,0,9.8,1.2,14,3.5c4.2,2.4,7.4,5.8,9.9,10.3S463.5,661.9,463.5,668.3z M451,668.3c0-4.1-0.6-7.6-1.8-10.5s-3-5-5.2-6.5
		c-2.2-1.5-4.9-2.2-7.8-2.2c-3,0-5.6,0.7-7.8,2.2c-2.2,1.5-4,3.6-5.2,6.5c-1.2,2.8-1.8,6.3-1.8,10.5c0,4.1,0.6,7.6,1.8,10.5
		c1.2,2.8,3,5,5.2,6.5c2.2,1.5,4.9,2.2,7.8,2.2c3,0,5.6-0.7,7.8-2.2c2.2-1.5,4-3.6,5.2-6.5S451,672.4,451,668.3z"/>
	<path d="M472.7,697.6V639h23.5c4.3,0,7.9,0.6,10.8,1.9s5.1,3.1,6.5,5.3c1.5,2.3,2.2,4.9,2.2,7.8c0,2.3-0.5,4.3-1.4,6
		c-0.9,1.7-2.2,3.1-3.8,4.2c-1.6,1.1-3.4,1.9-5.5,2.3v0.6c2.2,0.1,4.3,0.7,6.3,1.9c2,1.2,3.5,2.8,4.8,4.9c1.2,2.1,1.8,4.6,1.8,7.5
		c0,3.1-0.8,5.9-2.3,8.3s-3.8,4.4-6.8,5.8c-3,1.4-6.7,2.1-11.1,2.1H472.7z M485.1,663.5h9.2c1.7,0,3.2-0.3,4.5-0.9
		c1.3-0.6,2.4-1.5,3.2-2.6c0.8-1.1,1.2-2.4,1.2-4c0-2.1-0.8-3.8-2.2-5.1c-1.5-1.3-3.6-1.9-6.4-1.9h-9.4V663.5z M485.1,687.5h10.1
		c3.5,0,6-0.7,7.6-2c1.6-1.3,2.4-3.1,2.4-5.3c0-1.6-0.4-3.1-1.2-4.3c-0.8-1.2-1.9-2.2-3.3-2.9c-1.4-0.7-3.2-1.1-5.1-1.1h-10.4V687.5
		z"/>
	<path d="M526,697.6V639h39.5v10.2h-27.1v14h25.1v10.2h-25.1v14h27.2v10.2H526z"/>
	<path d="M610.7,697.6l-19.1-25h-3.8v25h-12.4V639h12.4v23.4h2.9l21.5-23.4h16l-25.6,28l23.6,30.7H610.7z"/>
	<path d="M644.8,697.6h-13.3l20.3-58.7h16l20.2,58.7h-13.3L660,652.4h-0.5L644.8,697.6z M644,674.6h31.4v9.7H644V674.6z"/>
</g>
</svg>
