<?xml version="1.0" encoding="utf-8"?>
<!-- Generator: Adobe Illustrator 25.2.0, SVG Export Plug-In . SVG Version: 6.00 Build 0)  -->
<svg version="1.1" id="Layer_1" xmlns="http://www.w3.org/2000/svg" xmlns:xlink="http://www.w3.org/1999/xlink" x="0px" y="0px"
	 viewBox="0 0 1000 380" style="enable-background:new 0 0 1000 380;" xml:space="preserve">
<style type="text/css">
	.st0{fill:#404041;}
    .st01{fill: #00000;}
	.st1{enable-background:new;}
</style>
<path class="st0" d="M378.4,89.4c2-0.8,4.2,0.1,5,2.1c0.3,0.8,0.4,1.8,0.1,2.7C257.3,467.2-16,372.5,34.1,197.2
	C69.9,71.6,60,64.9,29.5,60.2c-2.1-0.3-3.5-2.3-3.2-4.4c0.2-1.1,0.9-2.1,1.8-2.7c22-13,79.8-42.8,112-16.1
	c40.3,33.4,19.6,142.5,19.6,142.5L378.4,89.4z"/>
<path class="st01" d="M117.1,351.4c-12.5,0.1-24.9-1.8-36.8-5.4c-61-19-91.1-82.5-71.6-151.1c22.2-77.9,27.4-111.7,19-124.8
	c-4.2-6.6-12.1-8.3-22.1-9.9c-3.1-0.5-5.2-3.4-4.7-6.5c0.3-1.7,1.3-3.2,2.7-4C27,35.9,84.9,6.5,117.8,33.8
	C135,48,143.6,76.6,143.4,119c-0.2,18.7-1.8,37.3-4.7,55.7l215.4-88.8c2.9-1.2,6.3,0.2,7.5,3.1c0.5,1.3,0.6,2.7,0.1,4
	c-33.7,99.4-81.3,174.9-137.9,218.2C189.4,337.6,152.1,351.4,117.1,351.4z M83.4,26.3c-28.8,0-61.7,17.1-77.8,26.7
	c-0.7,0.4-1.1,1.2-0.9,2.1c0.1,0.8,0.8,1.4,1.6,1.5c10.5,1.6,19.6,3.7,24.6,11.5c9.1,14.3,4.3,47.8-18.6,127.9
	C-7,263.5,21.4,323.7,81.3,342.4c43.2,13.5,94.3,1.1,140.2-34.1c56-42.9,103.2-117.8,136.6-216.5c0.3-1.1-0.3-2.2-1.4-2.5
	c-0.4-0.1-0.8-0.1-1.2,0l-221.8,91.4l0.6-3.4c0.2-1.1,20-108.4-19-140.7C106.4,29.2,95.2,26.3,83.4,26.3z"/>
<g class="st1">
	<path d="M426.6,74.7V16h38.9v10.2H439v11.5h9.5c4.6,0,8.6,0.8,12,2.2s6,3.6,7.8,6.3c1.8,2.7,2.8,5.9,2.8,9.7c0,3.7-0.9,6.9-2.8,9.8
		c-1.8,2.8-4.4,5-7.8,6.6c-3.4,1.6-7.4,2.4-12,2.4H426.6z M439,64.7h9.5c2.2,0,4.1-0.4,5.6-1.2c1.5-0.8,2.7-1.9,3.5-3.2
		s1.2-2.8,1.2-4.4c0-2.3-0.9-4.3-2.6-5.9c-1.8-1.6-4.3-2.4-7.6-2.4H439V64.7z"/>
	<path d="M489.2,74.7h-13.3L496.2,16h16l20.2,58.7h-13.3l-14.7-45.3h-0.5L489.2,74.7z M488.4,51.6h31.4v9.7h-31.4V51.6z"/>
	<path d="M574.7,74.7l-19.1-25h-3.8v25h-12.4V16h12.4v23.4h2.9L576.2,16h16l-25.6,28l23.6,30.7H574.7z"/>
	<path d="M598.7,16h12.4v36.9h0.5L636.9,16h10.9v58.7h-12.4V37.7H635l-25.5,36.9h-10.7V16z"/>
	<path d="M658,74.7V16h12.4v24.2h25.2V16H708v58.7h-12.4V50.4h-25.2v24.2H658z"/>
	<path d="M770,36.5h-12.5c-0.2-1.6-0.7-3.1-1.4-4.3c-0.7-1.3-1.6-2.4-2.7-3.3c-1.1-0.9-2.4-1.6-3.8-2.1c-1.4-0.5-3-0.7-4.7-0.7
		c-3,0-5.7,0.7-7.9,2.2c-2.3,1.5-4,3.7-5.2,6.5c-1.2,2.9-1.9,6.3-1.9,10.4c0,4.2,0.6,7.7,1.9,10.5s3,5,5.3,6.4
		c2.3,1.5,4.9,2.2,7.8,2.2c1.7,0,3.2-0.2,4.6-0.7c1.4-0.4,2.7-1.1,3.8-1.9c1.1-0.8,2-1.9,2.8-3.1c0.7-1.2,1.2-2.6,1.5-4.2l12.5,0.1
		c-0.3,2.7-1.1,5.3-2.4,7.8c-1.3,2.5-3,4.7-5.2,6.7c-2.2,2-4.7,3.5-7.7,4.6c-3,1.1-6.4,1.7-10.1,1.7c-5.2,0-9.9-1.2-14-3.6
		c-4.1-2.4-7.4-5.8-9.7-10.3s-3.6-9.9-3.6-16.3c0-6.4,1.2-11.8,3.6-16.3s5.7-7.9,9.8-10.3c4.1-2.4,8.8-3.5,13.9-3.5
		c3.4,0,6.6,0.5,9.5,1.4c2.9,1,5.5,2.3,7.7,4.2c2.3,1.8,4.1,4.1,5.5,6.7S769.6,33.1,770,36.5z"/>
	<path d="M814.2,74.7l-19.1-25h-3.8v25h-12.4V16h12.4v23.4h2.9L815.7,16h16L806,44l23.6,30.7H814.2z"/>
	<path d="M838.2,16h12.4v36.9h0.5L876.4,16h10.9v58.7h-12.4V37.7h-0.4l-25.5,36.9h-10.7V16z"/>
	<path d="M897.5,16h12.4v36.9h0.5L935.7,16h10.9v58.7h-12.4V37.7h-0.4l-25.5,36.9h-10.7V16z M927.7,0.6h8.5c0,3.5-1.3,6.3-3.9,8.4
		c-2.5,2.1-6,3.2-10.3,3.2c-4.4,0-7.8-1.1-10.3-3.2c-2.5-2.1-3.8-4.9-3.8-8.4h8.5c0,1.3,0.4,2.5,1.3,3.6c0.9,1.1,2.3,1.6,4.4,1.6
		c2,0,3.5-0.5,4.4-1.5C927.2,3.2,927.7,2,927.7,0.6z"/>
</g>
<g class="st1">
	<path d="M461.8,171.5l-19.1-25H439v25h-12.4v-58.7H439v23.4h2.9l21.5-23.4h16l-25.6,28l23.6,30.7H461.8z"/>
	<path d="M482.7,171.5v-10l1.7-0.1c2.1-0.2,3.9-1,5.2-2.4s2.3-3.8,3-7s1.1-7.5,1.3-13l1-26.1h39.8v58.7h-12.1v-48.7h-16.2l-0.9,20.4
		c-0.3,6.6-1.1,11.9-2.3,16.1c-1.3,4.2-3.2,7.2-6,9.2c-2.7,2-6.4,3-11.2,3H482.7z"/>
	<path d="M551.1,172.3v-10.1h3.2c1.6,0,2.9-0.2,3.8-0.6c1-0.4,1.8-1,2.3-1.7c0.6-0.8,1.1-1.7,1.5-2.9l0.7-1.9l-21.3-42.2h12.8
		l13.8,28.9l11.5-28.9h12.7L571.9,160c-1,2.2-2.1,4.2-3.5,6.1c-1.3,1.9-3,3.4-5.1,4.5c-2.1,1.1-4.7,1.7-7.9,1.7H551.1z"/>
	<path d="M598.9,171.5v-58.7h38.9V123h-26.5v11.5h9.5c4.6,0,8.6,0.8,12,2.2c3.4,1.5,6,3.6,7.8,6.3c1.8,2.7,2.8,5.9,2.8,9.7
		c0,3.7-0.9,6.9-2.8,9.8c-1.8,2.8-4.4,5-7.8,6.6c-3.4,1.6-7.4,2.4-12,2.4H598.9z M611.3,161.5h9.5c2.2,0,4.1-0.4,5.6-1.2
		c1.5-0.8,2.7-1.9,3.5-3.2c0.8-1.3,1.2-2.8,1.2-4.4c0-2.3-0.9-4.3-2.7-5.9c-1.8-1.6-4.3-2.4-7.6-2.4h-9.5V161.5z"/>
</g>
<g class="st1">
	<path d="M476.4,209.6v58.7h-12.3v-48.6h-23.7v48.6h-12.3v-58.7H476.4z"/>
	<path d="M488.3,268.3v-58.7h23.1c4.5,0,8.2,0.8,11.4,2.5c3.1,1.7,5.5,4,7.2,7c1.7,3,2.5,6.4,2.5,10.3c0,3.9-0.8,7.3-2.5,10.3
		c-1.7,3-4.1,5.3-7.3,7c-3.2,1.7-7,2.5-11.5,2.5h-14.8v-9.9h12.7c2.4,0,4.4-0.4,5.9-1.2c1.6-0.8,2.7-2,3.5-3.5
		c0.8-1.5,1.2-3.2,1.2-5.1c0-1.9-0.4-3.7-1.2-5.1s-1.9-2.6-3.5-3.4c-1.6-0.8-3.6-1.2-6-1.2h-8.4v48.5H488.3z"/>
	<path d="M543.8,268.3h-13.3l20.3-58.7h16l20.2,58.7h-13.3L559,223h-0.5L543.8,268.3z M543,245.2h31.4v9.7H543V245.2z"/>
	<path d="M594.1,268.3v-58.7h23.5c4.3,0,7.9,0.6,10.8,1.9c2.9,1.3,5.1,3.1,6.5,5.3c1.5,2.3,2.2,4.9,2.2,7.8c0,2.3-0.5,4.3-1.4,6
		c-0.9,1.7-2.2,3.1-3.8,4.2c-1.6,1.1-3.4,1.9-5.5,2.3v0.6c2.2,0.1,4.3,0.7,6.3,1.9c2,1.2,3.5,2.8,4.8,4.9c1.2,2.1,1.8,4.6,1.8,7.5
		c0,3.1-0.8,5.9-2.3,8.3c-1.5,2.4-3.8,4.4-6.8,5.8c-3,1.4-6.7,2.1-11.1,2.1H594.1z M606.5,234.2h9.2c1.7,0,3.2-0.3,4.5-0.9
		c1.3-0.6,2.4-1.5,3.2-2.6c0.8-1.1,1.2-2.4,1.2-4c0-2.1-0.8-3.8-2.2-5.1s-3.6-1.9-6.4-1.9h-9.4V234.2z M606.5,258.1h10.1
		c3.5,0,6-0.7,7.6-2c1.6-1.3,2.4-3.1,2.4-5.3c0-1.6-0.4-3.1-1.2-4.3c-0.8-1.2-1.9-2.2-3.3-2.9c-1.4-0.7-3.2-1.1-5.1-1.1h-10.4V258.1
		z"/>
</g>
<g class="st1">
	<path d="M428.9,306.4H441v18.9c0,2.3,0.4,4.1,1.2,5.4c0.8,1.4,2,2.3,3.7,3s3.8,0.9,6.4,0.9c0.9,0,2,0,3.2-0.1
		c1.2-0.1,2.5-0.2,3.9-0.3c1.3-0.1,2.6-0.3,3.8-0.5c1.2-0.2,2.2-0.4,3-0.7v9.8c-0.8,0.3-1.8,0.5-3,0.7c-1.2,0.2-2.4,0.4-3.8,0.5
		c-1.3,0.1-2.6,0.3-3.8,0.3c-1.2,0.1-2.3,0.1-3.2,0.1c-4.7,0-8.8-0.7-12.3-2c-3.5-1.3-6.2-3.4-8.1-6.3c-1.9-2.8-2.9-6.5-2.9-10.9
		V306.4z M463.9,306.4H476v58.7h-12.1V306.4z"/>
	<path d="M488.3,365.1v-58.7h39.5v10.2h-27.1v14h25.1v10.2h-25.1v14h27.2v10.2H488.3z"/>
	<path d="M534.5,365.1v-10l1.7-0.1c2.1-0.2,3.9-1,5.2-2.4c1.3-1.5,2.3-3.8,3-7c0.7-3.2,1.1-7.5,1.3-13l1-26.1h39.8v58.7h-12.1v-48.7
		h-16.2l-0.9,20.4c-0.3,6.6-1.1,11.9-2.3,16.1c-1.3,4.2-3.2,7.2-6,9.2c-2.7,2-6.4,3-11.2,3H534.5z"/>
	<path d="M650.5,335.7c0,6.4-1.2,11.8-3.6,16.3c-2.4,4.5-5.7,7.9-9.9,10.3c-4.2,2.4-8.8,3.5-14,3.5c-5.2,0-9.9-1.2-14-3.6
		s-7.4-5.8-9.8-10.3c-2.4-4.5-3.6-9.9-3.6-16.3c0-6.4,1.2-11.8,3.6-16.3c2.4-4.5,5.7-7.9,9.8-10.3c4.1-2.4,8.8-3.5,14-3.5
		c5.2,0,9.8,1.2,14,3.5c4.2,2.4,7.4,5.8,9.9,10.3S650.5,329.3,650.5,335.7z M637.9,335.7c0-4.1-0.6-7.6-1.8-10.5s-3-5-5.2-6.5
		c-2.2-1.5-4.9-2.2-7.8-2.2s-5.6,0.7-7.8,2.2c-2.2,1.5-4,3.6-5.2,6.5c-1.2,2.8-1.8,6.3-1.8,10.5c0,4.1,0.6,7.6,1.8,10.5
		c1.2,2.8,3,5,5.2,6.5c2.2,1.5,4.9,2.2,7.8,2.2s5.6-0.7,7.8-2.2c2.2-1.5,4-3.6,5.2-6.5S637.9,339.9,637.9,335.7z"/>
	<path d="M659.7,365.1v-58.7h23.5c4.3,0,7.9,0.6,10.8,1.9c2.9,1.3,5.1,3.1,6.5,5.3c1.5,2.3,2.2,4.9,2.2,7.8c0,2.3-0.5,4.3-1.4,6
		c-0.9,1.7-2.2,3.1-3.8,4.2c-1.6,1.1-3.4,1.9-5.5,2.3v0.6c2.2,0.1,4.3,0.7,6.3,1.9c2,1.2,3.5,2.8,4.8,4.9c1.2,2.1,1.8,4.6,1.8,7.5
		c0,3.1-0.8,5.9-2.3,8.3c-1.5,2.4-3.8,4.4-6.8,5.8c-3,1.4-6.7,2.1-11.1,2.1H659.7z M672.1,331h9.2c1.7,0,3.2-0.3,4.5-0.9
		c1.3-0.6,2.4-1.5,3.2-2.6c0.8-1.1,1.2-2.4,1.2-4c0-2.1-0.8-3.8-2.2-5.1s-3.6-1.9-6.4-1.9h-9.4V331z M672.1,354.9h10.1
		c3.5,0,6-0.7,7.6-2c1.6-1.3,2.4-3.1,2.4-5.3c0-1.6-0.4-3.1-1.2-4.3c-0.8-1.2-1.9-2.2-3.3-2.9c-1.4-0.7-3.2-1.1-5.1-1.1h-10.4V354.9
		z"/>
	<path d="M713,365.1v-58.7h39.5v10.2h-27.1v14h25.1v10.2h-25.1v14h27.2v10.2H713z"/>
	<path d="M797.6,365.1l-19.1-25h-3.8v25h-12.4v-58.7h12.4v23.4h2.9l21.5-23.4h16l-25.6,28l23.6,30.7H797.6z"/>
	<path d="M831.8,365.1h-13.3l20.3-58.7h16l20.2,58.7h-13.3L847,319.8h-0.5L831.8,365.1z M831,342h31.4v9.7H831V342z"/>
</g>
</svg>
