<?xml version="1.0" encoding="utf-8"?>
<!-- Generator: Adobe Illustrator 25.2.0, SVG Export Plug-In . SVG Version: 6.00 Build 0)  -->
<svg version="1.1" id="Layer_1" xmlns="http://www.w3.org/2000/svg" xmlns:xlink="http://www.w3.org/1999/xlink" x="0px" y="0px"
	 viewBox="0 0 765.9 794.3" style="enable-background:new 0 0 765.9 794.3;" xml:space="preserve">
<style type="text/css">
	.st0{fill:#404041;}
	.st01{fill:#00000;}
	.st1{enable-background:new;}
</style>
<path class="st0" d="M525.9,93c2.7-1.1,5.8,0.2,7,2.9c0.5,1.2,0.5,2.5,0.1,3.7C357.4,618.8-23,487.1,46.7,243
	c50-174.8,36.1-184-6.3-190.7c-2.9-0.5-4.9-3.2-4.4-6.1c0.3-1.6,1.2-2.9,2.5-3.7C69.2,24.3,149.7-17.1,194.4,20
	c56,46.5,27.3,198.3,27.3,198.3L525.9,93z"/>
<path class="st01" d="M162.2,457.7c-17.4,0.1-34.7-2.5-51.3-7.7C26,423.6-15.8,335.2,11.4,239.8C42.3,131.5,49.5,84.4,37.9,66.2
	C32,57,21,54.6,7.2,52.4c-4.3-0.7-7.3-4.8-6.6-9.1C1,41,2.4,39,4.4,37.8c32.5-19.3,113.1-60.1,158.9-22.2
	c23.9,19.8,35.9,59.7,35.6,118.6c-0.3,26-2.5,51.9-6.6,77.5L492.1,88.1c4.1-1.6,8.8,0.4,10.4,4.5c0.7,1.7,0.8,3.7,0.2,5.5
	c-46.8,138.3-113.2,243.4-191.9,303.7C263,438.5,211,457.7,162.2,457.7z M115.3,5.2C75.2,5.2,29.4,29,7.1,42.3
	c-1,0.6-1.5,1.7-1.3,2.9c0.2,1.1,1.1,2,2.2,2.1c14.6,2.3,27.3,5.1,34.3,16.1c12.7,19.9,6,66.5-25.9,177.9
	c-26.9,94,12.7,177.8,96.1,203.8c60.2,18.8,131.3,1.5,195.1-47.4c77.9-59.8,143.6-164,190.1-301.4c0.3-1,0.1-2.1-0.7-2.8
	c-0.8-0.7-1.9-0.9-2.9-0.5L185.5,220.2l0.9-4.8c0.3-1.5,27.8-150.9-26.4-195.8C147.4,9.2,131.8,5.2,115.3,5.2z"/>
<g class="st1">
	<path d="M10.5,600.7V542H34c4.3,0,7.9,0.6,10.8,1.9c2.9,1.3,5.1,3.1,6.5,5.3c1.5,2.3,2.2,4.9,2.2,7.8c0,2.3-0.5,4.3-1.4,6
		s-2.2,3.1-3.8,4.2c-1.6,1.1-3.4,1.9-5.5,2.3v0.6c2.2,0.1,4.3,0.7,6.3,1.9s3.5,2.8,4.8,4.9s1.8,4.6,1.8,7.5c0,3.1-0.8,5.9-2.3,8.3
		c-1.5,2.4-3.8,4.4-6.8,5.8c-3,1.4-6.7,2.1-11.1,2.1h-25V600.7z M22.9,566.6h9.2c1.7,0,3.2-0.3,4.5-0.9c1.3-0.6,2.4-1.5,3.2-2.6
		s1.2-2.4,1.2-4c0-2.1-0.7-3.8-2.2-5.1s-3.6-1.9-6.4-1.9H23v14.5H22.9z M22.9,590.6H33c3.5,0,6-0.7,7.6-2s2.4-3.1,2.4-5.3
		c0-1.6-0.4-3.1-1.2-4.3s-1.9-2.2-3.3-2.9c-1.4-0.7-3.2-1.1-5.1-1.1H22.9V590.6z"/>
	<path d="M73.9,600.7H60.6L80.9,542h16l20.2,58.7h-13.3l-14.7-45.3h-0.5L73.9,600.7z M73,577.7h31.4v9.7H73V577.7z"/>
	<path d="M124.1,600.7V542h12.4v25.9h0.8l21.1-25.9h14.9l-21.8,26.3l22,32.4h-14.8l-16.1-24.1l-6.1,7.4v16.7L124.1,600.7
		L124.1,600.7z"/>
	<path d="M192.1,542.1v58.7h-12.4v-58.7H192.1z"/>
	<path d="M227.3,536.4c-1.8,0-3.4-0.6-4.7-1.8s-1.9-2.7-1.9-4.4s0.6-3.1,1.9-4.3c1.3-1.2,2.8-1.8,4.6-1.8s3.4,0.6,4.7,1.8
		s1.9,2.7,1.9,4.3c0,1.7-0.6,3.2-1.9,4.4S229.2,536.4,227.3,536.4z M233.5,542.1v58.7h-12.4v-58.7H233.5z"/>
	<path d="M292.8,542.1v58.7h-10.7l-25.6-37h-0.4v36.9h-12.4V542h10.9l25.3,36.9h0.5V542L292.8,542.1L292.8,542.1z"/>
	<path d="M334.8,558.9c-0.2-2.3-1.2-4.1-3-5.4s-4.1-1.9-7.1-1.9c-2,0-3.7,0.3-5.1,0.8c-1.4,0.6-2.5,1.3-3.2,2.3s-1.1,2.1-1.1,3.4
		c0,1.1,0.2,2,0.7,2.8s1.2,1.5,2,2c0.9,0.6,1.9,1.1,3,1.5s2.3,0.8,3.6,1l5.3,1.3c2.6,0.6,4.9,1.3,7,2.3s4,2.1,5.6,3.5s2.8,3,3.7,4.9
		c0.9,1.9,1.3,4.1,1.3,6.5c0,3.6-0.9,6.7-2.7,9.3s-4.4,4.7-7.8,6.1c-3.4,1.4-7.5,2.2-12.2,2.2s-8.9-0.7-12.4-2.2s-6.2-3.6-8.2-6.5
		s-3-6.4-3.1-10.6h12c0.1,2,0.7,3.6,1.7,4.9c1,1.3,2.3,2.3,4,3s3.6,1,5.7,1s3.9-0.3,5.5-0.9c1.6-0.6,2.8-1.5,3.6-2.5
		c0.9-1.1,1.3-2.3,1.3-3.8c0-1.3-0.4-2.4-1.2-3.3c-0.8-0.9-1.9-1.7-3.4-2.3s-3.3-1.2-5.4-1.7l-6.4-1.6c-4.9-1.2-8.9-3.1-11.7-5.6
		s-4.3-6-4.3-10.3c0-3.6,0.9-6.7,2.9-9.3c1.9-2.7,4.6-4.7,7.9-6.2c3.4-1.5,7.2-2.2,11.5-2.2c4.4,0,8.2,0.7,11.4,2.2
		c3.3,1.5,5.8,3.6,7.6,6.2c1.8,2.7,2.8,5.7,2.8,9.2h-11.8V558.9z"/>
	<path d="M364.6,600.7h-13.3l20.3-58.7h16l20.2,58.7h-13.3l-14.7-45.3h-0.5L364.6,600.7z M363.7,577.7h31.4v9.7h-31.4V577.7z"/>
	<path d="M463.8,542.1v58.7h-10.7l-25.5-36.9h-0.4v36.9h-12.4v-58.7h10.9L451,579h0.5v-36.9H463.8z"/>
</g>
<g class="st1">
	<path d="M10.5,697.5v-58.7h12.4V663h25.2v-24.2h12.4v58.7H48v-24.2H22.9v24.2H10.5z"/>
	<path d="M106.9,638.9h12.4V677c0,4.3-1,8-3.1,11.2c-2,3.2-4.9,5.7-8.5,7.5s-7.9,2.7-12.7,2.7c-4.9,0-9.1-0.9-12.8-2.7
		c-3.6-1.8-6.5-4.3-8.5-7.5s-3-7-3-11.2v-38.1h12.4v37c0,2.2,0.5,4.2,1.5,6c1,1.7,2.4,3.1,4.2,4.1c1.8,1,3.9,1.5,6.3,1.5
		s4.5-0.5,6.3-1.5s3.2-2.4,4.2-4.1c1-1.7,1.5-3.7,1.5-6v-37H106.9z M86.2,632.9c-1.6,0-3.1-0.6-4.2-1.7c-1.2-1.2-1.8-2.5-1.8-4.1
		s0.6-3,1.8-4.1c1.2-1.1,2.6-1.7,4.2-1.7c1.7,0,3.1,0.6,4.2,1.7c1.2,1.1,1.7,2.5,1.7,4.1s-0.6,3-1.7,4.1
		C89.3,632.3,87.9,632.9,86.2,632.9z M103.8,632.9c-1.6,0-3.1-0.6-4.2-1.7c-1.2-1.2-1.8-2.5-1.8-4.1s0.6-3,1.8-4.1
		c1.2-1.1,2.6-1.7,4.2-1.7c1.7,0,3.1,0.6,4.2,1.7c1.2,1.1,1.7,2.5,1.7,4.1s-0.6,3-1.7,4.1C106.8,632.3,105.4,632.9,103.8,632.9z"/>
	<path d="M183.4,668.2c0,6.4-1.2,11.8-3.6,16.3c-2.4,4.5-5.7,7.9-9.9,10.3s-8.8,3.5-14,3.5s-9.9-1.2-14-3.6
		c-4.1-2.4-7.4-5.8-9.8-10.3c-2.4-4.5-3.6-9.9-3.6-16.3c0-6.4,1.2-11.8,3.6-16.3s5.7-7.9,9.8-10.3c4.1-2.4,8.8-3.5,14-3.5
		s9.8,1.2,14,3.5s7.4,5.8,9.9,10.3C182.2,656.4,183.4,661.8,183.4,668.2z M170.8,668.2c0-4.1-0.6-7.6-1.8-10.5c-1.2-2.8-3-5-5.2-6.5
		s-4.9-2.2-7.8-2.2c-3,0-5.6,0.7-7.8,2.2s-4,3.6-5.2,6.5s-1.8,6.3-1.8,10.5c0,4.1,0.6,7.6,1.8,10.5s3,5,5.2,6.5s4.9,2.2,7.8,2.2
		c3,0,5.6-0.7,7.8-2.2s4-3.6,5.2-6.5C170.2,675.9,170.8,672.4,170.8,668.2z M151.6,677.2h10.5l5.3,6.8l5.2,6.1l9.8,12.3h-11.6
		l-6.8-8.3l-3.5-4.9L151.6,677.2z"/>
	<path d="M228.9,638.9h12.4V677c0,4.3-1,8-3.1,11.2c-2,3.2-4.9,5.7-8.5,7.5s-7.9,2.7-12.7,2.7c-4.9,0-9.1-0.9-12.8-2.7
		c-3.6-1.8-6.5-4.3-8.5-7.5s-3-7-3-11.2v-38.1h12.4v37c0,2.2,0.5,4.2,1.5,6c1,1.7,2.4,3.1,4.2,4.1s3.9,1.5,6.3,1.5
		c2.4,0,4.5-0.5,6.3-1.5s3.2-2.4,4.2-4.1c1-1.7,1.5-3.7,1.5-6v-37H228.9z"/>
	<path d="M305.4,668.2c0,6.4-1.2,11.8-3.6,16.3s-5.7,7.9-9.9,10.3c-4.2,2.4-8.8,3.5-14,3.5s-9.9-1.2-14-3.6
		c-4.1-2.4-7.4-5.8-9.8-10.3c-2.4-4.5-3.6-9.9-3.6-16.3c0-6.4,1.2-11.8,3.6-16.3s5.7-7.9,9.8-10.3c4.1-2.4,8.8-3.5,14-3.5
		s9.8,1.2,14,3.5c4.2,2.4,7.4,5.8,9.9,10.3S305.4,661.8,305.4,668.2z M292.8,668.2c0-4.1-0.6-7.6-1.8-10.5s-3-5-5.2-6.5
		s-4.9-2.2-7.8-2.2c-3,0-5.6,0.7-7.8,2.2c-2.2,1.5-4,3.6-5.2,6.5s-1.8,6.3-1.8,10.5c0,4.1,0.6,7.6,1.8,10.5s3,5,5.2,6.5
		s4.9,2.2,7.8,2.2c3,0,5.6-0.7,7.8-2.2c2.2-1.5,4-3.6,5.2-6.5S292.8,672.4,292.8,668.2z M273.6,677.2h10.5l5.3,6.8l5.2,6.1l9.8,12.3
		h-11.6l-6.8-8.3l-3.5-4.9L273.6,677.2z"/>
	<path d="M314.6,697.5v-58.7H327v48.4h25.2v10.2L314.6,697.5L314.6,697.5z"/>
	<path d="M371.9,697.5h-13.3l20.3-58.7h16l20.2,58.7h-13.3l-14.7-45.3h-0.5L371.9,697.5z M371.1,674.5h31.4v9.7h-31.4V674.5z"/>
	<path d="M422.2,697.5v-58.7h23.1c4.4,0,8.2,0.8,11.4,2.4c3.1,1.6,5.5,3.8,7.2,6.7s2.5,6.2,2.5,10.1c0,3.9-0.8,7.2-2.5,10
		s-4.1,4.9-7.3,6.4c-3.2,1.5-7,2.2-11.5,2.2h-15.6v-10H443c2.4,0,4.3-0.3,5.9-1c1.6-0.6,2.7-1.6,3.5-2.9c0.8-1.3,1.2-2.9,1.2-4.8
		c0-1.9-0.4-3.6-1.2-4.9c-0.8-1.3-1.9-2.4-3.5-3.1c-1.6-0.7-3.6-1-5.9-1h-8.4v48.5L422.2,697.5L422.2,697.5z M453.9,670.8l14.6,26.7
		h-13.7l-14.3-26.7H453.9z"/>
	<path d="M487.5,638.9v58.7h-12.4v-58.7H487.5z"/>
</g>
<g class="st1">
	<path d="M10.5,794.3v-58.7h12.4v25.9h0.8l21.1-25.9h14.9l-21.8,26.3l22,32.4H45l-16.1-24.1l-6.1,7.4v16.7L10.5,794.3L10.5,794.3z"
		/>
	<path d="M66.1,794.3v-58.7h12.4V784h25.2v10.2L66.1,794.3L66.1,794.3z"/>
	<path d="M148.1,735.7h12.4v38.1c0,4.3-1,8-3.1,11.2c-2,3.2-4.9,5.7-8.5,7.5s-7.9,2.7-12.7,2.7c-4.9,0-9.1-0.9-12.8-2.7
		c-3.6-1.8-6.5-4.3-8.5-7.5s-3-7-3-11.2v-38.1h12.4v37c0,2.2,0.5,4.2,1.5,6c1,1.7,2.4,3.1,4.2,4.1s3.9,1.5,6.3,1.5
		c2.4,0,4.5-0.5,6.3-1.5s3.2-2.4,4.2-4.1c1-1.7,1.5-3.7,1.5-6v-37H148.1z"/>
	<path d="M170.7,794.3v-58.7h23.5c4.3,0,7.9,0.6,10.8,1.9c2.9,1.3,5.1,3.1,6.5,5.3c1.5,2.3,2.2,4.9,2.2,7.8c0,2.3-0.5,4.3-1.4,6
		s-2.2,3.1-3.8,4.2c-1.6,1.1-3.4,1.9-5.5,2.3v0.6c2.2,0.1,4.3,0.7,6.3,1.9s3.5,2.8,4.8,4.9s1.8,4.6,1.8,7.5c0,3.1-0.8,5.9-2.3,8.3
		c-1.5,2.4-3.8,4.4-6.8,5.8c-3,1.4-6.7,2.1-11.1,2.1h-25V794.3z M183.1,760.2h9.2c1.7,0,3.2-0.3,4.5-0.9c1.3-0.6,2.4-1.5,3.2-2.6
		s1.2-2.4,1.2-4c0-2.1-0.7-3.8-2.2-5.1s-3.6-1.9-6.4-1.9h-9.4v14.5H183.1z M183.1,784.2h10.1c3.5,0,6-0.7,7.6-2s2.4-3.1,2.4-5.3
		c0-1.6-0.4-3.1-1.2-4.3s-1.9-2.2-3.3-2.9c-1.4-0.7-3.2-1.1-5.1-1.1h-10.4v15.6H183.1z"/>
	<path d="M260.3,735.7h12.4v38.1c0,4.3-1,8-3.1,11.2c-2,3.2-4.9,5.7-8.5,7.5s-7.9,2.7-12.7,2.7c-4.9,0-9.1-0.9-12.8-2.7
		c-3.6-1.8-6.5-4.3-8.5-7.5s-3-7-3-11.2v-38.1h12.4v37c0,2.2,0.5,4.2,1.5,6c1,1.7,2.4,3.1,4.2,4.1s3.9,1.5,6.3,1.5
		c2.4,0,4.5-0.5,6.3-1.5s3.2-2.4,4.2-4.1c1-1.7,1.5-3.7,1.5-6v-37H260.3z"/>
</g>
</svg>
