<svg xmlns="http://www.w3.org/2000/svg" height="100" viewBox="0 0 512 512" width="100" stroke-linejoin="round"><path d="M255 512l0.2 0 -0.1 0 -0.1 0Zm1.8 0l-0.1 0 0.2 0 -0.1 0Zm-2.6 0l0.2 0 -0.1 0 -0.1 0Zm3.4 0l-0.1 0 0.2 0 -0.1 0Zm-4.2 0l0.2 0 -0.1 0 0 0Zm5 0l-0.1 0 0.2 0 0 0Zm0.8 0l-0.1 0 0.2 0 -0.2 0Zm-6.8 0l0.2 0 -0.1 0 -0.2 0Zm7.6 0l-0.1 0 0.3 0 -0.1 0Zm-8.4 0l0.3 0 -0.1 0 -0.1 0Zm9.2 0l-0.2 0 0.3 0 -0.1 0Zm-10 0l0.3 0 -0.2 0 -0.1 0Zm-0.9 0l0.2 0 0 0 -0.2 0Zm11.7 0l0 0 0.2 0 -0.2 0Zm-12.6 0l0.3 0 -0.1 0 -0.2 0Zm13.4 0l-0.1 0 0.3 0 -0.2 0Zm0.8 0l-0.2 0 0.3 0 -0.1 0Zm-15 0l0.3 0 -0.2 0 -0.1 0Zm-0.7 0l0.2 0 -0.2 0 -0.2 0 0.2 0Zm16.5 0l-0.2 0 0.2 0 0.2 0 -0.2 0Zm0.8 0l-0.1 0 0.3 0 -0.2 0Zm-18.4 0l0.3 0 -0.1 0 -0.2 0Zm-0.7 0l0.4 0 -0.2 0 -0.2 0Zm19.9 0l-0.2 0 0.4 0 -0.2 0Zm-20.7 0l0.4 0 -0.3 0 -0.1 0Zm21.5 0l-0.3 0 0.4 0 -0.1 0Zm-22.5 0l0.4 0 -0.1 0 -0.3 0Zm23.3 0l-0.1 0 0.4 0 -0.3 0Zm-24.1 0l0.4 0 -0.2 0 -0.2 0Zm24.9 0l-0.2 0 0.4 0 -0.2 0Zm-25.6 0l0.4 0 -0.3 0 -0.1 0Zm26.4 0l-0.3 0 0.4 0 -0.1 0Zm0.8 0l-0.4 0 0.3 0 0.4 0 -0.3 0Zm-27.9 0l0.3 0 -0.4 0 -0.3 0 0.4 0Zm28.7 0l-0.2 0 0.4 0 -0.2 0Zm-29.8 0l0.4 0 -0.2 0 -0.2 0Zm-0.7 0l0.4 0 -0.3 0 -0.2 0Zm31.4 0l-0.3 0 0.4 0 -0.2 0Zm-32.1-0.1l0.4 0 -0.3 0 -0.3 0 0.3 0Zm32.9 0l-0.3 0 0.4 0 0.3 0 -0.3 0Zm0.8-0.1l-0.1 0 0.4 0 -0.3 0Zm-34.8 0l0.4 0 -0.1 0 -0.3 0Zm-0.7 0l0.4 0 -0.2 0 -0.2 0Zm36.3 0l-0.2 0 0.4 0 -0.2 0Zm-37-0.1l0.3 0 -0.3 0 -0.1 0Zm37.8 0l-0.3 0 0.3 0 -0.1 0Zm-38.8-0.1l0.3 0 -0.1 0 -0.2 0Zm39.6 0l-0.1 0 0.3 0 -0.2 0Zm0.8-0.1l-0.1 0 0.3 0 -0.2 0Zm-41.2 0l0.3 0 -0.1 0 -0.2 0Zm-0.7-0.1l0.3 0 -0.2 0 -0.1 0Zm42.7 0l-0.2 0 0.3 0 -0.1 0Zm-43.5-0.1l0.1 0 0 0 -0.1 0Zm44.3 0l0 0 0.1 0 -0.1 0Zm0.8-0.1l-0.1 0 0.2 0 -0.1 0Zm-46 0l0.2 0 -0.1 0 -0.1 0Zm-0.7-0.1l0.1 0 -0.1 0 -0.1 0Zm47.5 0l-0.1 0 0.1 0 -0.1 0Zm-63.7-2c-122.3-19.2-216-125.2-216-252.9 0-141.3 114.7-256 256-256 141.3 0 256 114.7 256 256 0 127.7-93.7 233.7-216 252.9l0-178.9 59.7 0 11.4-74 -71 0 0-48c0-20.2 9.9-40 41.7-40l32.3 0 0-63c0 0-29.3-5-57.3-5 -58.5 0-96.7 35.4-96.7 99.6l0 56.4 -65 0 0 74 65 0 0 178.9Z"/></svg>