<svg xmlns="http://www.w3.org/2000/svg" height="100" viewBox="0 0 512 512" width="100" stroke-linejoin="round"><path d="M256 0c141.3 0 256 114.7 256 256 0 141.3-114.7 256-256 256 -141.3 0-256-114.7-256-256 0-141.3 114.7-256 256-256Zm-45.1 392.2c113.3 0 175.2-93.9 175.2-175.2 0-2.7 0-5.4-0.1-7.9 12-8.7 22.5-19.5 30.8-31.9 -11 4.9-22.9 8.2-35.4 9.7 12.8-7.7 22.5-19.7 27.1-34.1 -11.9 7-25 12.1-39.1 14.9 -11.2-12-27.2-19.4-45-19.4 -34 0-61.6 27.6-61.6 61.6 0 4.9 0.5 9.6 1.7 14 -51.2-2.6-96.6-27.1-126.9-64.4 -5.2 9.1-8.3 19.7-8.3 30.9 0 21.3 10.9 40.2 27.5 51.2 -10.1-0.3-19.5-3.1-27.8-7.7l0 0.8c0 29.9 21.2 54.7 49.4 60.4 -5.1 1.4-10.6 2.2-16.2 2.2 -4 0-7.8-0.4-11.6-1.1 7.8 24.5 30.5 42.3 57.5 42.8 -21.1 16.5-47.6 26.3-76.5 26.3 -5 0-9.8-0.3-14.7-0.9 26.9 17.6 59.4 27.8 94.1 27.8Z"/></svg>