<svg xmlns="http://www.w3.org/2000/svg" height="100" viewBox="0 0 512 512" width="100" stroke-linejoin="round"><path d="M256 0c141.3 0 256 114.7 256 256 0 141.3-114.7 256-256 256 -141.3 0-256-114.7-256-256 0-141.3 114.7-256 256-256Zm0 96c-43.5 0-48.9 0.2-66 1 -17 0.8-28.7 3.5-38.8 7.4 -10.5 4.1-19.4 9.6-28.3 18.5 -8.9 8.9-14.4 17.8-18.5 28.3 -4 10.2-6.7 21.8-7.4 38.8 -0.8 17.1-1 22.5-1 66 0 43.5 0.2 48.9 1 66 0.8 17 3.5 28.7 7.4 38.8 4.1 10.5 9.6 19.4 18.5 28.3 8.9 8.9 17.8 14.4 28.3 18.5 10.2 4 21.8 6.7 38.8 7.4 17.1 0.8 22.5 1 66 1 43.5 0 48.9-0.2 66-1 17-0.8 28.7-3.5 38.8-7.4 10.5-4.1 19.4-9.6 28.3-18.5 8.9-8.9 14.4-17.8 18.5-28.3 4-10.2 6.7-21.8 7.4-38.8 0.8-17.1 1-22.5 1-66 0-43.5-0.2-48.9-1-66 -0.8-17-3.5-28.7-7.4-38.8 -4.1-10.5-9.6-19.4-18.5-28.3 -8.9-8.9-17.8-14.4-28.3-18.5 -10.2-4-21.8-6.7-38.8-7.4 -17.1-0.8-22.5-1-66-1Zm0 28.8c42.7 0 47.8 0.2 64.7 0.9 15.6 0.7 24.1 3.3 29.7 5.5 7.5 2.9 12.8 6.4 18.4 12 5.6 5.6 9.1 10.9 12 18.4 2.2 5.6 4.8 14.1 5.5 29.7 0.8 16.9 0.9 21.9 0.9 64.7 0 42.7-0.2 47.8-0.9 64.7 -0.7 15.6-3.3 24.1-5.5 29.7 -2.9 7.5-6.4 12.8-12 18.4 -5.6 5.6-10.9 9.1-18.4 12 -5.6 2.2-14.1 4.8-29.7 5.5 -16.9 0.8-21.9 0.9-64.7 0.9 -42.7 0-47.8-0.2-64.7-0.9 -15.6-0.7-24.1-3.3-29.7-5.5 -7.5-2.9-12.8-6.4-18.4-12 -5.6-5.6-9.1-10.9-12-18.4 -2.2-5.6-4.8-14.1-5.5-29.7 -0.8-16.9-0.9-21.9-0.9-64.7 0-42.7 0.2-47.8 0.9-64.7 0.7-15.6 3.3-24.1 5.5-29.7 2.9-7.5 6.4-12.8 12-18.4 5.6-5.6 10.9-9.1 18.4-12 5.6-2.2 14.1-4.8 29.7-5.5 16.9-0.8 21.9-0.9 64.7-0.9Zm0 49c-45.4 0-82.2 36.8-82.2 82.2 0 45.4 36.8 82.2 82.2 82.2 45.4 0 82.2-36.8 82.2-82.2 0-45.4-36.8-82.2-82.2-82.2Zm0 135.5c-29.5 0-53.3-23.9-53.3-53.3 0-29.5 23.9-53.3 53.3-53.3 29.5 0 53.3 23.9 53.3 53.3 0 29.5-23.9 53.3-53.3 53.3Zm104.6-138.7c0 10.6-8.6 19.2-19.2 19.2 -10.6 0-19.2-8.6-19.2-19.2 0-10.6 8.6-19.2 19.2-19.2 10.6 0 19.2 8.6 19.2 19.2Z"/></svg>