<?xml version="1.0" encoding="utf-8"?>
<!-- Generator: Adobe Illustrator 25.2.0, SVG Export Plug-In . SVG Version: 6.00 Build 0)  -->
<svg version="1.1" id="Layer_1" xmlns="http://www.w3.org/2000/svg" xmlns:xlink="http://www.w3.org/1999/xlink" x="0px" y="0px"
	 viewBox="0 0 750.1 303" style="enable-background:new 0 0 750.1 303;" xml:space="preserve">
<style type="text/css">
	.st0{fill:#93B3F4;}
	.st1{fill:#FC9492;}
	.st2{fill:#0D0D38;}
	.st3{fill:#FDB3B1;}
	.st4{fill:#A83F3F;}
	.st5{fill:#E75755;}
	.st6{fill:#9E332E;}
	.st7{fill:#FA7269;}
	.st8{fill:#ED6966;}
	.st9{fill:#FFFFFF;}
</style>
<g id="Group_149" transform="translate(-238.352 -730.034)">
	<g id="Group_147" transform="matrix(0.809, -0.588, 0.588, 0.809, 216, 788.663)">
		<path id="Path_353" class="st0" d="M64.7,41.4c0,0,23.5,13.1,12.5,31c0,0-8.8,11-18.2,13.8c0,0,5-26.6,0-27.3
			C54,58.3,55.6,89,55.6,89s-24.8,11.9-34.5,11c0,0,15.3-26,10.3-25.4c-5,0.6-22.2,26.9-22.2,26.9s-25.4,4.7-29.4-10.3
			c-4.1-15,2.5-22.5,6.2-23.5c3.8-1,27.9-0.6,27.3-3.8c-0.6-3.1-16.9-8.1-26-5.3c0,0,10-24.8,23.2-23.5c13.1,1.3,17.2,9.4,25.4,10
			c8.1,0.6,14.1-1.6,10-3.8C41.8,39.1,28,40.6,21.4,35s-11.9-9,0.3-11.5s34.2-1,38.5,8.5L64.7,41.4z"/>
		<g id="Group_112" transform="translate(12.859 0)">
			<path id="Path_354" class="st0" d="M-21.5,86.5c0,0,65.8-21.3,73.3-45.1c0,0-0.3-10.7,6.2-22.8v-4.7c0,0-6.9,16-10.7,18.2
				C47.4,32,62.1,52.7-21.5,86.5z"/>
			<path id="Path_355" class="st0" d="M58.1,18.5c0,0,10.1-15.4,4.4-34.2l-2.6,0.7c0,0,2.5,20.6-2.8,31
				C51.7,26.5,58.1,18.5,58.1,18.5z"/>
		</g>
	</g>
	<g id="Group_148" transform="translate(409.044 739.315) rotate(96)">
		<path id="Path_353-2" class="st0" d="M18.2,87.2c0,0-23.5-13.1-12.5-31c0,0,8.8-11,18.2-13.8c0,0-5,26.6,0,27.3
			c5,0.6,3.4-30.1,3.4-30.1s24.8-11.9,34.5-11c0,0-15.3,26-10.3,25.4c5-0.6,22.2-26.9,22.2-26.9s25.4-4.7,29.4,10.3
			c4.1,15-2.5,22.5-6.2,23.5c-3.8,1-27.9,0.6-27.3,3.8c0.6,3.1,16.9,8.1,26,5.3c0,0-10,24.7-23.2,23.5c-13.1-1.3-17.2-9.4-25.4-10
			c-8.2-0.6-14.1,1.6-10,3.8s17.9,0.7,24.4,6.3c6.6,5.6,11.9,9-0.3,11.5c-12.2,2.5-34.2,1-38.5-8.5L18.2,87.2z"/>
		<g id="Group_112-2" transform="translate(3.051 15.733)">
			<path id="Path_354-2" class="st0" d="M88.5,26.4c0,0-65.8,21.3-73.3,45.1c0,0,0.3,10.7-6.2,22.8l0,4.7c0,0,6.9-15.9,10.7-18.2
				C19.5,80.9,4.9,60.2,88.5,26.4z"/>
			<path id="Path_355-2" class="st0" d="M8.9,94.3c0,0-10.1,15.4-4.4,34.2l2.6-0.7c0,0-2.5-20.6,2.8-31C15.3,86.4,8.9,94.3,8.9,94.3
				z"/>
		</g>
	</g>
	<g id="girl_2_5_" transform="translate(779.688 755.567)">
		<path id="Path_433" class="st1" d="M116.5,85.6c0,0-52.8,23-62.4,22.6c-9.6-0.4-68.6-18-68.6-18l1.5,10.2c0,0,45.6,26.2,61.5,27.7
			c15.7,1.5,69.3-14.1,74.5-17.4C128.2,107.4,131.5,88.9,116.5,85.6z"/>
		<path id="Path_434" class="st2" d="M124.4,1c0,0,19.5-3.7,29.2,3.4c17.6,12.8,18.5,57.1,25.1,63.7c6.6,6.6,22.5,3.8,23.9,37.9
			s-6.3,36.9,2.9,52.2c9.2,15.2-3.9,30.5-3.9,30.5s5.4-8.4,3.1-14.5c0,0-2.3,13.4-10.8,16.5s-9.8,5.4-11.1,10
			c0,0-72.6-37.2-72.7-63.6s-14.3-52.5-7.3-63.9c-1.9,3.2-3.1,6.7-3.5,10.3c0,0-4.2-8,3.1-15.5c7.2-7.5-8.5-22.9-6.2-40.8
			C97.8,15,106.4,1.5,124.4,1z"/>
		<path id="Path_435" class="st3" d="M110.1,110.8c5.4,3.6,11.4,6.2,17.8,7.5c27.4,6.3,37.9-16.8,41.8-32.7c-2.9-1.6-6-2.6-9.3-2.8
			c-2-0.2-4.1-0.4-5.8-0.5c-3.1-2.3-7.6-12-8.7-27l-1.3,0.3L123,61.6c0,0,1,6.8,1.5,13.4c0.4,5.1,0.4,9.9-0.5,11.1
			c-1.7,0.3-2.7,0.6-2.7,0.6l0,0C116.8,94.3,113,102.4,110.1,110.8z"/>
		<path id="Path_436" class="st1" d="M123,61.6c0,0,1,6.8,1.5,13.4c12.2-1.2,17.9-12.9,20.1-19.2L123,61.6z"/>
		<path id="Path_437" class="st3" d="M119.4,68.1c0,0,29-1.6,27.7-19.7s1.6-30.4-17-30.1s-21.7,7.4-22.7,13.5
			C106.4,37.9,111.8,68,119.4,68.1z"/>
		<path id="Path_438" class="st2" d="M107.6,21.7c4.1-5.8,7.5-4.8,9.6-3.3c15.2-9.8,26.3,2.3,26.3,2.3c1.9,7.8,6.3,14.7,12.7,19.6
			c0,0-5,3.6-17.5,1.4c-3.8-0.7-7.3-3.1-10.3-6.1c3.6,5,7.9,9.5,12.7,13.4c-15-5.7-22.3-25.5-23-27.6c-1.7,1.7-4.9,5.4-5.7,8.9
			c-1.1,4.7-5.9,12-8.7,11.9C103.6,42.1,101.4,30.3,107.6,21.7z"/>
		<path id="Path_439" class="st4" d="M177.9,169.7c2.6-13.4,11.2-66.9,2.6-84.1c-3.1-6.2-15.1-6.8-28.3-6.2
			c-4.1,2.6-19.8,12.7-26.2,11.4c-0.1,0-0.2-0.1-0.3-0.1c-3-0.7-4.2-2.9-1.7-4.7c-4.9-0.3-9.8,0-14.7,0.9c-4.6,0.9-17,7.2-17,7.2
			s6.2,11.3,15.4,15.1c-1.6,14,0.8,20.2,15.3,52.4c12.2,27.3-1.7,51.9-1.7,51.9s72.1,58,72.5,28.5
			C194.2,219.8,174.5,186.9,177.9,169.7z"/>
		<path id="Path_440" class="st5" d="M117.8,276.7c-3.9-0.4-7.4-2.6-9.6-5.9c-0.3-0.5-0.7-1.1-1.1-1.7
			c-8.2-12.4-11.4-50.5-29.8-91.1c-4.5-9.9-20.6-11.6-25.1-22.8c0,0-10.8-36.2,20.7-37.2s84.5,100.6,85.4,111.3
			C159.1,239.7,179.1,283.6,117.8,276.7z"/>
		<path id="Path_441" class="st6" d="M-7.7,275.9h45c0,0,1.7-7.2-1.3-12c-2.6-4.3-1.6-6.8,0.3-10.3c-2.4,1-5,1.5-7.6,1.4
			c-2.4-0.3-4.7-1.1-6.7-2.3c-2,2.2-10.2,11.6-12.8,13.5C6.3,268.1-6.8,267.3-7.7,275.9z"/>
		<path id="Path_442" class="st6" d="M173.1,99.7c0,0,5.9,53.2-32.1,64.4c-37.9,11.2-48.7-49-18.1-53.3
			C153.6,106.4,173.1,99.7,173.1,99.7z"/>
		<path id="Path_443" class="st5" d="M51.1,128.5c-2.7,20.3-13.3,84.3-31.9,115.6c-6,10.1,15.1,15.7,15.3,15.7
			c2.8-0.7,7.6-5.3,9.7-7.2c15.1-13.7,45.8-52.3,45.8-83.2c0-15.1,0.2-43.9-10.7-51.3C72.6,113.5,52.2,120.5,51.1,128.5z"/>
		<path id="Path_444" class="st7" d="M144.6,275.9c0,0-1.7-2.3-4.6-6.7c-3.5-5.2-7.3-15.6-11.9-28.7c-4.9-13.8-10.7-30.9-17.9-48.7
			c-2.2-5.5-4.6-11-7.1-16.5c-4.5-9.9-16.9-8.5-21.3-19.7c0,0-17.2-38.7,14.4-39.7c31.6-1.1,91.6,103.5,95,113.6
			C195,240.4,213.4,286.5,144.6,275.9z"/>
		<path id="Path_445" class="st4" d="M25.3,275.9h45c0,0,1.7-7.2-1.3-12c-2.6-4.3-1.6-6.8,0.3-10.3c-2.4,1-5,1.5-7.6,1.4
			c-2.4-0.3-4.7-1.1-6.7-2.3c-2,2.2-10.2,11.6-12.8,13.5C39.3,268.1,26.2,267.3,25.3,275.9z"/>
		<path id="Path_446" class="st8" d="M128.1,240.4c-4.9-13.8-10.7-30.9-17.9-48.7c1.9-13.5,6-25.2,12.8-29.9
			C123,161.8,139.7,213.2,128.1,240.4z"/>
		<path id="Path_447" class="st7" d="M77.3,127.1c-2.7,20.3-6.5,85.8-25.1,117c-6,10.1,15.1,15.7,15.3,15.7c2.8-0.7,7.6-5.3,9.7-7.2
			c15.1-13.7,45.8-52.3,45.8-83.2c0-15.1-17.7-42.7-28.7-50.1c-5.1-3.3-12-1.9-15.3,3.2C78.1,123.8,77.5,125.4,77.3,127.1z"/>
		<g id="Group_125" transform="translate(0 59.181)">
			<path id="Path_448" class="st6" d="M-19.9,4.9l46-4.9c1.3-0.1,2.6,0.6,3.1,1.9l16.5,43.3c0.6,1.5-0.2,3.2-1.7,3.8
				c-0.3,0.1-0.6,0.2-1,0.2L-2.6,51c-1.2,0.1-2.4-0.7-2.8-1.8L-22.3,9c-0.7-1.5,0-3.2,1.4-3.9C-20.6,5-20.3,4.9-19.9,4.9z"/>
			<path id="Path_449" class="st4" d="M-24,5.3l46-4.9c1.3-0.1,2.6,0.6,3.1,1.9l16.5,43.3c0.6,1.5-0.2,3.2-1.7,3.8
				c-0.3,0.1-0.6,0.2-1,0.2l-45.7,1.9c-1.2,0.1-2.4-0.7-2.8-1.8L-26.3,9.4c-0.7-1.5,0-3.2,1.4-3.9C-24.6,5.4-24.3,5.3-24,5.3z"/>
			<path id="Path_450" class="st6" d="M1.6,25.5c-0.6-1.6,0.2-2.8,1.8-2.8c1.7,0.1,3.2,1.2,3.8,2.8c0.5,1.6-0.2,2.8-1.8,2.8
				C3.7,28.2,2.2,27.1,1.6,25.5z"/>
			<path id="Path_451" class="st6" d="M-22.6,9.4c-0.2-0.4-0.1-1,0.4-1.3c0.2-0.1,0.3-0.1,0.5-0.1c0.8,0.1,1.6,0.6,1.9,1.4
				c0.3,0.8-0.1,1.4-0.9,1.4C-21.6,10.7-22.3,10.2-22.6,9.4z"/>
		</g>
		<path id="Path_452" class="st3" d="M169.6,85.6c0,0-63.8,23.5-73.4,23c-6.2-0.3-57.7-18.4-57.7-18.4L33.9,99
			c0,0,50.1,32.2,63.9,32c27.2-0.3,73.1-17,78.3-20.3S184.7,88.9,169.6,85.6z"/>
		<path id="Path_453" class="st3" d="M38.6,90.2c0,0-4.6-7.1-9.2-7.3c-4.6-0.2-12.6,3.1-15.3,3.7c-2.7,0.5-10.5,3-8.2,6.8
			s13,4.6,17.6,3.8S33.9,99,33.9,99L38.6,90.2z"/>
		<path id="Path_454" class="st3" d="M30.6,83.1c0,0-7.3-3.4-9.4-4c-2.1-0.6-1.7,0-1,2s4.4,3.9,4.4,4.5
			C24.5,86.3,30.6,83.1,30.6,83.1z"/>
		<path id="Path_455" class="st3" d="M-19.2,86.5c0,0,4.6-7.3,6.1-7.6c4.6-0.9,4.6,5.1,3.6,9.1c-1,4.2-4.6,8.2-5.6,7.8
			C-16,95.4-20.3,90.3-19.2,86.5z"/>
		<path id="Path_456" class="st3" d="M-19.4,87.9c-0.7,5.1,1.8,10,6.3,12.5L-19.4,87.9z"/>
		<path id="Path_457" class="st9" d="M114,57.7c0,0,2.7-1.1,10.5-0.4c0,0-0.4,3-6.1,3.3C116.4,60.6,114.7,59.4,114,57.7z"/>
		<path id="Path_458" class="st4" d="M136.7,97.2c0,0,5.7,18.1,25.3,22.2c0,0,32.3-10,16.2-32C178.3,87.4,162.4,75.5,136.7,97.2z"/>
	</g>
</g>
</svg>
