<?xml version="1.0" encoding="utf-8"?>
<!-- Generator: Adobe Illustrator 25.2.0, SVG Export Plug-In . SVG Version: 6.00 Build 0)  -->
<svg version="1.1" id="Layer_1" xmlns="http://www.w3.org/2000/svg" xmlns:xlink="http://www.w3.org/1999/xlink" x="0px" y="0px"
	 viewBox="0 0 100 100" style="enable-background:new 0 0 100 100;" xml:space="preserve">
<style type="text/css">
	.st0_white{fill:#FFFFFF;}
	.st1_blue{fill:#35469C;}
	.st2_red{fill:#ED2424;}
</style>
<g>
	<path class="st0_white" d="M97.1,33.3H2.8c1-2.9,2.3-5.7,3.8-8.3C15.3,10,31.5,0,50,0s34.7,10,43.3,25C94.8,27.6,96.1,30.4,97.1,33.3z"/>
	<path class="st1_blue" d="M100,50c0,5.8-1,11.5-2.9,16.7H2.8C1,61.5,0,55.8,0,50s1-11.5,2.8-16.7h94.3C99,38.5,100,44.2,100,50z"/>
	<path class="st2_red" d="M97.1,66.7c-1,2.9-2.3,5.7-3.8,8.3c-8.6,15-24.8,25-43.3,25S15.3,90,6.7,75c-1.5-2.6-2.8-5.4-3.8-8.3H97.1z"/>
</g>
</svg>
