<svg xmlns="http://www.w3.org/2000/svg" viewBox="0 0 1034 1034">
    <defs>
        <style>
            .cls-1{fill:#4f1922;}
            .cls-2{fill:#9b9693;}
            .cls-1_dark-red{fill:#b82341;}
            .cls-2_dark-blue{fill:#0c3162;}
            .cls-5{fill:#b82342;}
            .cls-6{fill:#b82442;}
            .cls-7{fill:#0c3262;}</style>
    </defs>
    <g id="Layer_2" data-name="Layer 2">
        <path class="cls-1_dark-red" d="M479.23,3Q519,3,558.73,3c2.13,0,4.26-.41,6.4-.62l20.94,2.17V450.68h443.82a508.72,508.72,0,0,1,.44,129.18h-444v449.58c-7.18.85-13.89,1.8-20.63,2.41a550.27,550.27,0,0,1-82.41,1.29c-4.45-.26-4.06-2.65-4.06-5.55q0-64.5,0-129V580.18H4A508.53,508.53,0,0,1,4.27,451H479c.13-2,.31-3.48.31-4.93V4C479.28,3.7,479.25,3.37,479.23,3Z"/>
        <path class="cls-2_dark-blue" d="M457.87,3.21V378.54L148.05,154.61C234.3,68.81,337.17,18.55,457.87,3.21Z"/>
        <path class="cls-2_dark-blue" d="M457.8,672.74v357.85A510.38,510.38,0,0,1,314.17,992,523.66,523.66,0,0,1,156.49,886.91Z"/>
        <path class="cls-2_dark-blue" d="M607.72,7.85c111.54,20.91,206.33,72,285.5,154.12L607.72,366.85Z"/>
        <path class="cls-2_dark-blue" d="M607.47,1026.29V679.84L886.15,879.42C808.29,957.29,715.77,1006,607.47,1026.29Z"/>
        <path class="cls-1_dark-red" d="M127.26,857.58,81.4,797c12.18-8.62,23.43-16.59,34.69-24.53q111.32-78.51,222.66-157a11.88,11.88,0,0,1,6.28-2.34c37.33-.14,74.67-.1,112-.09.76,0,1.51.08,3.62.21Z"/>
        <path class="cls-1_dark-red" d="M79.71,239.67,122.94,181,459.6,425c-.12.33-.24.66-.37,1h-3.76q-56.24,0-112.46-.09a12.6,12.6,0,0,1-6.85-2.08Q209.82,333.38,83.62,242.74C82.68,242.07,81.8,241.32,79.71,239.67Z"/>
        <path class="cls-1_dark-red" d="M921.42,193.6c12.62,18,24.93,35.52,37.43,53.33-1.8,1.42-2.89,2.36-4.06,3.19Q832.09,336.64,709.3,423.06a16.09,16.09,0,0,1-8.61,2.8c-28.66.2-57.32.12-86,.12h-6.92Z"/>
        <path class="cls-1_dark-red" d="M952.62,797l-36.75,50.23L605.28,613.5c2-.2,3.21-.41,4.39-.41,27.67,0,55.34-.06,83,.07a11.71,11.71,0,0,1,6.38,2Q824.09,704.5,949,794.06C949.91,794.73,950.78,795.5,952.62,797Z"/>
        <path class="cls-2_dark-blue" d="M9.05,613.26H264.29L60.45,759.55A515.21,515.21,0,0,1,9.05,613.26Z"/>
        <path class="cls-2_dark-blue" d="M252.71,425.74H8.15A517.09,517.09,0,0,1,55.33,284.38Z"/>
        <path class="cls-2_dark-blue" d="M782.72,613.33h241.8c.2,22.83-32.1,117.2-48,140Z"/>
        <path class="cls-2_dark-blue" d="M985.39,297.72a516.48,516.48,0,0,1,40.68,128.06H805.25Z"/>
    </g>
</svg>