<?xml version="1.0" encoding="utf-8"?>
<!-- Generator: Adobe Illustrator 25.2.0, SVG Export Plug-In . SVG Version: 6.00 Build 0)  -->
<svg version="1.1" id="Layer_1" xmlns="http://www.w3.org/2000/svg" xmlns:xlink="http://www.w3.org/1999/xlink" x="0px" y="0px"
	 viewBox="0 0 100 100" style="enable-background:new 0 0 100 100.2;" xml:space="preserve">
<style type="text/css">
	.st0_blue{fill:#0398C3;}
	.st1_red{fill:#DE1E39;}
	.st2_green{fill:#00AD65;}
	.st3_white{fill:#FFFFFF;}
</style>
<g>
	<g>
		<path class="st0_blue" d="M97.1,33.4H2.8C9.4,14.8,26.7,1.2,47.4,0.1C48.2,0.1,49.1,0,50,0s1.7,0,2.6,0.1C73.2,1.2,90.6,14.8,97.1,33.4
			z"/>
		<path class="st1_red" d="M100,50.1c0,5.8-1,11.4-2.8,16.6l0,0H2.8l0,0C1,61.5,0,55.9,0,50.1c0-5.8,1-11.4,2.8-16.6l0,0h94.3l0,0
			C99,38.7,100,44.3,100,50.1z"/>
		<path class="st2_green" d="M97.1,66.8C90.5,85.4,73.2,99,52.5,100.1c-0.8,0.1-1.7,0.1-2.6,0.1s-1.7,0-2.6-0.1c-20.7-1-38-14.6-44.6-33.3
			H97.1z"/>
	</g>
	<g>
		<path class="st3_white" d="M59.9,56.9c-2.2,3.5-6.1,5.7-10.5,5.7c-6.9,0-12.5-5.6-12.5-12.5s5.6-12.5,12.5-12.5c4.4,0,8.3,2.3,10.5,5.7
			c-1.9-2.2-4.7-3.6-7.8-3.6c-5.7,0-10.4,4.6-10.4,10.4c0,5.7,4.6,10.4,10.4,10.4C55.2,60.5,58,59.1,59.9,56.9z"/>
		<polygon class="st3_white" points="58.4,49.5 57.6,47.9 59.3,48.6 59.9,46.9 60.5,48.6 62.1,47.8 61.4,49.5 63.1,50.1 61.4,50.7 
			62.2,52.3 60.5,51.6 60,53.3 59.3,51.6 57.7,52.4 58.5,50.7 56.7,50.1 		"/>
	</g>
</g>
</svg>
