<svg xmlns="http://www.w3.org/2000/svg" width="66.267" height="55.844" viewBox="0 0 66.267 55.844">
  <g id="folder" transform="translate(0 -36.827)">
    <path id="Path_492" data-name="Path 492" d="M29.157,41.885V39.478a2.651,2.651,0,0,0-2.651-2.651H2.651A2.651,2.651,0,0,0,0,39.478v15.6H66.267V46.3a2.651,2.651,0,0,0-2.651-2.651H30.925A1.767,1.767,0,0,1,29.157,41.885Z" transform="translate(0)" fill="#f6c358"/>
    <path id="Path_493" data-name="Path 493" d="M62.733,167.412H3.534A3.534,3.534,0,0,1,0,163.877V129.188H29.256a2.651,2.651,0,0,0,1.959-.865l3.257-3.572a2.651,2.651,0,0,1,1.959-.865H66.267v39.99A3.534,3.534,0,0,1,62.733,167.412Z" transform="translate(0 -74.74)" fill="#fcd462"/>
  </g>
</svg>
