<svg id="girl_2_5_" xmlns="http://www.w3.org/2000/svg" width="235.313" height="277.433" viewBox="0 0 235.313 277.433">
  <path id="Path_433" data-name="Path 433" d="M1637.131,1141.6s-52.794,23-62.384,22.6c-9.59-.441-68.647-18.006-68.647-18.006l1.517,10.178s45.6,26.226,61.5,27.693c15.706,1.468,69.332-14.091,74.519-17.37S1652.2,1144.927,1637.131,1141.6Z" transform="translate(-1494.092 -1055.98)" fill="#fc9492"/>
  <path id="Path_434" data-name="Path 434" d="M1760.482,967.583s19.474-3.719,29.211,3.376c17.565,12.819,18.543,57.1,25.1,63.7,6.6,6.605,22.458,3.768,23.877,37.871s-6.312,36.941,2.887,52.207c9.2,15.217-3.915,30.483-3.915,30.483s5.383-8.416,3.083-14.483c0,0-2.251,13.406-10.765,16.538s-9.786,5.431-11.106,10.03c0,0-72.561-37.185-72.659-63.558s-14.287-52.5-7.29-63.949a25.558,25.558,0,0,0-3.474,10.324s-4.208-8.024,3.082-15.462c7.242-7.486-8.513-22.9-6.165-40.806C1733.914,981.577,1742.525,968.122,1760.482,967.583Z" transform="translate(-1609.517 -966.609)" fill="#0d0d38"/>
  <path id="Path_435" data-name="Path 435" d="M1760.8,1135.136a50.4,50.4,0,0,0,17.761,7.535c27.351,6.312,37.871-16.832,41.785-32.684a23.114,23.114,0,0,0-9.3-2.837c-1.957-.245-4.061-.391-5.774-.49-3.082-2.348-7.633-11.988-8.66-26.96l-1.272.342-21.578,5.921s.979,6.85,1.468,13.357c.392,5.089.44,9.932-.538,11.107-1.664.342-2.691.587-2.691.587h0A137.38,137.38,0,0,0,1760.8,1135.136Z" transform="translate(-1624.172 -1024.366)" fill="#fdb3b1"/>
  <path id="Path_436" data-name="Path 436" d="M1787.3,1086.372s.978,6.85,1.468,13.357c12.232-1.223,17.908-12.868,20.109-19.229Z" transform="translate(-1637.705 -1024.775)" fill="#fc9492"/>
  <path id="Path_437" data-name="Path 437" d="M1767.3,1053.706s29.014-1.615,27.742-19.669,1.615-30.385-16.979-30.14-21.675,7.388-22.7,13.5C1754.282,1023.566,1759.713,1053.657,1767.3,1053.706Z" transform="translate(-1621.323 -985.651)" fill="#fdb3b1"/>
  <path id="Path_438" data-name="Path 438" d="M1751.18,1003.413c4.11-5.773,7.535-4.795,9.589-3.327,15.217-9.834,26.324,2.3,26.324,2.3a34.708,34.708,0,0,0,12.721,19.571s-5.04,3.621-17.467,1.37c-3.767-.685-7.291-3.083-10.324-6.116a66.76,66.76,0,0,0,12.672,13.358c-15.02-5.676-22.311-25.492-23.045-27.6-1.663,1.713-4.892,5.431-5.724,8.856-1.125,4.7-5.92,12.036-8.709,11.938C1747.216,1023.817,1745.063,1012.025,1751.18,1003.413Z" transform="translate(-1617.046 -981.743)" fill="#0d0d38"/>
  <path id="Path_439" data-name="Path 439" d="M1810.127,1219.06c2.642-13.406,11.156-66.885,2.642-84.108-3.082-6.165-15.119-6.752-28.33-6.214-4.11,2.642-19.767,12.673-26.177,11.449a2.007,2.007,0,0,1-.342-.1c-3.034-.734-4.159-2.887-1.664-4.7a58.137,58.137,0,0,0-14.678.881c-4.6.881-16.979,7.241-16.979,7.241s6.214,11.254,15.412,15.119c-1.565,13.994.783,20.159,15.266,52.4,12.232,27.3-1.664,51.865-1.664,51.865s72.12,57.98,72.512,28.476C1826.469,1269.163,1806.8,1236.185,1810.127,1219.06Z" transform="translate(-1605.683 -1049.331)" fill="#a83f3f"/>
  <path id="Path_440" data-name="Path 440" d="M1706.2,1366.518a13.43,13.43,0,0,1-9.639-5.871c-.343-.539-.734-1.077-1.126-1.664-8.22-12.428-11.4-50.494-29.846-91.056-4.5-9.884-20.648-11.646-25.051-22.8,0,0-10.814-36.158,20.746-37.235s84.549,100.646,85.38,111.313C1747.492,1329.528,1767.553,1373.417,1706.2,1366.518Z" transform="translate(-1561.837 -1089.831)" fill="#e75755"/>
  <path id="Path_441" data-name="Path 441" d="M1520.1,1506.09h44.965s1.663-7.192-1.272-12.036c-2.594-4.305-1.615-6.752.342-10.324a17.08,17.08,0,0,1-7.583,1.419,15.99,15.99,0,0,1-6.7-2.349c-1.957,2.2-10.226,11.6-12.819,13.456C1534.142,1498.311,1521.03,1497.577,1520.1,1506.09Z" transform="translate(-1501.243 -1230.235)" fill="#9e332e"/>
  <path id="Path_442" data-name="Path 442" d="M1818.774,1170.3s5.871,53.234-32.1,64.39c-37.919,11.156-48.684-48.977-18.055-53.283C1799.251,1177.052,1818.774,1170.3,1818.774,1170.3Z" transform="translate(-1619.076 -1070.637)" fill="#9e332e"/>
  <path id="Path_443" data-name="Path 443" d="M1605.877,1216.789c-2.691,20.306-13.26,84.3-31.9,115.569-6.018,10.08,15.119,15.707,15.266,15.707,2.838-.734,7.584-5.285,9.737-7.242,15.118-13.651,45.846-52.256,45.846-83.228,0-15.119.245-43.938-10.716-51.277C1627.356,1201.817,1606.953,1208.766,1605.877,1216.789Z" transform="translate(-1528.206 -1088.308)" fill="#e75755"/>
  <path id="Path_444" data-name="Path 444" d="M1761.007,1363.337s-1.663-2.3-4.55-6.7c-3.474-5.236-7.291-15.56-11.939-28.722-4.892-13.847-10.666-30.923-17.907-48.684-2.25-5.48-4.6-11.009-7.094-16.538-4.5-9.883-16.88-8.514-21.284-19.669,0,0-17.174-38.7,14.385-39.73,31.56-1.076,91.595,103.484,95.02,113.612C1811.452,1327.913,1829.85,1373.954,1761.007,1363.337Z" transform="translate(-1589.834 -1087.482)" fill="#fa7269"/>
  <path id="Path_445" data-name="Path 445" d="M1587.6,1506.09h44.965s1.664-7.192-1.272-12.036c-2.593-4.305-1.615-6.752.343-10.324a17.082,17.082,0,0,1-7.584,1.419,15.992,15.992,0,0,1-6.7-2.349c-1.957,2.2-10.226,11.6-12.82,13.456C1601.594,1498.311,1588.481,1497.577,1587.6,1506.09Z" transform="translate(-1535.716 -1230.235)" fill="#a83f3f"/>
  <path id="Path_446" data-name="Path 446" d="M1779.007,1375.828c-4.893-13.847-10.666-30.922-17.907-48.683,1.908-13.456,5.969-25.2,12.82-29.945C1773.92,1297.2,1790.555,1348.673,1779.007,1375.828Z" transform="translate(-1624.325 -1135.447)" fill="#ed6966"/>
  <path id="Path_447" data-name="Path 447" d="M1666.524,1216.219c-2.691,20.305-6.507,85.772-25.149,116.988-6.018,10.079,15.119,15.707,15.266,15.707,2.838-.734,7.583-5.284,9.737-7.242,15.119-13.651,45.846-52.256,45.846-83.228,0-15.119-17.712-42.715-28.721-50.054A11.042,11.042,0,0,0,1666.524,1216.219Z" transform="translate(-1562.629 -1089.156)" fill="#fa7269"/>
  <g id="Group_125" data-name="Group 125" transform="translate(0 59.181)">
    <path id="Path_448" data-name="Path 448" d="M1492.372,1092.474l46.042-4.893a2.973,2.973,0,0,1,3.083,1.908l16.489,43.252a2.945,2.945,0,0,1-2.642,4.013l-45.65,1.859a2.941,2.941,0,0,1-2.838-1.81l-16.832-40.219A2.909,2.909,0,0,1,1492.372,1092.474Z" transform="translate(-1485.747 -1087.564)" fill="#9e332e"/>
    <path id="Path_449" data-name="Path 449" d="M1484.172,1093.274l46.042-4.893a2.972,2.972,0,0,1,3.083,1.908l16.489,43.253a2.945,2.945,0,0,1-2.643,4.012l-45.65,1.859a2.941,2.941,0,0,1-2.838-1.811l-16.831-40.219A2.909,2.909,0,0,1,1484.172,1093.274Z" transform="translate(-1481.559 -1087.973)" fill="#a83f3f"/>
    <path id="Path_450" data-name="Path 450" d="M1538.9,1136.789c-.587-1.566.245-2.789,1.761-2.789a4.47,4.47,0,0,1,3.816,2.789c.538,1.565-.245,2.789-1.761,2.789A4.389,4.389,0,0,1,1538.9,1136.789Z" transform="translate(-1510.748 -1111.28)" fill="#9e332e"/>
    <path id="Path_451" data-name="Path 451" d="M1489.6,1105.37a.923.923,0,0,1,.88-1.37,2.124,2.124,0,0,1,1.859,1.37c.294.783-.1,1.37-.881,1.37A2.182,2.182,0,0,1,1489.6,1105.37Z" transform="translate(-1485.615 -1095.958)" fill="#9e332e"/>
  </g>
  <path id="Path_452" data-name="Path 452" d="M1740.879,1141.6s-63.8,23.486-73.393,23c-6.214-.294-57.687-18.4-57.687-18.4l-4.6,8.758s50.1,32.195,63.9,32.048c27.2-.294,73.1-17.028,78.285-20.306S1755.949,1144.927,1740.879,1141.6Z" transform="translate(-1544.704 -1055.98)" fill="#fdb3b1"/>
  <path id="Path_453" data-name="Path 453" d="M1580.144,1143.331s-4.6-7.094-9.247-7.339c-4.6-.2-12.575,3.132-15.266,3.67-2.74.538-10.471,3.034-8.171,6.8s12.967,4.6,17.565,3.767,10.471,1.859,10.471,1.859Z" transform="translate(-1515 -1053.111)" fill="#fdb3b1"/>
  <path id="Path_454" data-name="Path 454" d="M1586.973,1132.116s-7.339-3.376-9.394-3.964c-2.1-.635-1.664,0-1.028,2.006s4.4,3.866,4.4,4.5C1580.906,1135.248,1586.973,1132.116,1586.973,1132.116Z" transform="translate(-1529.804 -1048.991)" fill="#fdb3b1"/>
  <path id="Path_455" data-name="Path 455" d="M1496.421,1135.284s4.6-7.29,6.116-7.584c4.6-.93,4.6,5.137,3.621,9.052-1.027,4.208-4.6,8.171-5.578,7.828C1499.65,1144.19,1495.345,1139.15,1496.421,1135.284Z" transform="translate(-1489.062 -1048.832)" fill="#fdb3b1"/>
  <path id="Path_456" data-name="Path 456" d="M1496.185,1146.3a12.261,12.261,0,0,0,6.312,12.477Z" transform="translate(-1488.973 -1058.38)" fill="#fdb3b1"/>
  <path id="Path_457" data-name="Path 457" d="M1768.8,1083.83s2.739-1.076,10.471-.44c0,0-.392,3.034-6.116,3.327A4.634,4.634,0,0,1,1768.8,1083.83Z" transform="translate(-1628.257 -1026.148)" fill="#fff"/>
  <path id="Path_458" data-name="Path 458" d="M1815.3,1151.666s5.725,18.054,25.3,22.164c0,0,32.342-9.982,16.244-32C1856.89,1141.831,1840.939,1129.99,1815.3,1151.666Z" transform="translate(-1652.005 -1054.449)" fill="#a83f3f"/>
</svg>
