<svg xmlns="http://www.w3.org/2000/svg" width="190.27" height="164.018" viewBox="0 0 190.27 164.018">
  <g id="Group_330" data-name="Group 330" transform="translate(0 -2366)">
    <g id="Group_294" data-name="Group 294" transform="translate(95.506 2395.201) rotate(90)">
      <path id="Path_350" data-name="Path 350" d="M99.964,43.8s18.1-21.075,1.115-34.506c0,0-12.369-7.485-22.508-6.9,0,0,14.333,23.995,9.661,26.384C83.614,31.166,74.218.854,74.218.854S46.029-1.907,36.952,2.5c0,0,24.1,19.748,19.058,20.916C50.913,24.583,24.9,5.207,24.9,5.207S-1.377,9.666.056,25.7C1.437,41.73,10.515,46.667,14.5,46.242s27.233-9.29,27.764-6.051S28.776,54.1,18.955,54.577c0,0,18.527,20.385,30.79,14.545,12.316-5.893,13.324-15.236,21.022-18.739,7.644-3.5,14.227-3.5,11.042.053S64.768,57.5,60.362,65.247s-8.334,13.006,4.406,11.1S98.16,65.141,99.062,54.47Z" transform="translate(0)" fill="#3a49cd"/>
      <g id="Group_110" data-name="Group 110" transform="translate(12.957 25.998)">
        <path id="Path_351" data-name="Path 351" d="M0,.125S71.295-2.635,87.061,17.75c0,0,3.5,10.4,14.174,19.907l1.646,4.565S90.512,29.216,86.106,28.42C86.106,28.473,93.007,3.2,0,.125Z" fill="#3a49cd"/>
        <path id="Path_352" data-name="Path 352" d="M4.019,1.79S19.308,13.1,20.37,33.323l-2.76.265S12.725,12.673,3.913,4.5C-4.953-3.677,4.019,1.79,4.019,1.79Z" transform="translate(97.216 35.92)" fill="#3a49cd"/>
      </g>
    </g>
    <g id="Group_293" data-name="Group 293" transform="translate(190.27 2366) rotate(90)">
      <path id="Path_356" data-name="Path 356" d="M139.094,98.166S177,76.931,159.32,48.106c0,0-14.174-17.677-29.3-22.243,0,0,8.069,43,0,44.008s-5.574-48.521-5.574-48.521S84.522,2.133,68.808,3.673c0,0,24.791,41.938,16.669,40.929C77.408,43.593,49.591,1.125,49.591,1.125S8.662-6.467,2.079,17.794,6.114,54.21,12.166,55.7c6.052,1.54,45.017,1.009,44.008,6.052s-27.286,13.166-41.938,8.6c0,0,16.191,39.921,37.426,37.9S79.478,93.069,92.591,92.061c13.166-1.008,22.774,2.548,16.192,6.052-6.583,3.557-28.826,1.168-39.443,10.193s-19.217,14.6.531,18.633c19.695,4.035,55.1,1.54,62.164-13.643Z" transform="translate(0 0)" fill="#93b3f4"/>
      <g id="Group_114" data-name="Group 114" transform="translate(20.819 25.385)">
        <path id="Path_357" data-name="Path 357" d="M0,0S106.172,34.4,118.329,72.781c0,0-.531,17.2,10.086,36.894v7.592s-11.148-25.8-17.2-29.3C111.215,87.963,134.944,54.625,0,0Z" fill="#3a49cd"/>
        <path id="Path_358" data-name="Path 358" d="M5.065,4.725s16.351,24.844,7.061,55.156L7.932,58.766S12.019,25.429,3.472,8.654C-5.181-8.175,5.065,4.725,5.065,4.725Z" transform="translate(123.35 105.003)" fill="#3a49cd"/>
      </g>
    </g>
  </g>
</svg>
