<svg id="search-24px" xmlns="http://www.w3.org/2000/svg" width="30.128" height="29.159" viewBox="0 0 30.128 29.159">
  <path id="Path_91" data-name="Path 91" d="M0,0H30.128V29.159H0Z" fill="none"/>
  <path id="Path_92" data-name="Path 92" d="M24.117,20.973H22.782l-.473-.441a10.373,10.373,0,0,0,2.652-6.912A10.8,10.8,0,0,0,13.981,3,10.8,10.8,0,0,0,3,13.621,10.8,10.8,0,0,0,13.981,24.241a11.152,11.152,0,0,0,7.146-2.565l.456.458v1.291l8.447,8.153,2.517-2.435Zm-10.136,0a7.47,7.47,0,0,1-7.6-7.353,7.47,7.47,0,0,1,7.6-7.353,7.47,7.47,0,0,1,7.6,7.353A7.47,7.47,0,0,1,13.981,20.973Z" transform="translate(-2.732 -2.732)" fill="#f2623c"/>
</svg>
