<svg xmlns="http://www.w3.org/2000/svg" width="167.198" height="172.06" viewBox="0 0 167.198 172.06">
  <g id="Group_331" data-name="Group 331" transform="translate(15.664 -204.32)">
    <g id="Group_144" data-name="Group 144" transform="matrix(0.309, 0.951, -0.951, 0.309, 43.926, 250.907)">
      <path id="Path_350" data-name="Path 350" d="M1264.426,1271.356s14.781-17.208.91-28.175c0,0-10.1-6.112-18.379-5.635,0,0,11.7,19.592,7.889,21.543-3.771,1.95-11.443-22.8-11.443-22.8s-23.017-2.254-30.429,1.344c0,0,19.679,16.125,15.561,17.078-4.161.954-25.4-14.868-25.4-14.868s-21.456,3.641-20.286,16.732c1.127,13.09,8.539,17.122,11.791,16.775s22.236-7.585,22.67-4.941-11.01,11.356-19.029,11.747c0,0,15.128,16.645,25.141,11.877,10.057-4.811,10.88-12.44,17.165-15.3,6.242-2.861,11.617-2.861,9.016.043s-13.914,5.765-17.512,12.094-6.805,10.62,3.6,9.059,27.265-9.146,28-17.859Z" transform="translate(-1182.802 -1235.591)" fill="#3a49cd"/>
      <g id="Group_110" data-name="Group 110" transform="translate(10.58 21.228)">
        <path id="Path_351" data-name="Path 351" d="M1168.7,1284.666s58.214-2.254,71.088,14.391a42.469,42.469,0,0,0,11.573,16.255l1.344,3.727s-10.1-10.62-13.7-11.27C1239.008,1307.813,1244.643,1287.18,1168.7,1284.666Z" transform="translate(-1168.7 -1284.564)" fill="#3a49cd"/>
        <path id="Path_352" data-name="Path 352" d="M1144.282,1353.69s12.484,9.233,13.351,25.748l-2.254.217s-3.988-17.078-11.183-23.754C1136.956,1349.225,1144.282,1353.69,1144.282,1353.69Z" transform="translate(-1061.621 -1322.898)" fill="#3a49cd"/>
      </g>
    </g>
    <g id="Group_143" data-name="Group 143" transform="matrix(0.309, 0.951, -0.951, 0.309, 110.148, 204.32)">
      <path id="Path_356" data-name="Path 356" d="M1232.324,1121.436s30.949-17.339,16.515-40.875c0,0-11.574-14.434-23.927-18.162,0,0,6.589,35.111,0,35.934s-4.551-39.619-4.551-39.619-32.6-15.691-45.427-14.434c0,0,20.243,34.244,13.611,33.42-6.588-.823-29.3-35.5-29.3-35.5s-33.42-6.2-38.795,13.611,3.294,29.735,8.236,30.949c4.941,1.257,36.757.824,35.934,4.941s-22.28,10.75-34.243,7.022c0,0,13.22,32.6,30.559,30.949s22.713-12.4,33.42-13.221c10.75-.823,18.6,2.081,13.221,4.942-5.375,2.9-23.537.954-32.207,8.323s-15.691,11.92.434,15.214c16.081,3.295,44.993,1.257,50.758-11.14Z" transform="translate(-1118.75 -1041.281)" fill="#93b3f4"/>
      <g id="Group_114" data-name="Group 114" transform="translate(16.999 20.728)">
        <path id="Path_357" data-name="Path 357" d="M1146.6,1089.1s86.692,28.088,96.619,59.428c0,0-.433,14.044,8.236,30.125v6.2s-9.1-21.066-14.044-23.927C1237.41,1160.925,1256.786,1133.7,1146.6,1089.1Z" transform="translate(-1146.6 -1089.1)" fill="#3a49cd"/>
        <path id="Path_358" data-name="Path 358" d="M1132.056,1290.757s13.351,20.286,5.765,45.037l-3.424-.91s3.338-27.221-3.641-40.918C1123.69,1280.224,1132.056,1290.757,1132.056,1290.757Z" transform="translate(-1027.202 -1201.161)" fill="#3a49cd"/>
      </g>
    </g>
  </g>
</svg>
