<svg xmlns="http://www.w3.org/2000/svg" id="Layer_1" data-name="Layer 1" viewBox="80 290 980 460">
    <defs>
        <style>
            .cls-1{fill:#404041;}
            .cls-text{
                font-size: 80.67px;
                font-family:Inter-SemiBold, Inter;
                font-weight:700;
            }
        </style>
    </defs>
    <title>Artboard 1 copy 2</title>
    <path class="cls-1" d="M482.39,442.36a3.84,3.84,0,0,1,5.09,4.77C361.28,820.19,88,725.54,138.07,550.15c35.86-125.57,25.93-132.25-4.56-137a3.82,3.82,0,0,1-1.32-7.07c22-13,79.84-42.78,112-16.12,40.27,33.38,19.63,142.5,19.63,142.5Z"/>
    <path class="cls-2" xmlns="http://www.w3.org/2000/svg" d="M221.06,704.44A123.48,123.48,0,0,1,184.22,699c-61-19-91.12-82.55-71.56-151.06,22.24-77.86,27.4-111.69,19-124.79-4.21-6.59-12.14-8.3-22.07-9.86a5.7,5.7,0,0,1-2-10.54c23.38-13.88,81.31-43.2,114.17-15.95C239,401,247.57,429.64,247.4,472a373.16,373.16,0,0,1-4.73,55.68l215.41-88.77a5.72,5.72,0,0,1,7.59,7.11C432,545.43,384.36,620.91,327.81,664.26,293.43,690.62,256.07,704.44,221.06,704.44Zm-33.7-325.17c-28.84,0-61.72,17.12-77.81,26.66a1.89,1.89,0,0,0-.92,2.06,1.86,1.86,0,0,0,1.58,1.53c10.5,1.65,19.6,3.66,24.65,11.55,9.15,14.33,4.29,47.79-18.58,127.85C97,616.45,125.39,676.67,185.34,695.36c43.24,13.48,94.34,1.06,140.18-34.09,56-42.89,103.18-117.75,136.58-216.48a2,2,0,0,0-2.59-2.43L237.74,533.75l.64-3.41c.21-1.08,20-108.41-19-140.7C210.37,382.16,199.2,379.27,187.36,379.27Z"/>
    <text class="cls-text" transform="translate(525.46 426.67)">BAKU<tspan x="0" y="96.81">HUMAN</tspan><tspan xmlns="http://www.w3.org/2000/svg" x="0" y="193.61">RIGHTS</tspan>
        <tspan xmlns="http://www.w3.org/2000/svg" x="0" y="290.41">CLUB</tspan>
    </text>
</svg>