<svg id="Layer_1" data-name="Layer 1" xmlns="http://www.w3.org/2000/svg" viewBox="0 0 1080 1080"><defs><style>.cls-1{fill:#404041;}.cls-2{fill:#00000}.cls-text{font-size:80.67px;font-family:Inter-SemiBold, Inter;font-weight:700;}.cls-3{letter-spacing:-0.01em;}.cls-4{letter-spacing:0em;}.cls-5{letter-spacing:0.03em;}</style></defs><title>Artboard 1 copy 2</title><path class="cls-1" d="M799,222.91a5.34,5.34,0,0,1,7.09,6.63C630.49,748.73,250.13,617,319.85,372.91c49.91-174.75,36.09-184-6.35-190.7a5.32,5.32,0,0,1-1.84-9.83c30.6-18.16,111.12-59.54,155.89-22.44,56,46.46,27.32,198.31,27.32,198.31Z"/><path class='cls-2' d="M435.35,587.65A171.82,171.82,0,0,1,384.08,580c-84.94-26.48-126.82-114.9-99.59-210.23C315.44,261.41,322.62,214.34,311,196.1c-5.86-9.17-16.89-11.55-30.71-13.72a7.93,7.93,0,0,1-2.77-14.67c32.54-19.31,113.15-60.12,158.89-22.2,23.88,19.79,35.86,59.69,35.62,118.6a518.87,518.87,0,0,1-6.58,77.5L765.21,218.07A8,8,0,0,1,775.77,228C729,366.35,662.61,471.39,583.92,531.73,536.07,568.41,484.07,587.65,435.35,587.65ZM388.45,135.1c-40.14,0-85.9,23.83-108.29,37.11a2.68,2.68,0,0,0-1.29,2.87,2.61,2.61,0,0,0,2.2,2.13c14.62,2.29,27.29,5.08,34.31,16.07,12.74,19.94,6,66.5-25.85,177.93C262.68,465.2,302.2,549,385.64,575c60.17,18.75,131.28,1.48,195.09-47.44,77.87-59.7,143.6-163.88,190.08-301.29a2.65,2.65,0,0,0-.72-2.83,2.69,2.69,0,0,0-2.89-.54L458.56,350.1l.9-4.75c.28-1.5,27.79-150.87-26.42-195.81C420.47,139.12,404.93,135.1,388.45,135.1Z"/><text class="cls-text" transform="translate(278.46 730.67)">BAKI İNSAN<tspan x="0" y="96.81">HÜQUQLARI</tspan><tspan x="0" y="193.61">KLUBU</tspan></text></svg>