<svg xmlns="http://www.w3.org/2000/svg" width="32.876" height="30" viewBox="0 0 32.876 30"><g transform="translate(0 -22.397)"><g transform="translate(9.58 33.953)"><g transform="translate(0 0)"><path d="M172.084,205.016l-3.518-2.48a.964.964,0,0,0-1.518.787v1.517h-16.89a.963.963,0,1,0,0,1.926h16.89v1.517a.964.964,0,0,0,1.518.787l3.518-2.48A.965.965,0,0,0,172.084,205.016Z" transform="translate(-149.195 -202.358)" fill="#fff"/></g></g><g transform="translate(0 22.397)"><g transform="translate(0 0)"><path d="M27.641,43.582a.963.963,0,0,0-1.316.351,13.074,13.074,0,1,1,0-13.072.963.963,0,0,0,1.668-.965,15,15,0,1,0,0,15A.963.963,0,0,0,27.641,43.582Z" transform="translate(0 -22.397)" fill="#fff"/></g></g></g></svg>